<svg width="36" height="36" viewBox="0 0 36 36" fill="none" xmlns="http://www.w3.org/2000/svg">
<g clip-path="url(#clip0_2970_17161)">
<path d="M30.75 28.7534C31.1642 28.7534 31.5 28.4176 31.5 28.0034C31.5 27.5892 31.1642 27.2534 30.75 27.2534V28.0034V28.7534ZM29.8003 28.0034V27.2534C29.5109 27.2534 29.2473 27.4199 29.123 27.6812L29.8003 28.0034ZM28.8503 30L28.1518 30.273C28.2607 30.5516 28.5247 30.7388 28.8235 30.7495C29.1224 30.7602 29.3991 30.5923 29.5276 30.3222L28.8503 30ZM27.6775 27L28.3761 26.7269C28.269 26.453 28.0117 26.267 27.7181 26.2511C27.4244 26.2352 27.1486 26.3924 27.0126 26.6531L27.6775 27ZM26.5916 29.0819L25.9979 29.5401C26.1541 29.7426 26.4029 29.8515 26.6577 29.829C26.9125 29.8064 27.1383 29.6555 27.2566 29.4287L26.5916 29.0819ZM25.7593 28.0034L26.3531 27.5452C26.2111 27.3612 25.9918 27.2534 25.7593 27.2534V28.0034ZM24.75 27.2534C24.3358 27.2534 24 27.5892 24 28.0034C24 28.4176 24.3358 28.7534 24.75 28.7534V28.0034V27.2534ZM15.5229 10.2499C15.1087 10.2499 14.7729 10.5857 14.7729 10.9999C14.7729 11.4142 15.1087 11.7499 15.5229 11.7499V10.9999V10.2499ZM20.6197 11.7499C21.0339 11.7499 21.3697 11.4142 21.3697 10.9999C21.3697 10.5857 21.0339 10.2499 20.6197 10.2499V10.9999V11.7499ZM15.5229 19.2499C15.1087 19.2499 14.7729 19.5857 14.7729 19.9999C14.7729 20.4142 15.1087 20.7499 15.5229 20.7499V19.9999V19.2499ZM20.6197 20.7499C21.0339 20.7499 21.3697 20.4142 21.3697 19.9999C21.3697 19.5857 21.0339 19.2499 20.6197 19.2499V19.9999V20.7499ZM15.4995 12.4999C15.0853 12.4999 14.7495 12.8357 14.7495 13.2499C14.7495 13.6642 15.0853 13.9999 15.4995 13.9999V13.2499V12.4999ZM18.4995 13.9999C18.9137 13.9999 19.2495 13.6642 19.2495 13.2499C19.2495 12.8357 18.9137 12.4999 18.4995 12.4999V13.2499V13.9999ZM15.4995 21.4999C15.0853 21.4999 14.7495 21.8357 14.7495 22.2499C14.7495 22.6642 15.0853 22.9999 15.4995 22.9999V22.2499V21.4999ZM18.4995 22.9999C18.9137 22.9999 19.2495 22.6642 19.2495 22.2499C19.2495 21.8357 18.9137 21.4999 18.4995 21.4999V22.2499V22.9999ZM22.2495 31.2499C22.6637 31.2499 22.9995 30.9142 22.9995 30.4999C22.9995 30.0857 22.6637 29.7499 22.2495 29.7499V30.4999V31.2499ZM7.24951 7.24995C7.66373 7.24995 7.99951 6.91416 7.99951 6.49995C7.99951 6.08573 7.66373 5.74995 7.24951 5.74995V6.49995V7.24995ZM21.4995 5.74995C21.0853 5.74995 20.7495 6.08573 20.7495 6.49995C20.7495 6.91416 21.0853 7.24995 21.4995 7.24995V6.49995V5.74995ZM22.9995 22.9999C22.9995 23.4142 23.3353 23.7499 23.7495 23.7499C24.1637 23.7499 24.4995 23.4142 24.4995 22.9999H23.7495H22.9995ZM27.4986 24.5303L26.9817 25.0736C27.2712 25.3492 27.726 25.3492 28.0156 25.0736L27.4986 24.5303ZM23.0419 31.0825L22.5466 31.6457L22.5467 31.6458L23.0419 31.0825ZM27.4986 34.9999L27.0035 35.5633C27.2866 35.8121 27.7105 35.8122 27.9936 35.5634L27.4986 34.9999ZM31.9577 31.0825L32.4527 31.6459L32.4529 31.6457L31.9577 31.0825ZM14.0735 7.27722C13.6592 7.27722 13.3235 7.61301 13.3235 8.02722C13.3235 8.44144 13.6592 8.77722 14.0735 8.77722V8.02722V7.27722ZM16.6855 2.64212L15.9365 2.67943C15.9564 3.07865 16.2858 3.39212 16.6855 3.39212V2.64212ZM11.98 2.64212V3.39212C12.3797 3.39212 12.7092 3.07867 12.7291 2.67947L11.98 2.64212ZM11.7687 8.77722C12.183 8.77722 12.5187 8.44144 12.5187 8.02722C12.5187 7.61301 12.183 7.27722 11.7687 7.27722V8.02722V8.77722ZM1.86914 17.4157C1.86914 17.8299 2.20493 18.1657 2.61914 18.1657C3.03335 18.1657 3.36914 17.8299 3.36914 17.4157H2.61914H1.86914ZM8.60746 5.02722C9.02167 5.02722 9.35746 4.69144 9.35746 4.27722C9.35746 3.86301 9.02167 3.52722 8.60746 3.52722V4.27722V5.02722ZM25.0023 33.5272C25.4165 33.5272 25.7523 33.1914 25.7523 32.7772C25.7523 32.363 25.4165 32.0272 25.0023 32.0272V32.7772V33.5272ZM3.36914 19.637C3.36914 19.2227 3.03335 18.887 2.61914 18.887C2.20493 18.887 1.86914 19.2227 1.86914 19.637H2.61914H3.36914ZM19.9995 3.52722C19.5853 3.52722 19.2495 3.86301 19.2495 4.27722C19.2495 4.69144 19.5853 5.02722 19.9995 5.02722V4.27722V3.52722ZM25.1191 23.3749C25.1191 23.7892 25.4549 24.1249 25.8691 24.1249C26.2834 24.1249 26.6191 23.7892 26.6191 23.3749H25.8691H25.1191ZM10.0076 12.343C9.70295 12.0624 9.22847 12.0819 8.94785 12.3866C8.66723 12.6912 8.68673 13.1657 8.99141 13.4463L9.49951 12.8947L10.0076 12.343ZM10.1254 13.4712L10.6335 12.9195L10.6335 12.9195L10.1254 13.4712ZM11.205 13.4053L11.7764 13.891L11.7764 13.891L11.205 13.4053ZM13.821 11.4857C14.0892 11.1701 14.0509 10.6968 13.7352 10.4285C13.4196 10.1602 12.9463 10.1986 12.6781 10.5142L13.2495 10.9999L13.821 11.4857ZM10.0076 21.343C9.70295 21.0624 9.22847 21.0819 8.94785 21.3866C8.66723 21.6912 8.68673 22.1657 8.99141 22.4463L9.49951 21.8947L10.0076 21.343ZM10.1254 22.4712L10.6335 21.9195L10.6335 21.9195L10.1254 22.4712ZM11.205 22.4053L11.7764 22.891L11.7764 22.891L11.205 22.4053ZM13.821 20.4857C14.0892 20.1701 14.0509 19.6968 13.7352 19.4285C13.4196 19.1602 12.9463 19.1986 12.6781 19.5142L13.2495 19.9999L13.821 20.4857ZM9.49951 11.7499C9.91373 11.7499 10.2495 11.4142 10.2495 10.9999C10.2495 10.5857 9.91373 10.2499 9.49951 10.2499V10.9999V11.7499ZM10.9995 16.2499C11.4137 16.2499 11.7495 15.9142 11.7495 15.4999C11.7495 15.0857 11.4137 14.7499 10.9995 14.7499V15.4999V16.2499ZM9.49951 20.7499C9.91373 20.7499 10.2495 20.4142 10.2495 19.9999C10.2495 19.5857 9.91373 19.2499 9.49951 19.2499V19.9999V20.7499ZM10.9995 25.2499C11.4137 25.2499 11.7495 24.9142 11.7495 24.4999C11.7495 24.0857 11.4137 23.7499 10.9995 23.7499V24.4999V25.2499ZM30.75 28.0034V27.2534H29.8003V28.0034V28.7534H30.75V28.0034ZM29.8003 28.0034L29.123 27.6812L28.1731 29.6777L28.8503 30L29.5276 30.3222L30.4775 28.3257L29.8003 28.0034ZM28.8503 30L29.5488 29.7269L28.3761 26.7269L27.6775 27L26.979 27.273L28.1518 30.273L28.8503 30ZM27.6775 27L27.0126 26.6531L25.9266 28.735L26.5916 29.0819L27.2566 29.4287L28.3425 27.3468L27.6775 27ZM26.5916 29.0819L27.1853 28.6237L26.3531 27.5452L25.7593 28.0034L25.1656 28.4616L25.9979 29.5401L26.5916 29.0819ZM25.7593 28.0034V27.2534H24.75V28.0034V28.7534H25.7593V28.0034ZM15.5229 10.9999V11.7499H20.6197V10.9999V10.2499H15.5229V10.9999ZM15.5229 19.9999V20.7499H20.6197V19.9999V19.2499H15.5229V19.9999ZM15.4995 13.2499V13.9999H18.4995V13.2499V12.4999H15.4995V13.2499ZM15.4995 22.2499V22.9999H18.4995V22.2499V21.4999H15.4995V22.2499ZM22.2495 30.4999V29.7499H5.51283V30.4999V31.2499H22.2495V30.4999ZM5.51283 30.4999V29.7499C5.62717 29.7499 5.74951 29.844 5.74951 29.9991H4.99951H4.24951C4.24951 30.7051 4.83187 31.2499 5.51283 31.2499V30.4999ZM4.99951 29.9991H5.74951V6.999H4.99951H4.24951V29.9991H4.99951ZM4.99951 6.999H5.74951C5.74951 7.15756 5.62368 7.24995 5.51283 7.24995V6.49995V5.74995C4.83537 5.74995 4.24951 6.28958 4.24951 6.999H4.99951ZM5.51283 6.49995V7.24995C5.51338 7.24995 5.51394 7.24995 5.5145 7.24995C5.51506 7.24995 5.51563 7.24995 5.5162 7.24995C5.51677 7.24995 5.51735 7.24995 5.51793 7.24995C5.51851 7.24995 5.51909 7.24995 5.51968 7.24995C5.52027 7.24995 5.52086 7.24995 5.52146 7.24995C5.52206 7.24995 5.52266 7.24995 5.52326 7.24995C5.52387 7.24995 5.52448 7.24995 5.5251 7.24995C5.52571 7.24995 5.52633 7.24995 5.52695 7.24995C5.52758 7.24995 5.5282 7.24995 5.52884 7.24995C5.52947 7.24995 5.53011 7.24995 5.53075 7.24995C5.53139 7.24995 5.53203 7.24995 5.53268 7.24995C5.53333 7.24995 5.53398 7.24995 5.53464 7.24995C5.5353 7.24995 5.53596 7.24995 5.53663 7.24995C5.53729 7.24995 5.53796 7.24995 5.53864 7.24995C5.53931 7.24995 5.53999 7.24995 5.54067 7.24995C5.54136 7.24995 5.54204 7.24995 5.54273 7.24995C5.54343 7.24995 5.54412 7.24995 5.54482 7.24995C5.54552 7.24995 5.54622 7.24995 5.54693 7.24995C5.54764 7.24995 5.54835 7.24995 5.54907 7.24995C5.54978 7.24995 5.5505 7.24995 5.55123 7.24995C5.55195 7.24995 5.55268 7.24995 5.55341 7.24995C5.55414 7.24995 5.55488 7.24995 5.55562 7.24995C5.55636 7.24995 5.5571 7.24995 5.55785 7.24995C5.5586 7.24995 5.55935 7.24995 5.56011 7.24995C5.56087 7.24995 5.56163 7.24995 5.56239 7.24995C5.56315 7.24995 5.56392 7.24995 5.56469 7.24995C5.56547 7.24995 5.56624 7.24995 5.56702 7.24995C5.5678 7.24995 5.56859 7.24995 5.56938 7.24995C5.57016 7.24995 5.57095 7.24995 5.57175 7.24995C5.57255 7.24995 5.57335 7.24995 5.57415 7.24995C5.57495 7.24995 5.57576 7.24995 5.57657 7.24995C5.57738 7.24995 5.5782 7.24995 5.57902 7.24995C5.57984 7.24995 5.58066 7.24995 5.58149 7.24995C5.58231 7.24995 5.58314 7.24995 5.58398 7.24995C5.58481 7.24995 5.58565 7.24995 5.58649 7.24995C5.58733 7.24995 5.58818 7.24995 5.58903 7.24995C5.58988 7.24995 5.59073 7.24995 5.59159 7.24995C5.59244 7.24995 5.5933 7.24995 5.59417 7.24995C5.59503 7.24995 5.5959 7.24995 5.59677 7.24995C5.59765 7.24995 5.59852 7.24995 5.5994 7.24995C5.60028 7.24995 5.60116 7.24995 5.60205 7.24995C5.60293 7.24995 5.60382 7.24995 5.60472 7.24995C5.60561 7.24995 5.60651 7.24995 5.60741 7.24995C5.60831 7.24995 5.60922 7.24995 5.61012 7.24995C5.61103 7.24995 5.61194 7.24995 5.61286 7.24995C5.61378 7.24995 5.61469 7.24995 5.61562 7.24995C5.61654 7.24995 5.61747 7.24995 5.6184 7.24995C5.61933 7.24995 5.62026 7.24995 5.6212 7.24995C5.62213 7.24995 5.62307 7.24995 5.62402 7.24995C5.62496 7.24995 5.62591 7.24995 5.62686 7.24995C5.62781 7.24995 5.62876 7.24995 5.62972 7.24995C5.63068 7.24995 5.63164 7.24995 5.63261 7.24995C5.63357 7.24995 5.63454 7.24995 5.63551 7.24995C5.63648 7.24995 5.63746 7.24995 5.63843 7.24995C5.63941 7.24995 5.64039 7.24995 5.64138 7.24995C5.64236 7.24995 5.64335 7.24995 5.64435 7.24995C5.64534 7.24995 5.64633 7.24995 5.64733 7.24995C5.64833 7.24995 5.64933 7.24995 5.65034 7.24995C5.65134 7.24995 5.65235 7.24995 5.65336 7.24995C5.65438 7.24995 5.65539 7.24995 5.65641 7.24995C5.65743 7.24995 5.65845 7.24995 5.65947 7.24995C5.6605 7.24995 5.66153 7.24995 5.66256 7.24995C5.66359 7.24995 5.66463 7.24995 5.66566 7.24995C5.6667 7.24995 5.66774 7.24995 5.66879 7.24995C5.66983 7.24995 5.67088 7.24995 5.67193 7.24995C5.67298 7.24995 5.67404 7.24995 5.67509 7.24995C5.67615 7.24995 5.67721 7.24995 5.67828 7.24995C5.67934 7.24995 5.68041 7.24995 5.68148 7.24995C5.68255 7.24995 5.68362 7.24995 5.6847 7.24995C5.68577 7.24995 5.68685 7.24995 5.68793 7.24995C5.68902 7.24995 5.6901 7.24995 5.69119 7.24995C5.69228 7.24995 5.69337 7.24995 5.69447 7.24995C5.69556 7.24995 5.69666 7.24995 5.69776 7.24995C5.69886 7.24995 5.69996 7.24995 5.70107 7.24995C5.70218 7.24995 5.70329 7.24995 5.7044 7.24995C5.70551 7.24995 5.70663 7.24995 5.70775 7.24995C5.70887 7.24995 5.70999 7.24995 5.71111 7.24995C5.71224 7.24995 5.71337 7.24995 5.7145 7.24995C5.71563 7.24995 5.71676 7.24995 5.7179 7.24995C5.71903 7.24995 5.72017 7.24995 5.72132 7.24995C5.72246 7.24995 5.7236 7.24995 5.72475 7.24995C5.7259 7.24995 5.72705 7.24995 5.72821 7.24995C5.72936 7.24995 5.73052 7.24995 5.73168 7.24995C5.73284 7.24995 5.734 7.24995 5.73516 7.24995C5.73633 7.24995 5.7375 7.24995 5.73867 7.24995C5.73984 7.24995 5.74101 7.24995 5.74219 7.24995C5.74336 7.24995 5.74454 7.24995 5.74573 7.24995C5.74691 7.24995 5.74809 7.24995 5.74928 7.24995C5.75047 7.24995 5.75166 7.24995 5.75285 7.24995C5.75404 7.24995 5.75524 7.24995 5.75644 7.24995C5.75764 7.24995 5.75884 7.24995 5.76004 7.24995C5.76125 7.24995 5.76245 7.24995 5.76366 7.24995C5.76487 7.24995 5.76608 7.24995 5.7673 7.24995C5.76851 7.24995 5.76973 7.24995 5.77095 7.24995C5.77217 7.24995 5.77339 7.24995 5.77462 7.24995C5.77584 7.24995 5.77707 7.24995 5.7783 7.24995C5.77953 7.24995 5.78076 7.24995 5.782 7.24995C5.78323 7.24995 5.78447 7.24995 5.78571 7.24995C5.78695 7.24995 5.78819 7.24995 5.78944 7.24995C5.79068 7.24995 5.79193 7.24995 5.79318 7.24995C5.79443 7.24995 5.79569 7.24995 5.79694 7.24995C5.7982 7.24995 5.79946 7.24995 5.80072 7.24995C5.80198 7.24995 5.80324 7.24995 5.80451 7.24995C5.80577 7.24995 5.80704 7.24995 5.80831 7.24995C5.80958 7.24995 5.81085 7.24995 5.81213 7.24995C5.8134 7.24995 5.81468 7.24995 5.81596 7.24995C5.81724 7.24995 5.81852 7.24995 5.81981 7.24995C5.82109 7.24995 5.82238 7.24995 5.82367 7.24995C5.82496 7.24995 5.82625 7.24995 5.82754 7.24995C5.82884 7.24995 5.83013 7.24995 5.83143 7.24995C5.83273 7.24995 5.83403 7.24995 5.83534 7.24995C5.83664 7.24995 5.83795 7.24995 5.83925 7.24995C5.84056 7.24995 5.84187 7.24995 5.84318 7.24995C5.8445 7.24995 5.84581 7.24995 5.84713 7.24995C5.84845 7.24995 5.84976 7.24995 5.85109 7.24995C5.85241 7.24995 5.85373 7.24995 5.85506 7.24995C5.85638 7.24995 5.85771 7.24995 5.85904 7.24995C5.86037 7.24995 5.8617 7.24995 5.86304 7.24995C5.86437 7.24995 5.86571 7.24995 5.86705 7.24995C5.86839 7.24995 5.86973 7.24995 5.87107 7.24995C5.87241 7.24995 5.87376 7.24995 5.87511 7.24995C5.87645 7.24995 5.8778 7.24995 5.87916 7.24995C5.88051 7.24995 5.88186 7.24995 5.88322 7.24995C5.88457 7.24995 5.88593 7.24995 5.88729 7.24995C5.88865 7.24995 5.89001 7.24995 5.89137 7.24995C5.89274 7.24995 5.8941 7.24995 5.89547 7.24995C5.89684 7.24995 5.89821 7.24995 5.89958 7.24995C5.90095 7.24995 5.90233 7.24995 5.9037 7.24995C5.90508 7.24995 5.90646 7.24995 5.90784 7.24995C5.90922 7.24995 5.9106 7.24995 5.91198 7.24995C5.91336 7.24995 5.91475 7.24995 5.91614 7.24995C5.91752 7.24995 5.91891 7.24995 5.9203 7.24995C5.9217 7.24995 5.92309 7.24995 5.92448 7.24995C5.92588 7.24995 5.92727 7.24995 5.92867 7.24995C5.93007 7.24995 5.93147 7.24995 5.93287 7.24995C5.93428 7.24995 5.93568 7.24995 5.93709 7.24995C5.93849 7.24995 5.9399 7.24995 5.94131 7.24995C5.94272 7.24995 5.94413 7.24995 5.94554 7.24995C5.94696 7.24995 5.94837 7.24995 5.94979 7.24995C5.9512 7.24995 5.95262 7.24995 5.95404 7.24995C5.95546 7.24995 5.95688 7.24995 5.95831 7.24995C5.95973 7.24995 5.96116 7.24995 5.96258 7.24995C5.96401 7.24995 5.96544 7.24995 5.96687 7.24995C5.9683 7.24995 5.96973 7.24995 5.97116 7.24995C5.9726 7.24995 5.97403 7.24995 5.97547 7.24995C5.97691 7.24995 5.97834 7.24995 5.97978 7.24995C5.98122 7.24995 5.98267 7.24995 5.98411 7.24995C5.98555 7.24995 5.987 7.24995 5.98844 7.24995C5.98989 7.24995 5.99134 7.24995 5.99279 7.24995C5.99424 7.24995 5.99569 7.24995 5.99714 7.24995C5.99859 7.24995 6.00005 7.24995 6.0015 7.24995C6.00296 7.24995 6.00442 7.24995 6.00587 7.24995C6.00733 7.24995 6.00879 7.24995 6.01026 7.24995C6.01172 7.24995 6.01318 7.24995 6.01464 7.24995C6.01611 7.24995 6.01757 7.24995 6.01904 7.24995C6.02051 7.24995 6.02198 7.24995 6.02345 7.24995C6.02492 7.24995 6.02639 7.24995 6.02786 7.24995C6.02934 7.24995 6.03081 7.24995 6.03229 7.24995C6.03376 7.24995 6.03524 7.24995 6.03672 7.24995C6.0382 7.24995 6.03968 7.24995 6.04116 7.24995C6.04264 7.24995 6.04412 7.24995 6.04561 7.24995C6.04709 7.24995 6.04858 7.24995 6.05006 7.24995C6.05155 7.24995 6.05304 7.24995 6.05453 7.24995C6.05601 7.24995 6.0575 7.24995 6.059 7.24995C6.06049 7.24995 6.06198 7.24995 6.06348 7.24995C6.06497 7.24995 6.06646 7.24995 6.06796 7.24995C6.06946 7.24995 6.07096 7.24995 6.07245 7.24995C6.07395 7.24995 6.07545 7.24995 6.07696 7.24995C6.07846 7.24995 6.07996 7.24995 6.08146 7.24995C6.08297 7.24995 6.08447 7.24995 6.08598 7.24995C6.08748 7.24995 6.08899 7.24995 6.0905 7.24995C6.09201 7.24995 6.09352 7.24995 6.09503 7.24995C6.09654 7.24995 6.09805 7.24995 6.09956 7.24995C6.10107 7.24995 6.10259 7.24995 6.1041 7.24995C6.10562 7.24995 6.10713 7.24995 6.10865 7.24995C6.11017 7.24995 6.11169 7.24995 6.1132 7.24995C6.11472 7.24995 6.11624 7.24995 6.11777 7.24995C6.11929 7.24995 6.12081 7.24995 6.12233 7.24995C6.12385 7.24995 6.12538 7.24995 6.1269 7.24995C6.12843 7.24995 6.12995 7.24995 6.13148 7.24995C6.13301 7.24995 6.13454 7.24995 6.13606 7.24995C6.13759 7.24995 6.13912 7.24995 6.14065 7.24995C6.14218 7.24995 6.14372 7.24995 6.14525 7.24995C6.14678 7.24995 6.14831 7.24995 6.14985 7.24995C6.15138 7.24995 6.15292 7.24995 6.15445 7.24995C6.15599 7.24995 6.15753 7.24995 6.15906 7.24995C6.1606 7.24995 6.16214 7.24995 6.16368 7.24995C6.16522 7.24995 6.16676 7.24995 6.1683 7.24995C6.16984 7.24995 6.17138 7.24995 6.17292 7.24995C6.17446 7.24995 6.17601 7.24995 6.17755 7.24995C6.1791 7.24995 6.18064 7.24995 6.18219 7.24995C6.18373 7.24995 6.18528 7.24995 6.18682 7.24995C6.18837 7.24995 6.18992 7.24995 6.19147 7.24995C6.19301 7.24995 6.19456 7.24995 6.19611 7.24995C6.19766 7.24995 6.19921 7.24995 6.20076 7.24995C6.20231 7.24995 6.20387 7.24995 6.20542 7.24995C6.20697 7.24995 6.20852 7.24995 6.21008 7.24995C6.21163 7.24995 6.21318 7.24995 6.21474 7.24995C6.21629 7.24995 6.21785 7.24995 6.2194 7.24995C6.22096 7.24995 6.22252 7.24995 6.22407 7.24995C6.22563 7.24995 6.22719 7.24995 6.22874 7.24995C6.2303 7.24995 6.23186 7.24995 6.23342 7.24995C6.23498 7.24995 6.23654 7.24995 6.2381 7.24995C6.23966 7.24995 6.24122 7.24995 6.24278 7.24995C6.24434 7.24995 6.2459 7.24995 6.24746 7.24995C6.24903 7.24995 6.25059 7.24995 6.25215 7.24995C6.25371 7.24995 6.25528 7.24995 6.25684 7.24995C6.2584 7.24995 6.25997 7.24995 6.26153 7.24995C6.2631 7.24995 6.26466 7.24995 6.26623 7.24995C6.26779 7.24995 6.26936 7.24995 6.27092 7.24995C6.27249 7.24995 6.27406 7.24995 6.27562 7.24995C6.27719 7.24995 6.27876 7.24995 6.28032 7.24995C6.28189 7.24995 6.28346 7.24995 6.28503 7.24995C6.2866 7.24995 6.28816 7.24995 6.28973 7.24995C6.2913 7.24995 6.29287 7.24995 6.29444 7.24995C6.29601 7.24995 6.29758 7.24995 6.29915 7.24995C6.30072 7.24995 6.30229 7.24995 6.30386 7.24995C6.30543 7.24995 6.307 7.24995 6.30857 7.24995C6.31014 7.24995 6.31171 7.24995 6.31328 7.24995C6.31485 7.24995 6.31642 7.24995 6.31799 7.24995C6.31956 7.24995 6.32114 7.24995 6.32271 7.24995C6.32428 7.24995 6.32585 7.24995 6.32742 7.24995C6.32899 7.24995 6.33057 7.24995 6.33214 7.24995C6.33371 7.24995 6.33528 7.24995 6.33685 7.24995C6.33843 7.24995 6.34 7.24995 6.34157 7.24995C6.34314 7.24995 6.34472 7.24995 6.34629 7.24995C6.34786 7.24995 6.34943 7.24995 6.35101 7.24995C6.35258 7.24995 6.35415 7.24995 6.35572 7.24995C6.3573 7.24995 6.35887 7.24995 6.36044 7.24995C6.36201 7.24995 6.36359 7.24995 6.36516 7.24995C6.36673 7.24995 6.3683 7.24995 6.36988 7.24995C6.37145 7.24995 6.37302 7.24995 6.37459 7.24995C6.37617 7.24995 6.37774 7.24995 6.37931 7.24995C6.38088 7.24995 6.38245 7.24995 6.38403 7.24995C6.3856 7.24995 6.38717 7.24995 6.38874 7.24995C6.39031 7.24995 6.39189 7.24995 6.39346 7.24995C6.39503 7.24995 6.3966 7.24995 6.39817 7.24995C6.39974 7.24995 6.40131 7.24995 6.40288 7.24995C6.40445 7.24995 6.40603 7.24995 6.4076 7.24995C6.40917 7.24995 6.41074 7.24995 6.41231 7.24995C6.41388 7.24995 6.41545 7.24995 6.41702 7.24995C6.41858 7.24995 6.42015 7.24995 6.42172 7.24995C6.42329 7.24995 6.42486 7.24995 6.42643 7.24995C6.428 7.24995 6.42957 7.24995 6.43113 7.24995C6.4327 7.24995 6.43427 7.24995 6.43584 7.24995C6.4374 7.24995 6.43897 7.24995 6.44054 7.24995C6.4421 7.24995 6.44367 7.24995 6.44523 7.24995C6.4468 7.24995 6.44837 7.24995 6.44993 7.24995C6.4515 7.24995 6.45306 7.24995 6.45462 7.24995C6.45619 7.24995 6.45775 7.24995 6.45932 7.24995C6.46088 7.24995 6.46244 7.24995 6.46401 7.24995C6.46557 7.24995 6.46713 7.24995 6.46869 7.24995C6.47025 7.24995 6.47181 7.24995 6.47338 7.24995C6.47494 7.24995 6.4765 7.24995 6.47806 7.24995C6.47962 7.24995 6.48117 7.24995 6.48273 7.24995C6.48429 7.24995 6.48585 7.24995 6.48741 7.24995C6.48897 7.24995 6.49052 7.24995 6.49208 7.24995C6.49364 7.24995 6.49519 7.24995 6.49675 7.24995C6.4983 7.24995 6.49986 7.24995 6.50141 7.24995C6.50297 7.24995 6.50452 7.24995 6.50607 7.24995C6.50763 7.24995 6.50918 7.24995 6.51073 7.24995C6.51228 7.24995 6.51383 7.24995 6.51538 7.24995C6.51693 7.24995 6.51848 7.24995 6.52003 7.24995C6.52158 7.24995 6.52313 7.24995 6.52468 7.24995C6.52623 7.24995 6.52777 7.24995 6.52932 7.24995C6.53087 7.24995 6.53241 7.24995 6.53396 7.24995C6.5355 7.24995 6.53704 7.24995 6.53859 7.24995C6.54013 7.24995 6.54167 7.24995 6.54322 7.24995C6.54476 7.24995 6.5463 7.24995 6.54784 7.24995C6.54938 7.24995 6.55092 7.24995 6.55246 7.24995C6.554 7.24995 6.55553 7.24995 6.55707 7.24995C6.55861 7.24995 6.56014 7.24995 6.56168 7.24995C6.56322 7.24995 6.56475 7.24995 6.56628 7.24995C6.56782 7.24995 6.56935 7.24995 6.57088 7.24995C6.57241 7.24995 6.57394 7.24995 6.57547 7.24995C6.577 7.24995 6.57853 7.24995 6.58006 7.24995C6.58159 7.24995 6.58312 7.24995 6.58464 7.24995C6.58617 7.24995 6.5877 7.24995 6.58922 7.24995C6.59074 7.24995 6.59227 7.24995 6.59379 7.24995C6.59531 7.24995 6.59683 7.24995 6.59835 7.24995C6.59988 7.24995 6.60139 7.24995 6.60291 7.24995C6.60443 7.24995 6.60595 7.24995 6.60747 7.24995C6.60898 7.24995 6.6105 7.24995 6.61201 7.24995C6.61353 7.24995 6.61504 7.24995 6.61655 7.24995C6.61806 7.24995 6.61957 7.24995 6.62108 7.24995C6.62259 7.24995 6.6241 7.24995 6.62561 7.24995C6.62712 7.24995 6.62862 7.24995 6.63013 7.24995C6.63163 7.24995 6.63314 7.24995 6.63464 7.24995C6.63615 7.24995 6.63765 7.24995 6.63915 7.24995C6.64065 7.24995 6.64215 7.24995 6.64365 7.24995C6.64514 7.24995 6.64664 7.24995 6.64814 7.24995C6.64963 7.24995 6.65113 7.24995 6.65262 7.24995C6.65411 7.24995 6.65561 7.24995 6.6571 7.24995C6.65859 7.24995 6.66008 7.24995 6.66157 7.24995C6.66306 7.24995 6.66454 7.24995 6.66603 7.24995C6.66751 7.24995 6.669 7.24995 6.67048 7.24995C6.67196 7.24995 6.67345 7.24995 6.67493 7.24995C6.67641 7.24995 6.67789 7.24995 6.67936 7.24995C6.68084 7.24995 6.68232 7.24995 6.68379 7.24995C6.68527 7.24995 6.68674 7.24995 6.68821 7.24995C6.68969 7.24995 6.69116 7.24995 6.69263 7.24995C6.6941 7.24995 6.69556 7.24995 6.69703 7.24995C6.6985 7.24995 6.69996 7.24995 6.70143 7.24995C6.70289 7.24995 6.70435 7.24995 6.70581 7.24995C6.70727 7.24995 6.70873 7.24995 6.71019 7.24995C6.71165 7.24995 6.7131 7.24995 6.71456 7.24995C6.71601 7.24995 6.71747 7.24995 6.71892 7.24995C6.72037 7.24995 6.72182 7.24995 6.72327 7.24995C6.72472 7.24995 6.72617 7.24995 6.72761 7.24995C6.72906 7.24995 6.7305 7.24995 6.73194 7.24995C6.73338 7.24995 6.73483 7.24995 6.73626 7.24995C6.7377 7.24995 6.73914 7.24995 6.74058 7.24995C6.74201 7.24995 6.74345 7.24995 6.74488 7.24995C6.74631 7.24995 6.74774 7.24995 6.74917 7.24995C6.7506 7.24995 6.75203 7.24995 6.75345 7.24995C6.75488 7.24995 6.7563 7.24995 6.75773 7.24995C6.75915 7.24995 6.76057 7.24995 6.76199 7.24995C6.76341 7.24995 6.76483 7.24995 6.76624 7.24995C6.76766 7.24995 6.76907 7.24995 6.77048 7.24995C6.77189 7.24995 6.7733 7.24995 6.77471 7.24995C6.77612 7.24995 6.77753 7.24995 6.77893 7.24995C6.78034 7.24995 6.78174 7.24995 6.78314 7.24995C6.78454 7.24995 6.78594 7.24995 6.78734 7.24995C6.78874 7.24995 6.79013 7.24995 6.79153 7.24995C6.79292 7.24995 6.79431 7.24995 6.7957 7.24995C6.79709 7.24995 6.79848 7.24995 6.79987 7.24995C6.80125 7.24995 6.80264 7.24995 6.80402 7.24995C6.8054 7.24995 6.80678 7.24995 6.80816 7.24995C6.80954 7.24995 6.81092 7.24995 6.81229 7.24995C6.81367 7.24995 6.81504 7.24995 6.81641 7.24995C6.81778 7.24995 6.81915 7.24995 6.82051 7.24995C6.82188 7.24995 6.82325 7.24995 6.82461 7.24995C6.82597 7.24995 6.82733 7.24995 6.82869 7.24995C6.83005 7.24995 6.83141 7.24995 6.83276 7.24995C6.83411 7.24995 6.83547 7.24995 6.83682 7.24995C6.83817 7.24995 6.83952 7.24995 6.84086 7.24995C6.84221 7.24995 6.84355 7.24995 6.84489 7.24995C6.84624 7.24995 6.84757 7.24995 6.84891 7.24995C6.85025 7.24995 6.85159 7.24995 6.85292 7.24995C6.85425 7.24995 6.85558 7.24995 6.85691 7.24995C6.85824 7.24995 6.85957 7.24995 6.86089 7.24995C6.86222 7.24995 6.86354 7.24995 6.86486 7.24995C6.86618 7.24995 6.8675 7.24995 6.86881 7.24995C6.87013 7.24995 6.87144 7.24995 6.87275 7.24995C6.87406 7.24995 6.87537 7.24995 6.87668 7.24995C6.87799 7.24995 6.87929 7.24995 6.88059 7.24995C6.8819 7.24995 6.8832 7.24995 6.88449 7.24995C6.88579 7.24995 6.88709 7.24995 6.88838 7.24995C6.88967 7.24995 6.89096 7.24995 6.89225 7.24995C6.89354 7.24995 6.89482 7.24995 6.89611 7.24995C6.89739 7.24995 6.89867 7.24995 6.89995 7.24995C6.90123 7.24995 6.9025 7.24995 6.90378 7.24995C6.90505 7.24995 6.90632 7.24995 6.90759 7.24995C6.90886 7.24995 6.91013 7.24995 6.91139 7.24995C6.91266 7.24995 6.91392 7.24995 6.91518 7.24995C6.91644 7.24995 6.91769 7.24995 6.91895 7.24995C6.9202 7.24995 6.92145 7.24995 6.9227 7.24995C6.92395 7.24995 6.9252 7.24995 6.92644 7.24995C6.92768 7.24995 6.92893 7.24995 6.93017 7.24995C6.9314 7.24995 6.93264 7.24995 6.93387 7.24995C6.93511 7.24995 6.93634 7.24995 6.93757 7.24995C6.9388 7.24995 6.94002 7.24995 6.94125 7.24995C6.94247 7.24995 6.94369 7.24995 6.94491 7.24995C6.94613 7.24995 6.94734 7.24995 6.94856 7.24995C6.94977 7.24995 6.95098 7.24995 6.95219 7.24995C6.95339 7.24995 6.9546 7.24995 6.9558 7.24995C6.957 7.24995 6.9582 7.24995 6.9594 7.24995C6.9606 7.24995 6.96179 7.24995 6.96298 7.24995C6.96417 7.24995 6.96536 7.24995 6.96655 7.24995C6.96773 7.24995 6.96892 7.24995 6.9701 7.24995C6.97128 7.24995 6.97246 7.24995 6.97363 7.24995C6.97481 7.24995 6.97598 7.24995 6.97715 7.24995C6.97832 7.24995 6.97948 7.24995 6.98065 7.24995C6.98181 7.24995 6.98297 7.24995 6.98413 7.24995C6.98529 7.24995 6.98644 7.24995 6.98759 7.24995C6.98875 7.24995 6.9899 7.24995 6.99104 7.24995C6.99219 7.24995 6.99333 7.24995 6.99447 7.24995C6.99561 7.24995 6.99675 7.24995 6.99789 7.24995C6.99902 7.24995 7.00015 7.24995 7.00128 7.24995C7.00241 7.24995 7.00354 7.24995 7.00466 7.24995C7.00578 7.24995 7.0069 7.24995 7.00802 7.24995C7.00914 7.24995 7.01025 7.24995 7.01136 7.24995C7.01247 7.24995 7.01358 7.24995 7.01469 7.24995C7.01579 7.24995 7.0169 7.24995 7.01799 7.24995C7.01909 7.24995 7.02019 7.24995 7.02128 7.24995C7.02238 7.24995 7.02347 7.24995 7.02455 7.24995C7.02564 7.24995 7.02672 7.24995 7.0278 7.24995C7.02888 7.24995 7.02996 7.24995 7.03104 7.24995C7.03211 7.24995 7.03318 7.24995 7.03425 7.24995C7.03532 7.24995 7.03638 7.24995 7.03744 7.24995C7.03851 7.24995 7.03957 7.24995 7.04062 7.24995C7.04168 7.24995 7.04273 7.24995 7.04378 7.24995C7.04483 7.24995 7.04587 7.24995 7.04692 7.24995C7.04796 7.24995 7.049 7.24995 7.05003 7.24995C7.05107 7.24995 7.0521 7.24995 7.05313 7.24995C7.05416 7.24995 7.05519 7.24995 7.05621 7.24995C7.05724 7.24995 7.05826 7.24995 7.05927 7.24995C7.06029 7.24995 7.0613 7.24995 7.06231 7.24995C7.06332 7.24995 7.06433 7.24995 7.06533 7.24995C7.06634 7.24995 7.06734 7.24995 7.06833 7.24995C7.06933 7.24995 7.07032 7.24995 7.07131 7.24995C7.0723 7.24995 7.07329 7.24995 7.07427 7.24995C7.07526 7.24995 7.07624 7.24995 7.07721 7.24995C7.07819 7.24995 7.07916 7.24995 7.08013 7.24995C7.0811 7.24995 7.08207 7.24995 7.08303 7.24995C7.08399 7.24995 7.08495 7.24995 7.08591 7.24995C7.08686 7.24995 7.08782 7.24995 7.08876 7.24995C7.08971 7.24995 7.09066 7.24995 7.0916 7.24995C7.09254 7.24995 7.09348 7.24995 7.09441 7.24995C7.09535 7.24995 7.09628 7.24995 7.09721 7.24995C7.09814 7.24995 7.09906 7.24995 7.09998 7.24995C7.1009 7.24995 7.10182 7.24995 7.10273 7.24995C7.10365 7.24995 7.10455 7.24995 7.10546 7.24995C7.10637 7.24995 7.10727 7.24995 7.10817 7.24995C7.10907 7.24995 7.10996 7.24995 7.11085 7.24995C7.11175 7.24995 7.11263 7.24995 7.11352 7.24995C7.1144 7.24995 7.11528 7.24995 7.11616 7.24995C7.11704 7.24995 7.11791 7.24995 7.11878 7.24995C7.11965 7.24995 7.12052 7.24995 7.12138 7.24995C7.12224 7.24995 7.1231 7.24995 7.12395 7.24995C7.12481 7.24995 7.12566 7.24995 7.12651 7.24995C7.12735 7.24995 7.1282 7.24995 7.12904 7.24995C7.12988 7.24995 7.13071 7.24995 7.13154 7.24995C7.13238 7.24995 7.1332 7.24995 7.13403 7.24995C7.13485 7.24995 7.13567 7.24995 7.13649 7.24995C7.13731 7.24995 7.13812 7.24995 7.13893 7.24995C7.13974 7.24995 7.14054 7.24995 7.14134 7.24995C7.14215 7.24995 7.14294 7.24995 7.14374 7.24995C7.14453 7.24995 7.14532 7.24995 7.14611 7.24995C7.14689 7.24995 7.14767 7.24995 7.14845 7.24995C7.14923 7.24995 7.15 7.24995 7.15077 7.24995C7.15154 7.24995 7.15231 7.24995 7.15307 7.24995C7.15383 7.24995 7.15459 7.24995 7.15534 7.24995C7.1561 7.24995 7.15685 7.24995 7.15759 7.24995C7.15834 7.24995 7.15908 7.24995 7.15982 7.24995C7.16056 7.24995 7.16129 7.24995 7.16202 7.24995C7.16275 7.24995 7.16348 7.24995 7.1642 7.24995C7.16492 7.24995 7.16564 7.24995 7.16635 7.24995C7.16707 7.24995 7.16777 7.24995 7.16848 7.24995C7.16919 7.24995 7.16989 7.24995 7.17058 7.24995C7.17128 7.24995 7.17197 7.24995 7.17266 7.24995C7.17335 7.24995 7.17404 7.24995 7.17472 7.24995C7.1754 7.24995 7.17607 7.24995 7.17674 7.24995C7.17742 7.24995 7.17808 7.24995 7.17875 7.24995C7.17941 7.24995 7.18007 7.24995 7.18073 7.24995C7.18138 7.24995 7.18203 7.24995 7.18268 7.24995C7.18333 7.24995 7.18397 7.24995 7.18461 7.24995C7.18524 7.24995 7.18588 7.24995 7.18651 7.24995C7.18714 7.24995 7.18776 7.24995 7.18838 7.24995C7.18901 7.24995 7.18962 7.24995 7.19023 7.24995C7.19085 7.24995 7.19145 7.24995 7.19206 7.24995C7.19266 7.24995 7.19326 7.24995 7.19386 7.24995C7.19445 7.24995 7.19504 7.24995 7.19563 7.24995C7.19621 7.24995 7.1968 7.24995 7.19737 7.24995C7.19795 7.24995 7.19852 7.24995 7.19909 7.24995C7.19966 7.24995 7.20022 7.24995 7.20078 7.24995C7.20134 7.24995 7.2019 7.24995 7.20245 7.24995C7.203 7.24995 7.20355 7.24995 7.20409 7.24995C7.20463 7.24995 7.20517 7.24995 7.2057 7.24995C7.20623 7.24995 7.20676 7.24995 7.20729 7.24995C7.20781 7.24995 7.20833 7.24995 7.20884 7.24995C7.20936 7.24995 7.20987 7.24995 7.21037 7.24995C7.21088 7.24995 7.21138 7.24995 7.21188 7.24995C7.21237 7.24995 7.21286 7.24995 7.21335 7.24995C7.21384 7.24995 7.21432 7.24995 7.2148 7.24995C7.21528 7.24995 7.21575 7.24995 7.21622 7.24995C7.21669 7.24995 7.21715 7.24995 7.21761 7.24995C7.21807 7.24995 7.21853 7.24995 7.21898 7.24995C7.21943 7.24995 7.21987 7.24995 7.22031 7.24995C7.22075 7.24995 7.22119 7.24995 7.22162 7.24995C7.22205 7.24995 7.22248 7.24995 7.2229 7.24995C7.22332 7.24995 7.22374 7.24995 7.22415 7.24995C7.22456 7.24995 7.22497 7.24995 7.22537 7.24995C7.22578 7.24995 7.22617 7.24995 7.22657 7.24995C7.22696 7.24995 7.22735 7.24995 7.22773 7.24995C7.22812 7.24995 7.22849 7.24995 7.22887 7.24995C7.22924 7.24995 7.22961 7.24995 7.22997 7.24995C7.23034 7.24995 7.2307 7.24995 7.23105 7.24995C7.23141 7.24995 7.23176 7.24995 7.2321 7.24995C7.23245 7.24995 7.23279 7.24995 7.23312 7.24995C7.23346 7.24995 7.23379 7.24995 7.23411 7.24995C7.23444 7.24995 7.23476 7.24995 7.23507 7.24995C7.23539 7.24995 7.2357 7.24995 7.236 7.24995C7.23631 7.24995 7.23661 7.24995 7.2369 7.24995C7.2372 7.24995 7.23749 7.24995 7.23777 7.24995C7.23806 7.24995 7.23834 7.24995 7.23861 7.24995C7.23889 7.24995 7.23916 7.24995 7.23942 7.24995C7.23969 7.24995 7.23995 7.24995 7.2402 7.24995C7.24046 7.24995 7.24071 7.24995 7.24095 7.24995C7.2412 7.24995 7.24144 7.24995 7.24167 7.24995C7.2419 7.24995 7.24213 7.24995 7.24236 7.24995C7.24258 7.24995 7.2428 7.24995 7.24302 7.24995C7.24323 7.24995 7.24344 7.24995 7.24364 7.24995C7.24385 7.24995 7.24404 7.24995 7.24424 7.24995C7.24443 7.24995 7.24462 7.24995 7.2448 7.24995C7.24498 7.24995 7.24516 7.24995 7.24533 7.24995C7.24551 7.24995 7.24567 7.24995 7.24584 7.24995C7.246 7.24995 7.24615 7.24995 7.24631 7.24995C7.24646 7.24995 7.2466 7.24995 7.24674 7.24995C7.24688 7.24995 7.24702 7.24995 7.24715 7.24995C7.24728 7.24995 7.24741 7.24995 7.24753 7.24995C7.24764 7.24995 7.24776 7.24995 7.24787 7.24995C7.24798 7.24995 7.24808 7.24995 7.24818 7.24995C7.24828 7.24995 7.24837 7.24995 7.24846 7.24995C7.24854 7.24995 7.24863 7.24995 7.2487 7.24995C7.24878 7.24995 7.24885 7.24995 7.24892 7.24995C7.24898 7.24995 7.24904 7.24995 7.2491 7.24995C7.24915 7.24995 7.2492 7.24995 7.24925 7.24995C7.24929 7.24995 7.24933 7.24995 7.24936 7.24995C7.2494 7.24995 7.24942 7.24995 7.24945 7.24995C7.24947 7.24995 7.24948 7.24995 7.2495 7.24995C7.24951 7.24995 7.24951 7.24995 7.24951 6.49995C7.24951 5.74995 7.24951 5.74995 7.2495 5.74995C7.24948 5.74995 7.24947 5.74995 7.24945 5.74995C7.24942 5.74995 7.2494 5.74995 7.24936 5.74995C7.24933 5.74995 7.24929 5.74995 7.24925 5.74995C7.2492 5.74995 7.24915 5.74995 7.2491 5.74995C7.24904 5.74995 7.24898 5.74995 7.24892 5.74995C7.24885 5.74995 7.24878 5.74995 7.2487 5.74995C7.24863 5.74995 7.24854 5.74995 7.24846 5.74995C7.24837 5.74995 7.24828 5.74995 7.24818 5.74995C7.24808 5.74995 7.24798 5.74995 7.24787 5.74995C7.24776 5.74995 7.24764 5.74995 7.24753 5.74995C7.24741 5.74995 7.24728 5.74995 7.24715 5.74995C7.24702 5.74995 7.24688 5.74995 7.24674 5.74995C7.2466 5.74995 7.24646 5.74995 7.24631 5.74995C7.24615 5.74995 7.246 5.74995 7.24584 5.74995C7.24567 5.74995 7.24551 5.74995 7.24533 5.74995C7.24516 5.74995 7.24498 5.74995 7.2448 5.74995C7.24462 5.74995 7.24443 5.74995 7.24424 5.74995C7.24404 5.74995 7.24385 5.74995 7.24364 5.74995C7.24344 5.74995 7.24323 5.74995 7.24302 5.74995C7.2428 5.74995 7.24258 5.74995 7.24236 5.74995C7.24213 5.74995 7.2419 5.74995 7.24167 5.74995C7.24144 5.74995 7.2412 5.74995 7.24095 5.74995C7.24071 5.74995 7.24046 5.74995 7.2402 5.74995C7.23995 5.74995 7.23969 5.74995 7.23942 5.74995C7.23916 5.74995 7.23889 5.74995 7.23861 5.74995C7.23834 5.74995 7.23806 5.74995 7.23777 5.74995C7.23749 5.74995 7.2372 5.74995 7.2369 5.74995C7.23661 5.74995 7.23631 5.74995 7.236 5.74995C7.2357 5.74995 7.23539 5.74995 7.23507 5.74995C7.23476 5.74995 7.23444 5.74995 7.23411 5.74995C7.23379 5.74995 7.23346 5.74995 7.23312 5.74995C7.23279 5.74995 7.23245 5.74995 7.2321 5.74995C7.23176 5.74995 7.23141 5.74995 7.23105 5.74995C7.2307 5.74995 7.23034 5.74995 7.22997 5.74995C7.22961 5.74995 7.22924 5.74995 7.22887 5.74995C7.22849 5.74995 7.22812 5.74995 7.22773 5.74995C7.22735 5.74995 7.22696 5.74995 7.22657 5.74995C7.22617 5.74995 7.22578 5.74995 7.22537 5.74995C7.22497 5.74995 7.22456 5.74995 7.22415 5.74995C7.22374 5.74995 7.22332 5.74995 7.2229 5.74995C7.22248 5.74995 7.22205 5.74995 7.22162 5.74995C7.22119 5.74995 7.22075 5.74995 7.22031 5.74995C7.21987 5.74995 7.21943 5.74995 7.21898 5.74995C7.21853 5.74995 7.21807 5.74995 7.21761 5.74995C7.21715 5.74995 7.21669 5.74995 7.21622 5.74995C7.21575 5.74995 7.21528 5.74995 7.2148 5.74995C7.21432 5.74995 7.21384 5.74995 7.21335 5.74995C7.21286 5.74995 7.21237 5.74995 7.21188 5.74995C7.21138 5.74995 7.21088 5.74995 7.21037 5.74995C7.20987 5.74995 7.20936 5.74995 7.20884 5.74995C7.20833 5.74995 7.20781 5.74995 7.20729 5.74995C7.20676 5.74995 7.20623 5.74995 7.2057 5.74995C7.20517 5.74995 7.20463 5.74995 7.20409 5.74995C7.20355 5.74995 7.203 5.74995 7.20245 5.74995C7.2019 5.74995 7.20134 5.74995 7.20078 5.74995C7.20022 5.74995 7.19966 5.74995 7.19909 5.74995C7.19852 5.74995 7.19795 5.74995 7.19737 5.74995C7.1968 5.74995 7.19621 5.74995 7.19563 5.74995C7.19504 5.74995 7.19445 5.74995 7.19386 5.74995C7.19326 5.74995 7.19266 5.74995 7.19206 5.74995C7.19145 5.74995 7.19085 5.74995 7.19023 5.74995C7.18962 5.74995 7.18901 5.74995 7.18838 5.74995C7.18776 5.74995 7.18714 5.74995 7.18651 5.74995C7.18588 5.74995 7.18524 5.74995 7.18461 5.74995C7.18397 5.74995 7.18333 5.74995 7.18268 5.74995C7.18203 5.74995 7.18138 5.74995 7.18073 5.74995C7.18007 5.74995 7.17941 5.74995 7.17875 5.74995C7.17808 5.74995 7.17742 5.74995 7.17674 5.74995C7.17607 5.74995 7.1754 5.74995 7.17472 5.74995C7.17404 5.74995 7.17335 5.74995 7.17266 5.74995C7.17197 5.74995 7.17128 5.74995 7.17058 5.74995C7.16989 5.74995 7.16919 5.74995 7.16848 5.74995C7.16777 5.74995 7.16707 5.74995 7.16635 5.74995C7.16564 5.74995 7.16492 5.74995 7.1642 5.74995C7.16348 5.74995 7.16275 5.74995 7.16202 5.74995C7.16129 5.74995 7.16056 5.74995 7.15982 5.74995C7.15908 5.74995 7.15834 5.74995 7.15759 5.74995C7.15685 5.74995 7.1561 5.74995 7.15534 5.74995C7.15459 5.74995 7.15383 5.74995 7.15307 5.74995C7.15231 5.74995 7.15154 5.74995 7.15077 5.74995C7.15 5.74995 7.14923 5.74995 7.14845 5.74995C7.14767 5.74995 7.14689 5.74995 7.14611 5.74995C7.14532 5.74995 7.14453 5.74995 7.14374 5.74995C7.14294 5.74995 7.14215 5.74995 7.14134 5.74995C7.14054 5.74995 7.13974 5.74995 7.13893 5.74995C7.13812 5.74995 7.13731 5.74995 7.13649 5.74995C7.13567 5.74995 7.13485 5.74995 7.13403 5.74995C7.1332 5.74995 7.13238 5.74995 7.13154 5.74995C7.13071 5.74995 7.12988 5.74995 7.12904 5.74995C7.1282 5.74995 7.12735 5.74995 7.12651 5.74995C7.12566 5.74995 7.12481 5.74995 7.12395 5.74995C7.1231 5.74995 7.12224 5.74995 7.12138 5.74995C7.12052 5.74995 7.11965 5.74995 7.11878 5.74995C7.11791 5.74995 7.11704 5.74995 7.11616 5.74995C7.11528 5.74995 7.1144 5.74995 7.11352 5.74995C7.11263 5.74995 7.11175 5.74995 7.11085 5.74995C7.10996 5.74995 7.10907 5.74995 7.10817 5.74995C7.10727 5.74995 7.10637 5.74995 7.10546 5.74995C7.10455 5.74995 7.10365 5.74995 7.10273 5.74995C7.10182 5.74995 7.1009 5.74995 7.09998 5.74995C7.09906 5.74995 7.09814 5.74995 7.09721 5.74995C7.09628 5.74995 7.09535 5.74995 7.09441 5.74995C7.09348 5.74995 7.09254 5.74995 7.0916 5.74995C7.09066 5.74995 7.08971 5.74995 7.08876 5.74995C7.08782 5.74995 7.08686 5.74995 7.08591 5.74995C7.08495 5.74995 7.08399 5.74995 7.08303 5.74995C7.08207 5.74995 7.0811 5.74995 7.08013 5.74995C7.07916 5.74995 7.07819 5.74995 7.07721 5.74995C7.07624 5.74995 7.07526 5.74995 7.07427 5.74995C7.07329 5.74995 7.0723 5.74995 7.07131 5.74995C7.07032 5.74995 7.06933 5.74995 7.06833 5.74995C7.06734 5.74995 7.06634 5.74995 7.06533 5.74995C7.06433 5.74995 7.06332 5.74995 7.06231 5.74995C7.0613 5.74995 7.06029 5.74995 7.05927 5.74995C7.05826 5.74995 7.05724 5.74995 7.05621 5.74995C7.05519 5.74995 7.05416 5.74995 7.05313 5.74995C7.0521 5.74995 7.05107 5.74995 7.05003 5.74995C7.049 5.74995 7.04796 5.74995 7.04692 5.74995C7.04587 5.74995 7.04483 5.74995 7.04378 5.74995C7.04273 5.74995 7.04168 5.74995 7.04062 5.74995C7.03957 5.74995 7.03851 5.74995 7.03744 5.74995C7.03638 5.74995 7.03532 5.74995 7.03425 5.74995C7.03318 5.74995 7.03211 5.74995 7.03104 5.74995C7.02996 5.74995 7.02888 5.74995 7.0278 5.74995C7.02672 5.74995 7.02564 5.74995 7.02455 5.74995C7.02347 5.74995 7.02238 5.74995 7.02128 5.74995C7.02019 5.74995 7.01909 5.74995 7.01799 5.74995C7.0169 5.74995 7.01579 5.74995 7.01469 5.74995C7.01358 5.74995 7.01247 5.74995 7.01136 5.74995C7.01025 5.74995 7.00914 5.74995 7.00802 5.74995C7.0069 5.74995 7.00578 5.74995 7.00466 5.74995C7.00354 5.74995 7.00241 5.74995 7.00128 5.74995C7.00015 5.74995 6.99902 5.74995 6.99789 5.74995C6.99675 5.74995 6.99561 5.74995 6.99447 5.74995C6.99333 5.74995 6.99219 5.74995 6.99104 5.74995C6.9899 5.74995 6.98875 5.74995 6.98759 5.74995C6.98644 5.74995 6.98529 5.74995 6.98413 5.74995C6.98297 5.74995 6.98181 5.74995 6.98065 5.74995C6.97948 5.74995 6.97832 5.74995 6.97715 5.74995C6.97598 5.74995 6.97481 5.74995 6.97363 5.74995C6.97246 5.74995 6.97128 5.74995 6.9701 5.74995C6.96892 5.74995 6.96773 5.74995 6.96655 5.74995C6.96536 5.74995 6.96417 5.74995 6.96298 5.74995C6.96179 5.74995 6.9606 5.74995 6.9594 5.74995C6.9582 5.74995 6.957 5.74995 6.9558 5.74995C6.9546 5.74995 6.95339 5.74995 6.95219 5.74995C6.95098 5.74995 6.94977 5.74995 6.94856 5.74995C6.94734 5.74995 6.94613 5.74995 6.94491 5.74995C6.94369 5.74995 6.94247 5.74995 6.94125 5.74995C6.94002 5.74995 6.9388 5.74995 6.93757 5.74995C6.93634 5.74995 6.93511 5.74995 6.93387 5.74995C6.93264 5.74995 6.9314 5.74995 6.93017 5.74995C6.92893 5.74995 6.92768 5.74995 6.92644 5.74995C6.9252 5.74995 6.92395 5.74995 6.9227 5.74995C6.92145 5.74995 6.9202 5.74995 6.91895 5.74995C6.91769 5.74995 6.91644 5.74995 6.91518 5.74995C6.91392 5.74995 6.91266 5.74995 6.91139 5.74995C6.91013 5.74995 6.90886 5.74995 6.90759 5.74995C6.90632 5.74995 6.90505 5.74995 6.90378 5.74995C6.9025 5.74995 6.90123 5.74995 6.89995 5.74995C6.89867 5.74995 6.89739 5.74995 6.89611 5.74995C6.89482 5.74995 6.89354 5.74995 6.89225 5.74995C6.89096 5.74995 6.88967 5.74995 6.88838 5.74995C6.88709 5.74995 6.88579 5.74995 6.88449 5.74995C6.8832 5.74995 6.8819 5.74995 6.88059 5.74995C6.87929 5.74995 6.87799 5.74995 6.87668 5.74995C6.87537 5.74995 6.87406 5.74995 6.87275 5.74995C6.87144 5.74995 6.87013 5.74995 6.86881 5.74995C6.8675 5.74995 6.86618 5.74995 6.86486 5.74995C6.86354 5.74995 6.86222 5.74995 6.86089 5.74995C6.85957 5.74995 6.85824 5.74995 6.85691 5.74995C6.85558 5.74995 6.85425 5.74995 6.85292 5.74995C6.85159 5.74995 6.85025 5.74995 6.84891 5.74995C6.84757 5.74995 6.84624 5.74995 6.84489 5.74995C6.84355 5.74995 6.84221 5.74995 6.84086 5.74995C6.83952 5.74995 6.83817 5.74995 6.83682 5.74995C6.83547 5.74995 6.83411 5.74995 6.83276 5.74995C6.83141 5.74995 6.83005 5.74995 6.82869 5.74995C6.82733 5.74995 6.82597 5.74995 6.82461 5.74995C6.82325 5.74995 6.82188 5.74995 6.82051 5.74995C6.81915 5.74995 6.81778 5.74995 6.81641 5.74995C6.81504 5.74995 6.81367 5.74995 6.81229 5.74995C6.81092 5.74995 6.80954 5.74995 6.80816 5.74995C6.80678 5.74995 6.8054 5.74995 6.80402 5.74995C6.80264 5.74995 6.80125 5.74995 6.79987 5.74995C6.79848 5.74995 6.79709 5.74995 6.7957 5.74995C6.79431 5.74995 6.79292 5.74995 6.79153 5.74995C6.79013 5.74995 6.78874 5.74995 6.78734 5.74995C6.78594 5.74995 6.78454 5.74995 6.78314 5.74995C6.78174 5.74995 6.78034 5.74995 6.77893 5.74995C6.77753 5.74995 6.77612 5.74995 6.77471 5.74995C6.7733 5.74995 6.77189 5.74995 6.77048 5.74995C6.76907 5.74995 6.76766 5.74995 6.76624 5.74995C6.76483 5.74995 6.76341 5.74995 6.76199 5.74995C6.76057 5.74995 6.75915 5.74995 6.75773 5.74995C6.7563 5.74995 6.75488 5.74995 6.75345 5.74995C6.75203 5.74995 6.7506 5.74995 6.74917 5.74995C6.74774 5.74995 6.74631 5.74995 6.74488 5.74995C6.74345 5.74995 6.74201 5.74995 6.74058 5.74995C6.73914 5.74995 6.7377 5.74995 6.73626 5.74995C6.73483 5.74995 6.73338 5.74995 6.73194 5.74995C6.7305 5.74995 6.72906 5.74995 6.72761 5.74995C6.72617 5.74995 6.72472 5.74995 6.72327 5.74995C6.72182 5.74995 6.72037 5.74995 6.71892 5.74995C6.71747 5.74995 6.71601 5.74995 6.71456 5.74995C6.7131 5.74995 6.71165 5.74995 6.71019 5.74995C6.70873 5.74995 6.70727 5.74995 6.70581 5.74995C6.70435 5.74995 6.70289 5.74995 6.70143 5.74995C6.69996 5.74995 6.6985 5.74995 6.69703 5.74995C6.69556 5.74995 6.6941 5.74995 6.69263 5.74995C6.69116 5.74995 6.68969 5.74995 6.68821 5.74995C6.68674 5.74995 6.68527 5.74995 6.68379 5.74995C6.68232 5.74995 6.68084 5.74995 6.67936 5.74995C6.67789 5.74995 6.67641 5.74995 6.67493 5.74995C6.67345 5.74995 6.67196 5.74995 6.67048 5.74995C6.669 5.74995 6.66751 5.74995 6.66603 5.74995C6.66454 5.74995 6.66306 5.74995 6.66157 5.74995C6.66008 5.74995 6.65859 5.74995 6.6571 5.74995C6.65561 5.74995 6.65411 5.74995 6.65262 5.74995C6.65113 5.74995 6.64963 5.74995 6.64814 5.74995C6.64664 5.74995 6.64514 5.74995 6.64365 5.74995C6.64215 5.74995 6.64065 5.74995 6.63915 5.74995C6.63765 5.74995 6.63615 5.74995 6.63464 5.74995C6.63314 5.74995 6.63163 5.74995 6.63013 5.74995C6.62862 5.74995 6.62712 5.74995 6.62561 5.74995C6.6241 5.74995 6.62259 5.74995 6.62108 5.74995C6.61957 5.74995 6.61806 5.74995 6.61655 5.74995C6.61504 5.74995 6.61353 5.74995 6.61201 5.74995C6.6105 5.74995 6.60898 5.74995 6.60747 5.74995C6.60595 5.74995 6.60443 5.74995 6.60291 5.74995C6.60139 5.74995 6.59988 5.74995 6.59835 5.74995C6.59683 5.74995 6.59531 5.74995 6.59379 5.74995C6.59227 5.74995 6.59074 5.74995 6.58922 5.74995C6.5877 5.74995 6.58617 5.74995 6.58464 5.74995C6.58312 5.74995 6.58159 5.74995 6.58006 5.74995C6.57853 5.74995 6.577 5.74995 6.57547 5.74995C6.57394 5.74995 6.57241 5.74995 6.57088 5.74995C6.56935 5.74995 6.56782 5.74995 6.56628 5.74995C6.56475 5.74995 6.56322 5.74995 6.56168 5.74995C6.56014 5.74995 6.55861 5.74995 6.55707 5.74995C6.55553 5.74995 6.554 5.74995 6.55246 5.74995C6.55092 5.74995 6.54938 5.74995 6.54784 5.74995C6.5463 5.74995 6.54476 5.74995 6.54322 5.74995C6.54167 5.74995 6.54013 5.74995 6.53859 5.74995C6.53704 5.74995 6.5355 5.74995 6.53396 5.74995C6.53241 5.74995 6.53087 5.74995 6.52932 5.74995C6.52777 5.74995 6.52623 5.74995 6.52468 5.74995C6.52313 5.74995 6.52158 5.74995 6.52003 5.74995C6.51848 5.74995 6.51693 5.74995 6.51538 5.74995C6.51383 5.74995 6.51228 5.74995 6.51073 5.74995C6.50918 5.74995 6.50763 5.74995 6.50607 5.74995C6.50452 5.74995 6.50297 5.74995 6.50141 5.74995C6.49986 5.74995 6.4983 5.74995 6.49675 5.74995C6.49519 5.74995 6.49364 5.74995 6.49208 5.74995C6.49052 5.74995 6.48897 5.74995 6.48741 5.74995C6.48585 5.74995 6.48429 5.74995 6.48273 5.74995C6.48117 5.74995 6.47962 5.74995 6.47806 5.74995C6.4765 5.74995 6.47494 5.74995 6.47338 5.74995C6.47181 5.74995 6.47025 5.74995 6.46869 5.74995C6.46713 5.74995 6.46557 5.74995 6.46401 5.74995C6.46244 5.74995 6.46088 5.74995 6.45932 5.74995C6.45775 5.74995 6.45619 5.74995 6.45462 5.74995C6.45306 5.74995 6.4515 5.74995 6.44993 5.74995C6.44837 5.74995 6.4468 5.74995 6.44523 5.74995C6.44367 5.74995 6.4421 5.74995 6.44054 5.74995C6.43897 5.74995 6.4374 5.74995 6.43584 5.74995C6.43427 5.74995 6.4327 5.74995 6.43113 5.74995C6.42957 5.74995 6.428 5.74995 6.42643 5.74995C6.42486 5.74995 6.42329 5.74995 6.42172 5.74995C6.42015 5.74995 6.41858 5.74995 6.41702 5.74995C6.41545 5.74995 6.41388 5.74995 6.41231 5.74995C6.41074 5.74995 6.40917 5.74995 6.4076 5.74995C6.40603 5.74995 6.40445 5.74995 6.40288 5.74995C6.40131 5.74995 6.39974 5.74995 6.39817 5.74995C6.3966 5.74995 6.39503 5.74995 6.39346 5.74995C6.39189 5.74995 6.39031 5.74995 6.38874 5.74995C6.38717 5.74995 6.3856 5.74995 6.38403 5.74995C6.38245 5.74995 6.38088 5.74995 6.37931 5.74995C6.37774 5.74995 6.37617 5.74995 6.37459 5.74995C6.37302 5.74995 6.37145 5.74995 6.36988 5.74995C6.3683 5.74995 6.36673 5.74995 6.36516 5.74995C6.36359 5.74995 6.36201 5.74995 6.36044 5.74995C6.35887 5.74995 6.3573 5.74995 6.35572 5.74995C6.35415 5.74995 6.35258 5.74995 6.35101 5.74995C6.34943 5.74995 6.34786 5.74995 6.34629 5.74995C6.34472 5.74995 6.34314 5.74995 6.34157 5.74995C6.34 5.74995 6.33843 5.74995 6.33685 5.74995C6.33528 5.74995 6.33371 5.74995 6.33214 5.74995C6.33057 5.74995 6.32899 5.74995 6.32742 5.74995C6.32585 5.74995 6.32428 5.74995 6.32271 5.74995C6.32114 5.74995 6.31956 5.74995 6.31799 5.74995C6.31642 5.74995 6.31485 5.74995 6.31328 5.74995C6.31171 5.74995 6.31014 5.74995 6.30857 5.74995C6.307 5.74995 6.30543 5.74995 6.30386 5.74995C6.30229 5.74995 6.30072 5.74995 6.29915 5.74995C6.29758 5.74995 6.29601 5.74995 6.29444 5.74995C6.29287 5.74995 6.2913 5.74995 6.28973 5.74995C6.28816 5.74995 6.2866 5.74995 6.28503 5.74995C6.28346 5.74995 6.28189 5.74995 6.28032 5.74995C6.27876 5.74995 6.27719 5.74995 6.27562 5.74995C6.27406 5.74995 6.27249 5.74995 6.27092 5.74995C6.26936 5.74995 6.26779 5.74995 6.26623 5.74995C6.26466 5.74995 6.2631 5.74995 6.26153 5.74995C6.25997 5.74995 6.2584 5.74995 6.25684 5.74995C6.25528 5.74995 6.25371 5.74995 6.25215 5.74995C6.25059 5.74995 6.24903 5.74995 6.24746 5.74995C6.2459 5.74995 6.24434 5.74995 6.24278 5.74995C6.24122 5.74995 6.23966 5.74995 6.2381 5.74995C6.23654 5.74995 6.23498 5.74995 6.23342 5.74995C6.23186 5.74995 6.2303 5.74995 6.22874 5.74995C6.22719 5.74995 6.22563 5.74995 6.22407 5.74995C6.22252 5.74995 6.22096 5.74995 6.2194 5.74995C6.21785 5.74995 6.21629 5.74995 6.21474 5.74995C6.21318 5.74995 6.21163 5.74995 6.21008 5.74995C6.20852 5.74995 6.20697 5.74995 6.20542 5.74995C6.20387 5.74995 6.20231 5.74995 6.20076 5.74995C6.19921 5.74995 6.19766 5.74995 6.19611 5.74995C6.19456 5.74995 6.19301 5.74995 6.19147 5.74995C6.18992 5.74995 6.18837 5.74995 6.18682 5.74995C6.18528 5.74995 6.18373 5.74995 6.18219 5.74995C6.18064 5.74995 6.1791 5.74995 6.17755 5.74995C6.17601 5.74995 6.17446 5.74995 6.17292 5.74995C6.17138 5.74995 6.16984 5.74995 6.1683 5.74995C6.16676 5.74995 6.16522 5.74995 6.16368 5.74995C6.16214 5.74995 6.1606 5.74995 6.15906 5.74995C6.15753 5.74995 6.15599 5.74995 6.15445 5.74995C6.15292 5.74995 6.15138 5.74995 6.14985 5.74995C6.14831 5.74995 6.14678 5.74995 6.14525 5.74995C6.14372 5.74995 6.14218 5.74995 6.14065 5.74995C6.13912 5.74995 6.13759 5.74995 6.13606 5.74995C6.13454 5.74995 6.13301 5.74995 6.13148 5.74995C6.12995 5.74995 6.12843 5.74995 6.1269 5.74995C6.12538 5.74995 6.12385 5.74995 6.12233 5.74995C6.12081 5.74995 6.11929 5.74995 6.11777 5.74995C6.11624 5.74995 6.11472 5.74995 6.1132 5.74995C6.11169 5.74995 6.11017 5.74995 6.10865 5.74995C6.10713 5.74995 6.10562 5.74995 6.1041 5.74995C6.10259 5.74995 6.10107 5.74995 6.09956 5.74995C6.09805 5.74995 6.09654 5.74995 6.09503 5.74995C6.09352 5.74995 6.09201 5.74995 6.0905 5.74995C6.08899 5.74995 6.08748 5.74995 6.08598 5.74995C6.08447 5.74995 6.08297 5.74995 6.08146 5.74995C6.07996 5.74995 6.07846 5.74995 6.07696 5.74995C6.07545 5.74995 6.07395 5.74995 6.07245 5.74995C6.07096 5.74995 6.06946 5.74995 6.06796 5.74995C6.06646 5.74995 6.06497 5.74995 6.06348 5.74995C6.06198 5.74995 6.06049 5.74995 6.059 5.74995C6.0575 5.74995 6.05601 5.74995 6.05453 5.74995C6.05304 5.74995 6.05155 5.74995 6.05006 5.74995C6.04858 5.74995 6.04709 5.74995 6.04561 5.74995C6.04412 5.74995 6.04264 5.74995 6.04116 5.74995C6.03968 5.74995 6.0382 5.74995 6.03672 5.74995C6.03524 5.74995 6.03376 5.74995 6.03229 5.74995C6.03081 5.74995 6.02934 5.74995 6.02786 5.74995C6.02639 5.74995 6.02492 5.74995 6.02345 5.74995C6.02198 5.74995 6.02051 5.74995 6.01904 5.74995C6.01757 5.74995 6.01611 5.74995 6.01464 5.74995C6.01318 5.74995 6.01172 5.74995 6.01026 5.74995C6.00879 5.74995 6.00733 5.74995 6.00587 5.74995C6.00442 5.74995 6.00296 5.74995 6.0015 5.74995C6.00005 5.74995 5.99859 5.74995 5.99714 5.74995C5.99569 5.74995 5.99424 5.74995 5.99279 5.74995C5.99134 5.74995 5.98989 5.74995 5.98844 5.74995C5.987 5.74995 5.98555 5.74995 5.98411 5.74995C5.98267 5.74995 5.98122 5.74995 5.97978 5.74995C5.97834 5.74995 5.97691 5.74995 5.97547 5.74995C5.97403 5.74995 5.9726 5.74995 5.97116 5.74995C5.96973 5.74995 5.9683 5.74995 5.96687 5.74995C5.96544 5.74995 5.96401 5.74995 5.96258 5.74995C5.96116 5.74995 5.95973 5.74995 5.95831 5.74995C5.95688 5.74995 5.95546 5.74995 5.95404 5.74995C5.95262 5.74995 5.9512 5.74995 5.94979 5.74995C5.94837 5.74995 5.94696 5.74995 5.94554 5.74995C5.94413 5.74995 5.94272 5.74995 5.94131 5.74995C5.9399 5.74995 5.93849 5.74995 5.93709 5.74995C5.93568 5.74995 5.93428 5.74995 5.93287 5.74995C5.93147 5.74995 5.93007 5.74995 5.92867 5.74995C5.92727 5.74995 5.92588 5.74995 5.92448 5.74995C5.92309 5.74995 5.9217 5.74995 5.9203 5.74995C5.91891 5.74995 5.91752 5.74995 5.91614 5.74995C5.91475 5.74995 5.91336 5.74995 5.91198 5.74995C5.9106 5.74995 5.90922 5.74995 5.90784 5.74995C5.90646 5.74995 5.90508 5.74995 5.9037 5.74995C5.90233 5.74995 5.90095 5.74995 5.89958 5.74995C5.89821 5.74995 5.89684 5.74995 5.89547 5.74995C5.8941 5.74995 5.89274 5.74995 5.89137 5.74995C5.89001 5.74995 5.88865 5.74995 5.88729 5.74995C5.88593 5.74995 5.88457 5.74995 5.88322 5.74995C5.88186 5.74995 5.88051 5.74995 5.87916 5.74995C5.8778 5.74995 5.87645 5.74995 5.87511 5.74995C5.87376 5.74995 5.87241 5.74995 5.87107 5.74995C5.86973 5.74995 5.86839 5.74995 5.86705 5.74995C5.86571 5.74995 5.86437 5.74995 5.86304 5.74995C5.8617 5.74995 5.86037 5.74995 5.85904 5.74995C5.85771 5.74995 5.85638 5.74995 5.85506 5.74995C5.85373 5.74995 5.85241 5.74995 5.85109 5.74995C5.84976 5.74995 5.84845 5.74995 5.84713 5.74995C5.84581 5.74995 5.8445 5.74995 5.84318 5.74995C5.84187 5.74995 5.84056 5.74995 5.83925 5.74995C5.83795 5.74995 5.83664 5.74995 5.83534 5.74995C5.83403 5.74995 5.83273 5.74995 5.83143 5.74995C5.83013 5.74995 5.82884 5.74995 5.82754 5.74995C5.82625 5.74995 5.82496 5.74995 5.82367 5.74995C5.82238 5.74995 5.82109 5.74995 5.81981 5.74995C5.81852 5.74995 5.81724 5.74995 5.81596 5.74995C5.81468 5.74995 5.8134 5.74995 5.81213 5.74995C5.81085 5.74995 5.80958 5.74995 5.80831 5.74995C5.80704 5.74995 5.80577 5.74995 5.80451 5.74995C5.80324 5.74995 5.80198 5.74995 5.80072 5.74995C5.79946 5.74995 5.7982 5.74995 5.79694 5.74995C5.79569 5.74995 5.79443 5.74995 5.79318 5.74995C5.79193 5.74995 5.79068 5.74995 5.78944 5.74995C5.78819 5.74995 5.78695 5.74995 5.78571 5.74995C5.78447 5.74995 5.78323 5.74995 5.782 5.74995C5.78076 5.74995 5.77953 5.74995 5.7783 5.74995C5.77707 5.74995 5.77584 5.74995 5.77462 5.74995C5.77339 5.74995 5.77217 5.74995 5.77095 5.74995C5.76973 5.74995 5.76851 5.74995 5.7673 5.74995C5.76608 5.74995 5.76487 5.74995 5.76366 5.74995C5.76245 5.74995 5.76125 5.74995 5.76004 5.74995C5.75884 5.74995 5.75764 5.74995 5.75644 5.74995C5.75524 5.74995 5.75404 5.74995 5.75285 5.74995C5.75166 5.74995 5.75047 5.74995 5.74928 5.74995C5.74809 5.74995 5.74691 5.74995 5.74573 5.74995C5.74454 5.74995 5.74336 5.74995 5.74219 5.74995C5.74101 5.74995 5.73984 5.74995 5.73867 5.74995C5.7375 5.74995 5.73633 5.74995 5.73516 5.74995C5.734 5.74995 5.73284 5.74995 5.73168 5.74995C5.73052 5.74995 5.72936 5.74995 5.72821 5.74995C5.72705 5.74995 5.7259 5.74995 5.72475 5.74995C5.7236 5.74995 5.72246 5.74995 5.72132 5.74995C5.72017 5.74995 5.71903 5.74995 5.7179 5.74995C5.71676 5.74995 5.71563 5.74995 5.7145 5.74995C5.71337 5.74995 5.71224 5.74995 5.71111 5.74995C5.70999 5.74995 5.70887 5.74995 5.70775 5.74995C5.70663 5.74995 5.70551 5.74995 5.7044 5.74995C5.70329 5.74995 5.70218 5.74995 5.70107 5.74995C5.69996 5.74995 5.69886 5.74995 5.69776 5.74995C5.69666 5.74995 5.69556 5.74995 5.69447 5.74995C5.69337 5.74995 5.69228 5.74995 5.69119 5.74995C5.6901 5.74995 5.68902 5.74995 5.68793 5.74995C5.68685 5.74995 5.68577 5.74995 5.6847 5.74995C5.68362 5.74995 5.68255 5.74995 5.68148 5.74995C5.68041 5.74995 5.67934 5.74995 5.67828 5.74995C5.67721 5.74995 5.67615 5.74995 5.67509 5.74995C5.67404 5.74995 5.67298 5.74995 5.67193 5.74995C5.67088 5.74995 5.66983 5.74995 5.66879 5.74995C5.66774 5.74995 5.6667 5.74995 5.66566 5.74995C5.66463 5.74995 5.66359 5.74995 5.66256 5.74995C5.66153 5.74995 5.6605 5.74995 5.65947 5.74995C5.65845 5.74995 5.65743 5.74995 5.65641 5.74995C5.65539 5.74995 5.65438 5.74995 5.65336 5.74995C5.65235 5.74995 5.65134 5.74995 5.65034 5.74995C5.64933 5.74995 5.64833 5.74995 5.64733 5.74995C5.64633 5.74995 5.64534 5.74995 5.64435 5.74995C5.64335 5.74995 5.64236 5.74995 5.64138 5.74995C5.64039 5.74995 5.63941 5.74995 5.63843 5.74995C5.63746 5.74995 5.63648 5.74995 5.63551 5.74995C5.63454 5.74995 5.63357 5.74995 5.63261 5.74995C5.63164 5.74995 5.63068 5.74995 5.62972 5.74995C5.62876 5.74995 5.62781 5.74995 5.62686 5.74995C5.62591 5.74995 5.62496 5.74995 5.62402 5.74995C5.62307 5.74995 5.62213 5.74995 5.6212 5.74995C5.62026 5.74995 5.61933 5.74995 5.6184 5.74995C5.61747 5.74995 5.61654 5.74995 5.61562 5.74995C5.61469 5.74995 5.61378 5.74995 5.61286 5.74995C5.61194 5.74995 5.61103 5.74995 5.61012 5.74995C5.60922 5.74995 5.60831 5.74995 5.60741 5.74995C5.60651 5.74995 5.60561 5.74995 5.60472 5.74995C5.60382 5.74995 5.60293 5.74995 5.60205 5.74995C5.60116 5.74995 5.60028 5.74995 5.5994 5.74995C5.59852 5.74995 5.59765 5.74995 5.59677 5.74995C5.5959 5.74995 5.59503 5.74995 5.59417 5.74995C5.5933 5.74995 5.59244 5.74995 5.59159 5.74995C5.59073 5.74995 5.58988 5.74995 5.58903 5.74995C5.58818 5.74995 5.58733 5.74995 5.58649 5.74995C5.58565 5.74995 5.58481 5.74995 5.58398 5.74995C5.58314 5.74995 5.58231 5.74995 5.58149 5.74995C5.58066 5.74995 5.57984 5.74995 5.57902 5.74995C5.5782 5.74995 5.57738 5.74995 5.57657 5.74995C5.57576 5.74995 5.57495 5.74995 5.57415 5.74995C5.57335 5.74995 5.57255 5.74995 5.57175 5.74995C5.57095 5.74995 5.57016 5.74995 5.56938 5.74995C5.56859 5.74995 5.5678 5.74995 5.56702 5.74995C5.56624 5.74995 5.56547 5.74995 5.56469 5.74995C5.56392 5.74995 5.56315 5.74995 5.56239 5.74995C5.56163 5.74995 5.56087 5.74995 5.56011 5.74995C5.55935 5.74995 5.5586 5.74995 5.55785 5.74995C5.5571 5.74995 5.55636 5.74995 5.55562 5.74995C5.55488 5.74995 5.55414 5.74995 5.55341 5.74995C5.55268 5.74995 5.55195 5.74995 5.55123 5.74995C5.5505 5.74995 5.54978 5.74995 5.54907 5.74995C5.54835 5.74995 5.54764 5.74995 5.54693 5.74995C5.54622 5.74995 5.54552 5.74995 5.54482 5.74995C5.54412 5.74995 5.54343 5.74995 5.54273 5.74995C5.54204 5.74995 5.54136 5.74995 5.54067 5.74995C5.53999 5.74995 5.53931 5.74995 5.53864 5.74995C5.53796 5.74995 5.53729 5.74995 5.53663 5.74995C5.53596 5.74995 5.5353 5.74995 5.53464 5.74995C5.53398 5.74995 5.53333 5.74995 5.53268 5.74995C5.53203 5.74995 5.53139 5.74995 5.53075 5.74995C5.53011 5.74995 5.52947 5.74995 5.52884 5.74995C5.5282 5.74995 5.52758 5.74995 5.52695 5.74995C5.52633 5.74995 5.52571 5.74995 5.5251 5.74995C5.52448 5.74995 5.52387 5.74995 5.52326 5.74995C5.52266 5.74995 5.52206 5.74995 5.52146 5.74995C5.52086 5.74995 5.52027 5.74995 5.51968 5.74995C5.51909 5.74995 5.51851 5.74995 5.51793 5.74995C5.51735 5.74995 5.51677 5.74995 5.5162 5.74995C5.51563 5.74995 5.51506 5.74995 5.5145 5.74995C5.51394 5.74995 5.51338 5.74995 5.51283 5.74995V6.49995ZM21.4995 6.49995V7.24995H23.2344V6.49995V5.74995H21.4995V6.49995ZM23.2344 6.49995V7.24995C23.127 7.24995 22.9995 7.16095 22.9995 6.999H23.7495H24.4995C24.4995 6.28619 23.9084 5.74995 23.2344 5.74995V6.49995ZM27.4986 24.5303L28.0156 23.9869C26.7254 22.7593 25.3361 22.2082 24.0373 22.2524C22.7396 22.2965 21.6194 22.934 20.8925 23.9112C19.4135 25.8992 19.6384 29.0885 22.5466 31.6457L23.0419 31.0825L23.5371 30.5192C21.0819 28.3603 21.1822 26.0348 22.096 24.8065C22.5655 24.1754 23.271 23.7793 24.0882 23.7515C24.9042 23.7238 25.919 24.0625 26.9817 25.0736L27.4986 24.5303ZM23.0419 31.0825L22.5467 31.6458L27.0035 35.5633L27.4986 34.9999L27.9938 34.4366L23.537 30.5192L23.0419 31.0825ZM27.4986 34.9999L27.9936 35.5634L32.4527 31.6459L31.9577 31.0825L31.4627 30.519L27.0036 34.4365L27.4986 34.9999ZM31.9577 31.0825L32.4529 31.6457C35.3612 29.0884 35.5854 25.899 34.1058 23.911C33.3786 22.934 32.2582 22.2965 30.9604 22.2524C29.6613 22.2082 28.2719 22.7593 26.9817 23.9869L27.4986 24.5303L28.0156 25.0736C29.0783 24.0626 30.0932 23.7238 30.9094 23.7515C31.7269 23.7793 32.4327 24.1754 32.9025 24.8066C33.8167 26.035 33.9175 28.3605 31.4624 30.5192L31.9577 31.0825ZM14.0735 8.02722V8.77722H19.2996V8.02722V7.27722H14.0735V8.02722ZM19.2996 8.02722V8.77722C19.9842 8.77722 20.6191 8.2411 20.6191 7.49047H19.8691H19.1191C19.1191 7.414 19.1534 7.3557 19.1874 7.32365C19.2208 7.29216 19.2615 7.27722 19.2996 7.27722V8.02722ZM19.8691 7.49047H20.6191V3.17888H19.8691H19.1191V7.49047H19.8691ZM19.8691 3.17888H20.6191C20.6191 2.42837 19.9843 1.89212 19.2996 1.89212V2.64212V3.39212C19.2614 3.39212 19.2208 3.37716 19.1874 3.3457C19.1534 3.31369 19.1191 3.25541 19.1191 3.17888H19.8691ZM19.2996 2.64212V1.89212H16.6855V2.64212V3.39212H19.2996V2.64212ZM16.6855 2.64212L17.4346 2.60482C17.3545 0.996771 15.9545 -0.222778 14.3337 -0.222778V0.527222V1.27722C15.2289 1.27722 15.8997 1.94147 15.9365 2.67943L16.6855 2.64212ZM14.3337 0.527222V-0.222778C12.7114 -0.222778 11.3111 0.99642 11.2309 2.60478L11.98 2.64212L12.7291 2.67947C12.7658 1.94182 13.4364 1.27722 14.3337 1.27722V0.527222ZM11.98 2.64212V1.89212H9.18873V2.64212V3.39212H11.98V2.64212ZM9.18873 2.64212V1.89212C8.50399 1.89212 7.86914 2.42837 7.86914 3.17888H8.61914H9.36914C9.36914 3.25541 9.33487 3.31369 9.30091 3.3457C9.26752 3.37716 9.22684 3.39212 9.18873 3.39212V2.64212ZM8.61914 3.17888H7.86914V7.49047H8.61914H9.36914V3.17888H8.61914ZM8.61914 7.49047H7.86914C7.86914 8.2411 8.50405 8.77722 9.18873 8.77722V8.02722V7.27722C9.22678 7.27722 9.26747 7.29216 9.30088 7.32365C9.33489 7.3557 9.36914 7.414 9.36914 7.49047H8.61914ZM9.18873 8.02722V8.77722H11.7687V8.02722V7.27722H9.18873V8.02722ZM2.61914 17.4157H3.36914V5.12322H2.61914H1.86914V17.4157H2.61914ZM2.61914 5.12322H3.36914C3.36914 5.10408 3.37625 5.0825 3.39746 5.06175C3.41893 5.04076 3.44878 5.02722 3.48415 5.02722V4.27722V3.52722C2.60947 3.52722 1.86914 4.22766 1.86914 5.12322H2.61914ZM3.48415 4.27722V5.02722H8.60746V4.27722V3.52722H3.48415V4.27722ZM25.0023 32.7772V32.0272H3.48415V32.7772V33.5272H25.0023V32.7772ZM3.48415 32.7772V32.0272C3.44981 32.0272 3.41989 32.014 3.39784 31.9924C3.37585 31.9709 3.36914 31.949 3.36914 31.9313H2.61914H1.86914C1.86914 32.824 2.60846 33.5272 3.48415 33.5272V32.7772ZM2.61914 31.9313H3.36914V19.637H2.61914H1.86914V31.9313H2.61914ZM19.9995 4.27722V5.02722H25.0023V4.27722V3.52722H19.9995V4.27722ZM25.0023 4.27722V5.02722C25.0379 5.02722 25.0686 5.04095 25.0907 5.06251C25.1125 5.08374 25.1191 5.1052 25.1191 5.12322H25.8691H26.6191C26.6191 4.22561 25.8749 3.52722 25.0023 3.52722V4.27722ZM25.8691 5.12322H25.1191V23.3749H25.8691H26.6191V5.12322H25.8691ZM9.49951 12.8947L8.99141 13.4463L9.61732 14.0228L10.1254 13.4712L10.6335 12.9195L10.0076 12.343L9.49951 12.8947ZM11.205 13.4053L11.7764 13.891L13.821 11.4857L13.2495 10.9999L12.6781 10.5142L10.6335 12.9195L11.205 13.4053ZM10.1254 13.4712L9.61732 14.0228C10.2439 14.6 11.2247 14.5401 11.7764 13.891L11.205 13.4053L10.6335 12.9195L10.6335 12.9195L10.1254 13.4712ZM9.49951 21.8947L8.99141 22.4463L9.61732 23.0228L10.1254 22.4712L10.6335 21.9195L10.0076 21.343L9.49951 21.8947ZM11.205 22.4053L11.7764 22.891L13.821 20.4857L13.2495 19.9999L12.6781 19.5142L10.6335 21.9195L11.205 22.4053ZM10.1254 22.4712L9.61732 23.0228C10.2439 23.6 11.2247 23.5401 11.7764 22.891L11.205 22.4053L10.6335 21.9195L10.6335 21.9195L10.1254 22.4712ZM9.49951 10.9999V10.2499H7.47451V10.9999V11.7499H9.49951V10.9999ZM7.24951 11.2249H6.49951V15.2749H7.24951H7.99951V11.2249H7.24951ZM7.47451 15.4999V16.2499H10.9995V15.4999V14.7499H7.47451V15.4999ZM7.24951 15.2749H6.49951C6.49951 15.8134 6.93604 16.2499 7.47451 16.2499V15.4999V14.7499C7.76446 14.7499 7.99951 14.985 7.99951 15.2749H7.24951ZM7.47451 10.9999V10.2499C6.93603 10.2499 6.49951 10.6865 6.49951 11.2249H7.24951H7.99951C7.99951 11.5149 7.76446 11.7499 7.47451 11.7499V10.9999ZM9.49951 19.9999V19.2499H7.47451V19.9999V20.7499H9.49951V19.9999ZM7.24951 20.2249H6.49951V24.2749H7.24951H7.99951V20.2249H7.24951ZM7.47451 24.4999V25.2499H10.9995V24.4999V23.7499H7.47451V24.4999ZM7.24951 24.2749H6.49951C6.49951 24.8134 6.93604 25.2499 7.47451 25.2499V24.4999V23.7499C7.76446 23.7499 7.99951 23.985 7.99951 24.2749H7.24951ZM7.47451 19.9999V19.2499C6.93604 19.2499 6.49951 19.6865 6.49951 20.2249H7.24951H7.99951C7.99951 20.5149 7.76446 20.7499 7.47451 20.7499V19.9999ZM23.7495 6.999H22.9995V22.9999H23.7495H24.4995V6.999H23.7495Z" fill="#225CA8"/>
</g>
<defs>
<clipPath id="clip0_2970_17161">
<rect width="36" height="36" fill="white"/>
</clipPath>
</defs>
</svg>
