<svg width="36" height="36" viewBox="0 0 36 36" fill="none" xmlns="http://www.w3.org/2000/svg">
<path d="M16.4815 4.55695L16.4416 5.30588L16.4615 5.30695H16.4815V4.55695ZM7.50957 4.55695V5.30695H7.52954L7.54948 5.30588L7.50957 4.55695ZM4.5 9.75C4.08579 9.75 3.75 10.0858 3.75 10.5C3.75 10.9142 4.08579 11.25 4.5 11.25V10.5V9.75ZM12.75 11.25C13.1642 11.25 13.5 10.9142 13.5 10.5C13.5 10.0858 13.1642 9.75 12.75 9.75V10.5V11.25ZM4.5 12C4.08579 12 3.75 12.3358 3.75 12.75C3.75 13.1642 4.08579 13.5 4.5 13.5V12.75V12ZM18 13.5C18.4142 13.5 18.75 13.1642 18.75 12.75C18.75 12.3358 18.4142 12 18 12V12.75V13.5ZM4.5 14.25C4.08579 14.25 3.75 14.5858 3.75 15C3.75 15.4142 4.08579 15.75 4.5 15.75V15V14.25ZM18 15.75C18.4142 15.75 18.75 15.4142 18.75 15C18.75 14.5858 18.4142 14.25 18 14.25V15V15.75ZM8.87377 23.6661C9.10354 23.3214 9.01041 22.8558 8.66576 22.626C8.32112 22.3962 7.85547 22.4893 7.6257 22.834L8.24973 23.25L8.87377 23.6661ZM8.79242 29.949L9.38778 29.4928L9.38762 29.4926L8.79242 29.949ZM14.129 30.855L13.7538 30.2057C13.7421 30.2124 13.7306 30.2195 13.7193 30.2268L14.129 30.855ZM19.1255 28.8339C19.4841 28.6266 19.6069 28.1679 19.3996 27.8092C19.1924 27.4506 18.7336 27.3279 18.375 27.5351L18.7502 28.1845L19.1255 28.8339ZM26.6258 13.0812C26.9847 13.2879 27.4433 13.1644 27.65 12.8054C27.8566 12.4465 27.7332 11.9879 27.3742 11.7812L27 12.4312L26.6258 13.0812ZM22.5247 13.7723L21.8549 13.4347L21.8549 13.4349L22.5247 13.7723ZM22.079 14.6569L22.7487 14.9945L22.7488 14.9943L22.079 14.6569ZM33.7722 18.3068C33.5275 17.9727 33.0582 17.9002 32.724 18.1449C32.3898 18.3897 32.3173 18.859 32.5621 19.1932L33.1672 18.75L33.7722 18.3068ZM32.2558 23.1145L31.8698 22.4714L31.8694 22.4716L32.2558 23.1145ZM31.429 23.6114L31.0426 22.9686L31.0426 22.9686L31.429 23.6114ZM17.8698 6V6.75H21.124V6V5.25H17.8698V6ZM21.124 6V6.75C21.4732 6.75 21.75 7.02799 21.75 7.37404H22.5H23.25C23.25 6.19751 22.2996 5.25 21.124 5.25V6ZM22.5 7.37404H21.75V32.376H22.5H23.25V7.37404H22.5ZM22.5 32.376H21.75C21.75 32.722 21.4732 33 21.124 33V33.75V34.5C22.2996 34.5 23.25 33.5525 23.25 32.376H22.5ZM21.124 33.75V33H3.62603V33.75V34.5H21.124V33.75ZM3.62603 33.75V33C3.27682 33 3 32.722 3 32.376H2.25H1.5C1.5 33.5525 2.45045 34.5 3.62603 34.5V33.75ZM2.25 32.376H3V7.37404H2.25H1.5V32.376H2.25ZM2.25 7.37404H3C3 7.02799 3.27682 6.75 3.62603 6.75V6V5.25C2.45045 5.25 1.5 6.19751 1.5 7.37404H2.25ZM3.62603 6V6.75H6.94525V6V5.25H3.62603V6ZM16.4815 4.55695C16.5214 3.80801 16.5214 3.80801 16.5214 3.80801C16.5214 3.80801 16.5214 3.80801 16.5213 3.80801C16.5213 3.808 16.5212 3.808 16.521 3.80799C16.5207 3.80797 16.5203 3.80795 16.5197 3.80792C16.5185 3.80786 16.5168 3.80776 16.5144 3.80764C16.5097 3.80738 16.5027 3.807 16.4935 3.8065C16.475 3.80551 16.4479 3.80403 16.4134 3.80212C16.3443 3.79831 16.2454 3.79278 16.1268 3.78593C15.8892 3.77222 15.5733 3.75328 15.2579 3.73227C14.9411 3.71117 14.6308 3.68837 14.4023 3.66706C14.2859 3.65621 14.2023 3.64679 14.1529 3.63954C14.1242 3.63535 14.1276 3.63481 14.1473 3.63979C14.1516 3.64087 14.1989 3.65222 14.2589 3.6802C14.2859 3.69279 14.3587 3.72817 14.4359 3.79707C14.5041 3.85792 14.6847 4.04418 14.6847 4.35339H13.9347H13.1847C13.1847 4.66473 13.3665 4.85314 13.4371 4.91618C13.5168 4.98726 13.5932 5.02486 13.6251 5.0397C13.6947 5.07217 13.7563 5.08813 13.7793 5.09393C13.8363 5.10836 13.8944 5.11768 13.9354 5.1237C14.0252 5.13685 14.1406 5.14917 14.263 5.16058C14.512 5.1838 14.8384 5.20765 15.1582 5.22896C15.4796 5.25036 15.8003 5.26958 16.0403 5.28344C16.1604 5.29037 16.2606 5.29597 16.3307 5.29984C16.3658 5.30178 16.3934 5.30329 16.4123 5.30431C16.4218 5.30482 16.429 5.30521 16.434 5.30548C16.4364 5.30561 16.4383 5.30571 16.4396 5.30578C16.4402 5.30581 16.4407 5.30584 16.441 5.30586C16.4412 5.30586 16.4413 5.30587 16.4414 5.30588C16.4415 5.30588 16.4415 5.30588 16.4415 5.30588C16.4416 5.30588 16.4416 5.30588 16.4815 4.55695ZM13.9347 4.35339H14.6847C14.6847 2.83459 13.5383 1.5 11.9955 1.5V2.25V3C12.5974 3 13.1847 3.54586 13.1847 4.35339H13.9347ZM11.9955 2.25V1.5C10.4527 1.5 9.30638 2.83459 9.30638 4.35339H10.0564H10.8064C10.8064 3.54586 11.3936 3 11.9955 3V2.25ZM10.0564 4.35339H9.30638C9.30638 4.04418 9.48696 3.85792 9.55514 3.79707C9.63234 3.72817 9.70514 3.69279 9.73216 3.6802C9.79216 3.65222 9.83949 3.64087 9.84376 3.63979C9.86344 3.63481 9.86682 3.63535 9.83821 3.63954C9.78874 3.64679 9.7052 3.65621 9.58881 3.66706C9.36029 3.68837 9.05 3.71117 8.73314 3.73227C8.41779 3.75328 8.10182 3.77222 7.86429 3.78593C7.74564 3.79278 7.64679 3.79831 7.57768 3.80212C7.54313 3.80403 7.51603 3.80551 7.49761 3.8065C7.4884 3.807 7.48136 3.80738 7.47665 3.80764C7.4743 3.80776 7.47253 3.80786 7.47136 3.80792C7.47077 3.80795 7.47034 3.80797 7.47005 3.80799C7.46991 3.808 7.46981 3.808 7.46975 3.80801C7.46971 3.80801 7.46969 3.80801 7.46968 3.80801C7.46967 3.80801 7.46967 3.80801 7.50957 4.55695C7.54948 5.30588 7.5495 5.30588 7.54953 5.30588C7.54955 5.30588 7.54959 5.30588 7.54964 5.30588C7.54973 5.30587 7.54986 5.30586 7.55002 5.30586C7.55036 5.30584 7.55085 5.30581 7.55148 5.30578C7.55276 5.30571 7.55464 5.30561 7.55711 5.30548C7.56204 5.30521 7.5693 5.30482 7.57875 5.30431C7.59763 5.30329 7.62525 5.30178 7.66033 5.29984C7.7305 5.29597 7.83063 5.29037 7.95073 5.28344C8.19074 5.26958 8.51147 5.25036 8.83282 5.22896C9.15266 5.20765 9.47907 5.1838 9.72808 5.16058C9.85046 5.14917 9.96588 5.13685 10.0557 5.1237C10.0967 5.11768 10.1548 5.10836 10.2118 5.09393C10.2347 5.08813 10.2964 5.07217 10.366 5.0397C10.3978 5.02486 10.4743 4.98726 10.5539 4.91618C10.6246 4.85314 10.8064 4.66473 10.8064 4.35339H10.0564ZM7.50957 4.55695V3.80695C6.61912 3.80695 6 4.56964 6 5.38086H6.75H7.5C7.5 5.34035 7.51475 5.31615 7.52371 5.30643C7.52801 5.30176 7.52952 5.30189 7.52612 5.30345C7.52197 5.30535 7.51564 5.30695 7.50957 5.30695V4.55695ZM6.75 5.38086H6V7.42609H6.75H7.5V5.38086H6.75ZM6.75 7.42609H6C6 8.2373 6.61912 9 7.50957 9V8.25V7.5C7.51564 7.5 7.52197 7.5016 7.52612 7.5035C7.52952 7.50506 7.52801 7.50519 7.52371 7.50052C7.51475 7.4908 7.5 7.4666 7.5 7.42609H6.75ZM7.50957 8.25V9H16.4904V8.25V7.5H7.50957V8.25ZM16.4904 8.25V9C17.3809 9 18 8.2373 18 7.42609H17.25H16.5C16.5 7.4666 16.4853 7.4908 16.4763 7.50052C16.472 7.50519 16.4705 7.50506 16.4739 7.5035C16.478 7.5016 16.4844 7.5 16.4904 7.5V8.25ZM17.25 7.42609H18V5.38086H17.25H16.5V7.42609H17.25ZM17.25 5.38086H18C18 4.56964 17.3809 3.80695 16.4904 3.80695V4.55695V5.30695C16.4844 5.30695 16.478 5.30535 16.4739 5.30345C16.4705 5.30189 16.472 5.30176 16.4763 5.30643C16.4853 5.31615 16.5 5.34035 16.5 5.38086H17.25ZM16.4904 4.55695V3.80695H16.4815V4.55695V5.30695H16.4904V4.55695ZM4.5 10.5V11.25H12.75V10.5V9.75H4.5V10.5ZM4.5 12.75V13.5H18V12.75V12H4.5V12.75ZM4.5 15V15.75H18V15V14.25H4.5V15ZM14.25 20.625H13.5C13.5 22.0747 12.3247 23.25 10.875 23.25V24V24.75C13.1532 24.75 15 22.9032 15 20.625H14.25ZM10.875 24V23.25C9.42525 23.25 8.25 22.0747 8.25 20.625H7.5H6.75C6.75 22.9032 8.59683 24.75 10.875 24.75V24ZM7.5 20.625H8.25C8.25 19.1753 9.42525 18 10.875 18V17.25V16.5C8.59682 16.5 6.75 18.3468 6.75 20.625H7.5ZM10.875 17.25V18C12.3247 18 13.5 19.1753 13.5 20.625H14.25H15C15 18.3468 13.1532 16.5 10.875 16.5V17.25ZM8.24973 23.25L7.6257 22.834C5.8903 25.437 6.63282 28.3648 8.19721 30.4053L8.79242 29.949L9.38762 29.4926C8.07101 27.7753 7.60911 25.563 8.87377 23.6661L8.24973 23.25ZM8.79242 29.949L8.19705 30.4051C9.69317 32.3579 12.4712 32.8318 14.5388 31.4832L14.129 30.855L13.7193 30.2268C12.3065 31.1483 10.4053 30.821 9.38778 29.4928L8.79242 29.949ZM14.129 30.855L14.5043 31.5044L19.1255 28.8339L18.7502 28.1845L18.375 27.5351L13.7538 30.2057L14.129 30.855ZM21 27H20.25C20.25 27.4142 19.9142 27.75 19.5 27.75V28.5V29.25C20.7426 29.25 21.75 28.2426 21.75 27H21ZM19.5 28.5V27.75C19.0858 27.75 18.75 27.4142 18.75 27H18H17.25C17.25 28.2426 18.2574 29.25 19.5 29.25V28.5ZM18 27H18.75C18.75 26.5858 19.0858 26.25 19.5 26.25V25.5V24.75C18.2574 24.75 17.25 25.7574 17.25 27H18ZM19.5 25.5V26.25C19.9142 26.25 20.25 26.5858 20.25 27H21H21.75C21.75 25.7574 20.7426 24.75 19.5 24.75V25.5ZM12 20.625H11.25C11.25 20.8321 11.0821 21 10.875 21V21.75V22.5C11.9105 22.5 12.75 21.6605 12.75 20.625H12ZM10.875 21.75V21C10.6679 21 10.5 20.8321 10.5 20.625H9.75H9C9 21.6605 9.83946 22.5 10.875 22.5V21.75ZM9.75 20.625H10.5C10.5 20.4179 10.6679 20.25 10.875 20.25V19.5V18.75C9.83946 18.75 9 19.5895 9 20.625H9.75ZM10.875 19.5V20.25C11.0821 20.25 11.25 20.4179 11.25 20.625H12H12.75C12.75 19.5895 11.9105 18.75 10.875 18.75V19.5ZM28.5 13.875H27.75C27.75 14.0821 27.5821 14.25 27.375 14.25V15V15.75C28.4105 15.75 29.25 14.9105 29.25 13.875H28.5ZM27.375 15V14.25C27.1679 14.25 27 14.0821 27 13.875H26.25H25.5C25.5 14.9105 26.3395 15.75 27.375 15.75V15ZM26.25 13.875H27C27 13.6679 27.1679 13.5 27.375 13.5V12.75V12C26.3395 12 25.5 12.8395 25.5 13.875H26.25ZM27.375 12.75V13.5C27.5821 13.5 27.75 13.6679 27.75 13.875H28.5H29.25C29.25 12.8395 28.4105 12 27.375 12V12.75ZM33.75 17.625H33C33 17.8321 32.8321 18 32.625 18V18.75V19.5C33.6605 19.5 34.5 18.6605 34.5 17.625H33.75ZM32.625 18.75V18C32.4179 18 32.25 17.8321 32.25 17.625H31.5H30.75C30.75 18.6605 31.5895 19.5 32.625 19.5V18.75ZM31.5 17.625H32.25C32.25 17.4179 32.4179 17.25 32.625 17.25V16.5V15.75C31.5895 15.75 30.75 16.5895 30.75 17.625H31.5ZM32.625 16.5V17.25C32.8321 17.25 33 17.4179 33 17.625H33.75H34.5C34.5 16.5895 33.6605 15.75 32.625 15.75V16.5ZM27 12.4312L27.3742 11.7812C25.3985 10.6437 22.8831 11.3954 21.855 13.4347L22.5247 13.7723L23.1944 14.11C23.835 12.8392 25.3967 12.3735 26.6258 13.0812L27 12.4312ZM22.5247 13.7723L21.8549 13.4349L21.4092 14.3195L22.079 14.6569L22.7488 14.9943L23.1945 14.1098L22.5247 13.7723ZM22.079 14.6569L21.4093 14.3193C19.6593 17.7911 18.75 21.6162 18.75 25.5H19.5H20.25C20.25 21.8507 21.1043 18.2569 22.7487 14.9945L22.079 14.6569ZM33.1672 18.75L32.5621 19.1932C33.3481 20.2664 33.0498 21.763 31.8698 22.4714L32.2558 23.1145L32.6419 23.7575C34.5623 22.6045 35.0908 20.1071 33.7722 18.3068L33.1672 18.75ZM32.2558 23.1145L31.8694 22.4716L31.0426 22.9686L31.429 23.6114L31.8154 24.2543L32.6422 23.7573L32.2558 23.1145ZM31.429 23.6114L31.0426 22.9686C27.9843 24.807 24.5233 25.9287 20.9325 26.253L21 27L21.0675 27.747C24.8803 27.4026 28.5599 26.2111 31.8154 24.2543L31.429 23.6114Z" fill="#225CA8"/>
</svg>
