<svg width="36" height="36" viewBox="0 0 36 36" fill="none" xmlns="http://www.w3.org/2000/svg">
<g clip-path="url(#clip0_2970_17174)">
<path d="M34.3281 6.64426L34.8584 6.11393L34.8584 6.11393L34.3281 6.64426ZM29.3563 1.67246L28.826 2.20279L28.826 2.20279L29.3563 1.67246ZM26.3732 4.65554L25.8428 5.18587L25.8428 5.18587L26.3732 4.65554ZM31.345 9.62741L31.8754 9.09708L31.8754 9.09708L31.345 9.62741ZM30.3515 8.63308L30.8819 9.16341C31.0225 9.02275 31.1015 8.83199 31.1015 8.63308C31.1015 8.43416 31.0225 8.2434 30.8819 8.10275L30.3515 8.63308ZM27.3684 5.64993L27.8987 5.1196C27.7581 4.97895 27.5673 4.89993 27.3684 4.89993C27.1695 4.89993 26.9787 4.97895 26.8381 5.1196L27.3684 5.64993ZM23.391 9.62744L22.8606 9.09711C22.72 9.23776 22.641 9.42853 22.641 9.62744C22.641 9.82636 22.72 10.0171 22.8606 10.1578L23.391 9.62744ZM26.3741 12.6105L25.8438 13.1409C26.1367 13.4337 26.6115 13.4337 26.9044 13.1408L26.3741 12.6105ZM10.9615 29.0176L11.4918 28.4873L11.4918 28.4873L10.9615 29.0176ZM6.98406 25.0401L7.51439 24.5098L7.51436 24.5098L6.98406 25.0401ZM4.99527 27.0289L5.52557 27.5592L5.52559 27.5592L4.99527 27.0289ZM4.99527 29.0176L4.46494 29.5479L4.46495 29.5479L4.99527 29.0176ZM6.98406 31.0063L7.51442 30.476L7.51438 30.476L6.98406 31.0063ZM8.97278 31.0063L9.50311 31.5366L9.50311 31.5366L8.97278 31.0063ZM23.2243 16.4092C23.5194 16.6999 23.9942 16.6964 24.2849 16.4014C24.5756 16.1063 24.5721 15.6314 24.2771 15.3407L23.7507 15.875L23.2243 16.4092ZM6.98376 22.057L7.51406 22.5873L7.51409 22.5873L6.98376 22.057ZM13.9443 29.0176L14.4747 29.5479L14.4747 29.5479L13.9443 29.0176ZM17.531 26.4915C17.8239 26.1986 17.8239 25.7238 17.531 25.4309C17.2381 25.138 16.7632 25.138 16.4704 25.4309L17.0007 25.9612L17.531 26.4915ZM21.4021 7.63866L21.9325 7.10833L21.9325 7.10833L21.4021 7.63866ZM18.4191 7.63866L18.9494 8.16899L18.9494 8.16897L18.4191 7.63866ZM27.9505 16.9176C27.6979 17.2459 27.7593 17.7168 28.0876 17.9694C28.4159 18.222 28.8868 18.1606 29.1393 17.8323L28.5449 17.375L27.9505 16.9176ZM33.3369 20.5026L34.0868 20.4883L34.0866 20.4784L34.0861 20.4685L33.3369 20.5026ZM33.3178 19.843L32.5679 19.8541L32.5679 19.8542L33.3178 19.843ZM31.8306 18.2965L31.8725 17.5477L31.8725 17.5477L31.8306 18.2965ZM25.6675 15.6917L26.191 15.1546L26.1827 15.1466L26.1742 15.1388L25.6675 15.6917ZM24.6914 15.6917L24.1846 15.1388L24.1761 15.1466L24.1679 15.1546L24.6914 15.6917ZM18.5282 18.2965L18.4864 17.5477L18.4864 17.5477L18.5282 18.2965ZM17.041 19.843L17.791 19.8542L17.791 19.8541L17.041 19.843ZM17.022 20.5026L16.2727 20.4685L16.2723 20.4784L16.2721 20.4883L17.022 20.5026ZM24.8886 34.8683L24.6417 35.5765L24.6419 35.5766L24.8886 34.8683ZM25.0074 34.9006L25.1545 34.1652L25.1543 34.1651L25.0074 34.9006ZM25.3511 34.9007L25.2043 34.1652L25.204 34.1652L25.3511 34.9007ZM25.4706 34.8681L25.7181 35.5761L25.7181 35.5761L25.4706 34.8681ZM6.52024 30.5423C6.81313 30.2494 6.81313 29.7746 6.52024 29.4817C6.22734 29.1888 5.75247 29.1888 5.45958 29.4817L5.98991 30.012L6.52024 30.5423ZM0.526311 34.4149C0.233417 34.7078 0.233417 35.1827 0.526311 35.4756C0.819204 35.7685 1.29408 35.7685 1.58697 35.4756L1.05664 34.9453L0.526311 34.4149ZM9.18507 19.856C8.89218 19.5631 8.4173 19.5631 8.12441 19.856C7.83152 20.1489 7.83152 20.6237 8.12441 20.9166L8.65474 20.3863L9.18507 19.856ZM10.1131 22.9053C10.406 23.1982 10.8809 23.1982 11.1738 22.9053C11.4667 22.6125 11.4667 22.1376 11.1738 21.8447L10.6435 22.375L10.1131 22.9053ZM12.1682 16.8729C11.8753 16.58 11.4004 16.58 11.1076 16.8729C10.8147 17.1658 10.8147 17.6406 11.1076 17.9335L11.6379 17.4032L12.1682 16.8729ZM13.0964 19.9222C13.3893 20.2151 13.8641 20.2151 14.157 19.9222C14.4499 19.6293 14.4499 19.1545 14.157 18.8616L13.6267 19.3919L13.0964 19.9222ZM15.1803 13.9211C14.9048 13.6118 14.4307 13.5845 14.1214 13.86C13.8121 14.1356 13.7848 14.6096 14.0603 14.9189L14.6203 14.42L15.1803 13.9211ZM15.6907 16.7489C15.9662 17.0582 16.4403 17.0855 16.7496 16.81C17.0589 16.5344 17.0862 16.0603 16.8107 15.7511L16.2507 16.25L15.6907 16.7489ZM17.5607 12.0011C17.2851 11.6918 16.811 11.6645 16.5018 11.94C16.1925 12.2155 16.1652 12.6896 16.4407 12.9989L17.0007 12.5L17.5607 12.0011ZM18.0711 14.8289C18.3466 15.1381 18.8207 15.1655 19.13 14.8899C19.4392 14.6144 19.4666 14.1403 19.191 13.831L18.6311 14.33L18.0711 14.8289ZM21.9946 26.1855C21.6828 25.9128 21.209 25.9444 20.9363 26.2561C20.6635 26.5678 20.6951 27.0417 21.0068 27.3144L21.5007 26.75L21.9946 26.1855ZM23.3842 28.3981L22.8904 28.9625L22.8904 28.9625L23.3842 28.3981ZM25.4899 28.2694L24.9309 27.7693L24.9309 27.7693L25.4899 28.2694ZM31.4346 22.7501C31.7108 22.4414 31.6845 21.9672 31.3758 21.691C31.0671 21.4149 30.593 21.4412 30.3168 21.7499L30.8757 22.25L31.4346 22.7501ZM34.3281 6.64426L34.8584 6.11393L29.8866 1.14213L29.3563 1.67246L28.826 2.20279L33.7978 7.17459L34.3281 6.64426ZM29.3563 1.67246L29.8866 1.14213C28.77 0.0254579 26.9595 0.0254579 25.8428 1.14213L26.3732 1.67246L26.9035 2.20279C27.4344 1.6719 28.2951 1.6719 28.826 2.20279L29.3563 1.67246ZM26.3732 1.67246L25.8428 1.14213C24.7262 2.25881 24.7262 4.0692 25.8428 5.18587L26.3732 4.65554L26.9035 4.12521C26.3726 3.59432 26.3726 2.73368 26.9035 2.20279L26.3732 1.67246ZM26.3732 4.65554L25.8428 5.18587L30.8147 10.1577L31.345 9.62741L31.8754 9.09708L26.9035 4.12521L26.3732 4.65554ZM31.345 9.62741L30.8147 10.1577C31.9314 11.2744 33.7418 11.2744 34.8584 10.1577L34.3281 9.62741L33.7978 9.09708C33.2669 9.62796 32.4062 9.62796 31.8754 9.09708L31.345 9.62741ZM34.3281 9.62741L34.8584 10.1577C35.9751 9.04106 35.9751 7.2306 34.8584 6.11393L34.3281 6.64426L33.7978 7.17459C34.3287 7.70548 34.3287 8.56619 33.7978 9.09708L34.3281 9.62741ZM30.3515 8.63308L30.8819 8.10275L27.8987 5.1196L27.3684 5.64993L26.8381 6.18026L29.8212 9.16341L30.3515 8.63308ZM27.3684 5.64993L26.8381 5.1196L22.8606 9.09711L23.391 9.62744L23.9213 10.1578L27.8987 6.18026L27.3684 5.64993ZM23.391 9.62744L22.8606 10.1578L25.8438 13.1409L26.3741 12.6105L26.9044 12.0802L23.9213 9.0971L23.391 9.62744ZM26.3741 12.6105L26.9044 13.1408L30.8819 9.16341L30.3515 8.63308L29.8212 8.10275L25.8438 12.0802L26.3741 12.6105ZM10.9615 29.0176L11.4918 28.4873L7.51439 24.5098L6.98406 25.0401L6.45373 25.5705L10.4312 29.5479L10.9615 29.0176ZM6.98406 25.0401L6.45374 24.5098L4.46495 26.4985L4.99527 27.0289L5.52559 27.5592L7.51438 25.5705L6.98406 25.0401ZM4.99527 27.0289L4.46497 26.4985C3.6228 27.3406 3.62285 28.7058 4.46494 29.5479L4.99527 29.0176L5.5256 28.4873C5.26926 28.2309 5.26931 27.8155 5.52557 27.5592L4.99527 27.0289ZM4.99527 29.0176L4.46495 29.5479L6.45374 31.5366L6.98406 31.0063L7.51438 30.476L5.52559 28.4872L4.99527 29.0176ZM6.98406 31.0063L6.45369 31.5366C7.29575 32.3788 8.66102 32.3787 9.50311 31.5366L8.97278 31.0063L8.44245 30.476C8.18611 30.7323 7.77064 30.7323 7.51442 30.476L6.98406 31.0063ZM8.97278 31.0063L9.50311 31.5366L11.4918 29.5479L10.9615 29.0176L10.4312 28.4873L8.44245 30.476L8.97278 31.0063ZM23.7507 15.875L24.2771 15.3407L18.9454 10.0875L18.419 10.6218L17.8926 11.156L23.2243 16.4092L23.7507 15.875ZM18.419 10.6218L17.8887 10.0914L6.45343 21.5266L6.98376 22.057L7.51409 22.5873L18.9494 11.1521L18.419 10.6218ZM6.98376 22.057L6.45345 21.5266C5.33661 22.6434 5.33718 24.454 6.45375 25.5705L6.98406 25.0401L7.51436 24.5098C6.98337 23.9788 6.98335 23.118 7.51406 22.5873L6.98376 22.057ZM10.9615 29.0176L10.4312 29.5479C11.5478 30.6646 13.358 30.6646 14.4747 29.5479L13.9443 29.0176L13.414 28.4872C12.8831 29.0181 12.0227 29.0181 11.4918 28.4873L10.9615 29.0176ZM13.9443 29.0176L14.4747 29.5479L17.531 26.4915L17.0007 25.9612L16.4704 25.4309L13.414 28.4872L13.9443 29.0176ZM28.3627 14.5992L28.8931 14.0689L21.9325 7.10833L21.4021 7.63866L20.8718 8.16899L27.8324 15.1296L28.3627 14.5992ZM21.4021 7.63866L21.9325 7.10833C20.8158 5.99167 19.0053 5.99164 17.8887 7.10835L18.4191 7.63866L18.9494 8.16897C19.4802 7.63812 20.3409 7.63809 20.8718 8.16899L21.4021 7.63866ZM18.4191 7.63866L17.8887 7.10833C16.7721 8.22499 16.772 10.0354 17.8887 11.1521L18.419 10.6218L18.9494 10.0915C18.4185 9.56058 18.4185 8.69989 18.9494 8.16899L18.4191 7.63866ZM28.5449 17.375L29.1393 17.8323C30.0024 16.7104 29.9206 15.0965 28.8931 14.0689L28.3627 14.5992L27.8324 15.1296C28.3203 15.6175 28.36 16.3852 27.9505 16.9176L28.5449 17.375ZM33.3369 20.5026L34.0861 20.4685C34.0764 20.2542 34.0708 20.0429 34.0677 19.8318L33.3178 19.843L32.5679 19.8542C32.5712 20.0765 32.5771 20.3036 32.5877 20.5366L33.3369 20.5026ZM33.3178 19.843L34.0677 19.8319C34.0496 18.6103 33.0887 17.6157 31.8725 17.5477L31.8306 18.2965L31.7888 19.0453C32.2225 19.0696 32.5615 19.4234 32.5679 19.8541L33.3178 19.843ZM31.8306 18.2965L31.8725 17.5477C29.5152 17.416 27.7177 16.6427 26.191 15.1546L25.6675 15.6917L25.144 16.2288C26.9508 17.9899 29.0998 18.8951 31.7888 19.0453L31.8306 18.2965ZM25.6675 15.6917L26.1742 15.1388C25.6086 14.6204 24.7502 14.6203 24.1846 15.1388L24.6914 15.6917L25.1982 16.2446C25.1986 16.2442 25.1966 16.246 25.1924 16.2476C25.1884 16.2491 25.184 16.25 25.1794 16.25C25.1749 16.25 25.1704 16.2491 25.1665 16.2476C25.1623 16.246 25.1604 16.2442 25.1608 16.2446L25.6675 15.6917ZM24.6914 15.6917L24.1679 15.1546C22.6412 16.6427 20.8437 17.416 18.4864 17.5477L18.5282 18.2965L18.57 19.0453C21.2591 18.8951 23.408 17.9899 25.2149 16.2288L24.6914 15.6917ZM18.5282 18.2965L18.4864 17.5477C17.2701 17.6157 16.3093 18.6103 16.2911 19.8319L17.041 19.843L17.791 19.8541C17.7974 19.4234 18.1364 19.0696 18.5701 19.0453L18.5282 18.2965ZM17.041 19.843L16.2911 19.8318C16.288 20.043 16.2825 20.2543 16.2727 20.4685L17.022 20.5026L17.7712 20.5366C17.7818 20.3035 17.7877 20.0764 17.791 19.8542L17.041 19.843ZM17.022 20.5026L16.2721 20.4883C16.2262 22.8987 16.1572 25.9273 17.1796 28.7109C18.2242 31.5548 20.3839 34.0918 24.6417 35.5765L24.8886 34.8683L25.1356 34.1601C21.2949 32.8209 19.4749 30.6095 18.5876 28.1937C17.6781 25.7176 17.725 22.9753 17.7718 20.5169L17.022 20.5026ZM24.8886 34.8683L24.6419 35.5766C24.7143 35.6018 24.7875 35.6215 24.8604 35.636L25.0074 34.9006L25.1543 34.1651C25.1468 34.1636 25.1404 34.1618 25.1353 34.16L24.8886 34.8683ZM25.0074 34.9006L24.8602 35.636C25.0704 35.6781 25.2874 35.6783 25.4983 35.6361L25.3511 34.9007L25.204 34.1652C25.1881 34.1684 25.1711 34.1685 25.1545 34.1652L25.0074 34.9006ZM25.3511 34.9007L25.4979 35.6362C25.5713 35.6215 25.6451 35.6016 25.7181 35.5761L25.4706 34.8681L25.2231 34.1602C25.2182 34.1619 25.2118 34.1637 25.2043 34.1652L25.3511 34.9007ZM25.4706 34.8681L25.7181 35.5761C29.9634 34.0915 32.1227 31.5608 33.1703 28.7204C34.1958 25.9397 34.1327 22.9115 34.0868 20.4883L33.3369 20.5026L32.587 20.5168C32.6339 22.9856 32.6751 25.7282 31.763 28.2013C30.8729 30.6147 29.0526 32.8209 25.223 34.1602L25.4706 34.8681ZM5.98991 30.012L5.45958 29.4817L0.526311 34.4149L1.05664 34.9453L1.58697 35.4756L6.52024 30.5423L5.98991 30.012ZM8.65474 20.3863L8.12441 20.9166L10.1131 22.9053L10.6435 22.375L11.1738 21.8447L9.18507 19.856L8.65474 20.3863ZM11.6379 17.4032L11.1076 17.9335L13.0964 19.9222L13.6267 19.3919L14.157 18.8616L12.1682 16.8729L11.6379 17.4032ZM14.6203 14.42L14.0603 14.9189L15.6907 16.7489L16.2507 16.25L16.8107 15.7511L15.1803 13.9211L14.6203 14.42ZM17.0007 12.5L16.4407 12.9989L18.0711 14.8289L18.6311 14.33L19.191 13.831L17.5607 12.0011L17.0007 12.5ZM21.5007 26.75L21.0068 27.3144L22.8904 28.9625L23.3842 28.3981L23.8781 27.8337L21.9946 26.1855L21.5007 26.75ZM25.4899 28.2694L26.0488 28.7695L31.4346 22.7501L30.8757 22.25L30.3168 21.7499L24.9309 27.7693L25.4899 28.2694ZM23.3842 28.3981L22.8904 28.9625C23.8182 29.7744 25.2267 29.6883 26.0488 28.7695L25.4899 28.2694L24.9309 27.7693C24.6569 28.0756 24.1874 28.1043 23.8781 27.8337L23.3842 28.3981Z" fill="#225CA8"/>
</g>
<defs>
<clipPath id="clip0_2970_17174">
<rect width="36" height="36" fill="white"/>
</clipPath>
</defs>
</svg>
