<svg width="48" height="48" viewBox="0 0 48 48" fill="none" xmlns="http://www.w3.org/2000/svg">
<path d="M28.762 22.0544C29.9534 21.6382 31.2356 21.4118 32.5714 21.4118C33.8808 21.4118 35.1386 21.6294 36.3102 22.03M36.3102 22.03C40.786 23.5604 44 27.7622 44 32.7058C44 38.9434 38.8832 44 32.5714 44H12.5714C7.83756 44 4 40.2076 4 35.5294C4 30.8512 7.83756 27.0588 12.5714 27.0588C13.1397 27.0588 13.695 27.1134 14.2323 27.2178M36.3102 22.03C35.6742 16.3874 30.8318 12 24.9524 12C18.6406 12 13.5238 17.0565 13.5238 23.2942C13.5238 24.6738 13.7741 25.9956 14.2323 27.2178M14.2323 27.2178C15.3612 27.4368 16.4106 27.8748 17.3333 28.4852" stroke="#171717" stroke-width="1.5" stroke-linecap="round"/>
<path d="M16 9C12.134 9 9 12.134 9 16C9 18.7924 10.6351 21.203 13 22.3264M16 9C17.4872 9 18.8662 9.46382 20 10.2547M16 9C14.5128 9 13.1338 9.46382 12 10.2547M16 9C17.9073 9 19.6364 9.76282 20.899 11M16 9C14.0927 9 12.3636 9.76282 11.101 11M16 9C18.5463 9 20.7752 10.3596 22 12.3924" stroke="#171717" stroke-width="1.5"/>
<path d="M15 4V5" stroke="#171717" stroke-width="1.5" stroke-linecap="round"/>
<path d="M5 15H4" stroke="#171717" stroke-width="1.5" stroke-linecap="round"/>
<path d="M22.7774 7.22266L22.3452 7.65478" stroke="#171717" stroke-width="1.5" stroke-linecap="round"/>
<path d="M7.65429 22.3457L7.22217 22.7777" stroke="#171717" stroke-width="1.5" stroke-linecap="round"/>
<path d="M7.65429 7.65429L7.22217 7.22217" stroke="#171717" stroke-width="1.5" stroke-linecap="round"/>
</svg>
