<svg width="466" height="390" viewBox="0 0 466 390" fill="none" xmlns="http://www.w3.org/2000/svg">
<path d="M137.912 362.931C153.439 368.668 172.204 365.368 180.881 350.222C186.979 339.576 185.936 325.561 179.258 315.269C172.581 304.978 160.85 298.446 148.67 296.982C134.734 295.308 118.445 301.944 112.413 315.218C105.306 330.858 117.332 355.327 137.912 362.931Z" fill="#225CA8"/>
<path d="M250.406 321.255C240.285 320.121 229.574 316.922 218.114 311.583C199.037 321.3 175.523 329.97 150.76 329.949C148.709 329.947 147.048 328.282 147.049 326.227C147.057 324.181 148.72 322.525 150.77 322.516C172.02 322.535 192.438 315.668 209.789 307.399C173.656 287.943 135.121 255.606 145.827 215.962C149.753 201.453 162.097 185.649 179.941 185.231C192.843 184.929 204.66 193.298 213.282 202.45C227.367 177.599 257.864 172.53 277.597 187.539C296.229 201.706 297.796 227.355 291.365 245.191C281.18 273.444 253.218 292.32 226.461 307.148C235.205 310.771 243.432 312.996 251.237 313.87C293.387 318.587 333.5 288.821 340.278 248.932C347.352 207.524 318.982 173.403 293.476 148.303C292.012 146.862 291.994 144.51 293.431 143.048C294.871 141.58 297.219 141.564 298.687 143.003C325.482 169.372 355.258 205.384 347.604 250.182C340.102 294.169 296.279 326.39 250.406 321.255ZM170.793 194.955C162.01 199.189 155.506 208.633 153.002 217.901C144.894 247.924 170.921 272.282 187.156 284.132C198.115 292.133 208.358 298.498 217.987 303.282C224.566 299.816 230.583 296.271 235.896 292.996C254.048 281.82 275.963 265.998 284.374 242.672C290.09 226.821 288.052 204.823 273.101 193.453C256.107 180.525 229.413 185.866 218.474 208.499C220.716 211.369 222.596 214.149 224.047 216.583C225.711 219.374 227.863 223.629 227.388 228.325C226.269 239.247 212.73 242.059 208.214 231.584C205.639 225.616 207.654 215.856 209.873 209.809C199.461 197.964 185.013 188.099 170.793 194.955ZM215.458 216.957C214.741 220.002 213.799 225.775 215.037 228.641C216.491 232.019 219.659 230.876 219.994 227.576C220.336 224.213 217.527 219.968 215.458 216.957Z" fill="#225CA8"/>
<path d="M285.93 107.869C280.009 111.347 278.089 105.814 275.581 101.315C273.362 97.333 271.096 93.3772 268.785 89.4482C264.278 81.786 259.597 74.2258 254.748 66.7752C246.484 54.076 238.17 41.1232 222.884 36.2824C217.586 34.6047 211.355 34.3024 206.892 37.6135C202.857 40.6077 202.521 46.3004 200.399 50.4853C198.69 53.8544 197.65 52.8023 194.838 50.7408C192.796 49.2441 187.676 45.9309 187.203 43.2808C186.727 40.607 190.041 36.1052 191.539 34.1177C201.381 21.0645 220.948 18.1443 238.546 30.1551C246.586 35.6443 252.645 43.0637 257.994 50.2652C269.305 65.4966 279.066 81.8579 288.507 97.6806C290.608 101.203 289.456 105.766 285.93 107.869Z" fill="#EAF1FB"/>
<path d="M256.414 162.174C254.08 163.299 251.227 163.172 248.947 161.593C210.9 135.228 185.545 138.768 165.893 117.007C158.454 108.77 154.423 98.42 154.837 88.6093C155.34 76.7696 162.615 66.0239 172.741 61.8952C176.545 60.3515 180.88 62.1845 182.423 65.9856C183.712 69.1635 175.09 74.5948 173.006 77.4598C163.408 90.6546 167.802 104.845 180.745 114.145C192.582 122.651 204.175 123.317 238.035 140.004C243.639 142.766 249.185 145.652 254.66 148.663C258.98 151.039 262.987 154.401 259.289 159.716C258.53 160.807 257.531 161.635 256.414 162.174Z" fill="#EAF1FB"/>
<path d="M281.781 177.132C272.407 177.958 264.277 173.62 258.896 170.747L236.547 158.832C231.115 155.936 229.061 149.184 231.956 143.752C234.852 138.328 241.602 136.262 247.036 139.161C272.862 152.935 276.369 155.231 279.819 154.924C283.826 154.573 290.861 148.041 292.791 144.066C294.937 139.66 294.685 132.72 292.273 129.79C282.395 117.762 280.825 114.861 275.907 108.751C272.85 104.943 269.388 100.627 267.135 95.5942C264.619 89.9753 267.169 83.2836 272.759 80.8666C278.38 78.3543 284.971 80.8722 287.487 86.4911C289.104 90.1079 293.641 94.9594 296.997 99.5576C300.786 104.752 304.876 110.01 309.495 115.63C318.541 126.624 318.022 143.169 312.836 153.826C307.696 164.379 294.436 176.013 281.781 177.132Z" fill="#225CA8"/>
<path d="M282.06 180.3C271.748 181.212 263.114 176.605 257.402 173.557L235.053 161.638C233.501 160.809 232.915 158.884 233.741 157.334C234.57 155.778 236.499 155.193 238.044 156.022L260.392 167.938C265.445 170.635 273.074 174.704 281.501 173.96C293.132 172.929 305.416 161.796 309.974 152.431C312.417 147.417 313.641 141.069 313.326 135.015C313.239 133.26 314.584 131.756 316.342 131.675C318.095 131.585 319.591 132.933 319.682 134.69C320.054 141.886 318.637 149.178 315.698 155.217C310.114 166.673 295.954 179.073 282.06 180.3Z" fill="#5590DD"/>
<path d="M190.832 71.2C190.016 73.3639 187.251 73.7566 185.352 74.3665C183.581 74.9349 181.828 75.5575 180.053 76.113C177.516 76.9068 174.813 77.6505 172.236 76.9999C169.709 76.362 167.661 74.4347 166.321 72.2003C164.696 69.4929 163.26 66.259 164.702 63.2202C166.47 59.4974 170.125 56.237 173.597 54.1538C177.256 51.9583 179.001 52.8868 181.202 55.8059C183.302 58.5916 185.361 61.4082 187.379 64.2544C188.682 66.0932 191.773 68.7053 190.832 71.2Z" fill="#225DAA"/>
<path d="M202.562 59.1989C204.682 58.2735 204.933 55.4924 205.445 53.5644C205.922 51.767 206.455 49.9849 206.919 48.1835C207.583 45.6099 208.187 42.8717 207.406 40.3314C206.641 37.8408 204.611 35.8933 202.311 34.6684C199.525 33.1842 196.222 31.9145 193.261 33.5102C189.633 35.465 186.563 39.282 184.659 42.8553C182.653 46.6214 183.669 48.3172 186.697 50.3663C189.586 52.3218 192.504 54.2347 195.449 56.1045C197.352 57.3125 200.119 60.2656 202.562 59.1989Z" fill="#225DAA"/>
<path d="M163.69 340.119C169.428 330.102 162.199 316.64 148.488 314.993C141.911 314.203 134.224 317.335 131.377 323.6C128.052 330.916 133.537 340.412 139.756 344.322C147.604 349.256 158.924 348.439 163.69 340.119Z" fill="#5590DD"/>
<path d="M132.579 187.618C126.29 185.292 119.361 184.335 112.532 184.854C110.782 184.987 109.253 183.675 109.121 181.921C108.987 180.168 110.307 178.641 112.054 178.509C119.784 177.922 127.645 179.009 134.785 181.649C136.434 182.257 137.275 184.087 136.666 185.737C136.057 187.384 134.228 188.226 132.579 187.618Z" fill="#5590DD"/>
<path d="M332.332 317.537C337.804 321.411 344.25 324.129 350.98 325.395C352.705 325.72 353.843 327.382 353.516 329.111C353.192 330.839 351.522 331.972 349.8 331.647C342.181 330.214 334.869 327.129 328.656 322.732C327.22 321.717 326.882 319.731 327.897 318.296C328.912 316.862 330.896 316.522 332.332 317.537Z" fill="#5590DD"/>
<path d="M144.828 163.935C139.736 158.153 136.422 151.086 135.247 143.497C134.982 141.759 136.17 140.131 137.904 139.864C139.641 139.596 141.267 140.785 141.538 142.521C142.524 148.91 145.314 154.86 149.603 159.729C150.767 161.048 150.639 163.059 149.319 164.22C148.02 165.37 145.998 165.266 144.828 163.935Z" fill="#5590DD"/>
<path d="M314.369 337.242C317.791 344.145 319.163 351.83 318.334 359.463C318.141 361.211 316.572 362.476 314.828 362.285C313.08 362.095 311.818 360.525 312.006 358.779C312.706 352.352 311.552 345.882 308.669 340.069C307.886 338.494 308.53 336.585 310.106 335.805C311.658 335.03 313.584 335.654 314.369 337.242Z" fill="#5590DD"/>
<path d="M130.84 169.538C123.978 165.119 117.611 159.927 111.916 154.104C110.686 152.848 110.709 150.833 111.966 149.606C113.218 148.375 115.235 148.403 116.464 149.656C121.828 155.138 127.821 160.027 134.284 164.187C135.762 165.136 136.189 167.108 135.237 168.584C134.273 170.078 132.302 170.478 130.84 169.538Z" fill="#5590DD"/>
<path d="M329.332 335.451C334.818 341.495 339.623 348.158 343.617 355.256C344.48 356.788 343.937 358.728 342.405 359.588C340.877 360.454 338.935 359.905 338.073 358.376C334.31 351.692 329.787 345.419 324.621 339.728C323.439 338.428 323.537 336.414 324.838 335.234C326.156 334.041 328.164 334.164 329.332 335.451Z" fill="#5590DD"/>
<path d="M130.722 349.721C122.904 344.245 118.489 334.208 119.739 324.743C120.003 322.659 123.166 323.068 122.893 325.161C121.795 333.48 125.675 342.302 132.549 347.115C133.269 347.62 133.444 348.612 132.938 349.332C132.434 350.048 131.444 350.227 130.722 349.721Z" fill="#5590DD"/>
<path d="M293.127 114.04C292.444 114.37 291.599 114.17 291.141 113.528L278.634 95.9704C277.416 94.2507 280.004 92.4095 281.226 94.1205L293.736 111.684C294.243 112.398 294.077 113.392 293.361 113.903C293.286 113.956 293.208 114.001 293.127 114.04Z" fill="#5590DD"/>
<path d="M88.7865 284.102V315.49H64.9213V284.102H0V257.946L57.8427 181.49H88.7865V263.177H108V284.102H88.7865ZM64.9213 263.177V208.853L25.2809 263.177H64.9213Z" fill="#225CA8"/>
<path d="M446.787 284.102V315.49H422.921V284.102H358V257.946L415.843 181.49H446.787V263.177H466V284.102H446.787ZM422.921 263.177V208.853L383.281 263.177H422.921Z" fill="#225CA8"/>
</svg>
