<svg width="36" height="36" viewBox="0 0 36 36" fill="none" xmlns="http://www.w3.org/2000/svg">
<g clip-path="url(#clip0_2970_17162)">
<path d="M29.2706 6.16359V3.34539C29.2706 3.03412 29.0183 2.78177 28.707 2.78177H5.03433C4.72305 2.78177 4.4707 3.03412 4.4707 3.34539V32.6544C4.4707 32.9657 4.72305 33.218 5.03433 33.218H28.707C29.0183 33.218 29.2706 32.9657 29.2706 32.6544V8.41788M6.72656 33.2179V34.909C6.72656 35.2202 6.97891 35.4726 7.29019 35.4726H30.9629C31.2741 35.4726 31.5265 35.2202 31.5265 34.909V5.59997C31.5265 5.2887 31.2741 5.03635 30.9629 5.03635H29.272M10.1076 2.78185V1.65453C10.1076 1.03199 9.60289 0.527283 8.98035 0.527283C8.3578 0.527283 7.85303 1.03199 7.85303 1.65453V5.03635C7.85303 5.6589 8.35773 6.1636 8.98028 6.1636C9.60282 6.1636 10.1076 5.6589 10.1076 5.03635M13.4899 20.8181H24.7625M10.6719 20.8181H8.98096M13.4899 24.1999H24.7625M13.4899 27.5817H24.7625M10.6719 24.1999H8.98096M10.6719 27.5817H8.98096M20.8164 10.6727H17.9982V7.8545C17.9982 7.54323 17.7459 7.29087 17.4346 7.29087H16.3073C15.996 7.29087 15.7437 7.54323 15.7437 7.8545V10.6727H12.9255C12.6142 10.6727 12.3619 10.925 12.3619 11.2363V12.3636C12.3619 12.6749 12.6142 12.9272 12.9255 12.9272H15.7437V15.7454C15.7437 16.0567 15.996 16.309 16.3073 16.309H17.4346C17.7459 16.309 17.9982 16.0567 17.9982 15.7454V12.9272H20.8164C21.1276 12.9272 21.38 12.6749 21.38 12.3636V11.2363C21.38 10.925 21.1276 10.6727 20.8164 10.6727Z" stroke="#225CA8" stroke-width="1.5" stroke-miterlimit="10" stroke-linecap="round" stroke-linejoin="round"/>
</g>
<defs>
<clipPath id="clip0_2970_17162">
<rect width="36" height="36" fill="white"/>
</clipPath>
</defs>
</svg>
