<svg width="49" height="49" viewBox="0 0 49 49" fill="none" xmlns="http://www.w3.org/2000/svg">
<g clip-path="url(#clip0_3270_21825)">
<path d="M43.2706 14C43.2474 12.78 43.2253 11.0019 43.2253 9.88707C43.2253 9.0135 42.5173 8.30541 41.6436 8.30541C34.8795 8.30541 29.7295 6.36132 25.4367 2.18747C24.8226 1.59019 23.8454 1.59047 23.2315 2.18747C18.9392 6.36132 13.79 8.30541 7.02635 8.30541C6.15279 8.30541 5.44461 9.0135 5.44461 9.88707C5.44461 11.0022 5.42276 12.1552 5.39933 13.3754C5.18258 24.7288 4.88567 40.278 23.816 46.8398C23.9839 46.898 24.159 46.9271 24.334 46.9271C24.509 46.9271 24.6843 46.898 24.852 46.8398C32.3526 44.2399 36.8351 40.2294 39.5 35.6279C39.9475 34.8552 40.3438 34.0658 40.6945 33.2636C41.02 32.5191 41.3063 31.7635 41.5578 31C42.9083 26.9011 43.2584 22.5742 43.3116 18.5" stroke="#225CA8" stroke-width="1.5" stroke-miterlimit="10" stroke-linecap="round"/>
<path d="M27.1411 21.0571V20.1322V18.0913V16.5V15.1255H21.5287V21.0571H15.5967V26.6696H21.5287V32.6011H27.1411V26.6696H33.0723V25V23.9161V23V21.0571H27.1411Z" stroke="#225CA8" stroke-width="1.5" stroke-miterlimit="10" stroke-linejoin="round"/>
</g>
<defs>
<clipPath id="clip0_3270_21825">
<rect width="48" height="48" fill="white" transform="translate(0.333008 0.333344)"/>
</clipPath>
</defs>
</svg>
