<svg width="100" height="100" viewBox="0 0 100 100" fill="none" xmlns="http://www.w3.org/2000/svg">
<path d="M92.7087 71.8752L59.0212 13.5419C58.1069 11.9585 56.792 10.6436 55.2085 9.72942C53.625 8.81525 51.8288 8.33398 50.0004 8.33398C48.172 8.33398 46.3758 8.81525 44.7923 9.72942C43.2088 10.6436 41.8938 11.9585 40.9796 13.5419L7.29205 71.8752C6.37746 73.4593 5.89613 75.2563 5.89648 77.0855C5.89684 78.9147 6.37886 80.7116 7.29407 82.2953C8.20928 83.8791 9.5254 85.194 11.1101 86.1077C12.6947 87.0213 14.492 87.5016 16.3212 87.5002H83.6796C85.508 87.5001 87.3043 87.0188 88.8878 86.1045C90.4713 85.1902 91.7862 83.8753 92.7004 82.2917C93.6147 80.7082 94.096 78.9119 94.096 77.0835C94.0959 75.255 93.6146 73.4587 92.7004 71.8752H92.7087Z" fill="url(#paint0_linear_2957_5518)"/>
<path d="M49.9998 62.4997C51.0914 62.5046 52.1454 62.1013 52.9549 61.3689C53.7644 60.6366 54.2708 59.628 54.3748 58.5413L56.8331 33.958C56.9205 33.088 56.8245 32.2094 56.5511 31.3789C56.2777 30.5484 55.8331 29.7844 55.246 29.1365C54.6589 28.4885 53.9424 27.971 53.1428 27.6173C52.3432 27.2636 51.4783 27.0815 50.6039 27.083H49.3956C48.5221 27.083 47.6583 27.2661 46.86 27.6204C46.0616 27.9748 45.3464 28.4926 44.7604 29.1404C44.1745 29.7881 43.7308 30.5516 43.458 31.3814C43.1853 32.2112 43.0895 33.0889 43.1768 33.958L45.6352 58.5413C45.739 59.6262 46.2439 60.6333 47.0512 61.3654C47.8585 62.0976 48.9099 62.502 49.9998 62.4997Z" fill="url(#paint1_linear_2957_5518)"/>
<path d="M49.9997 79.1663C54.0268 79.1663 57.2913 75.9018 57.2913 71.8747C57.2913 67.8476 54.0268 64.583 49.9997 64.583C45.9726 64.583 42.708 67.8476 42.708 71.8747C42.708 75.9018 45.9726 79.1663 49.9997 79.1663Z" fill="url(#paint2_linear_2957_5518)"/>
<defs>
<linearGradient id="paint0_linear_2957_5518" x1="25.2796" y1="42.3669" x2="87.5566" y2="86.2273" gradientUnits="userSpaceOnUse">
<stop stop-color="#FED200"/>
<stop offset="1" stop-color="#F59815"/>
</linearGradient>
<linearGradient id="paint1_linear_2957_5518" x1="42.3289" y1="32.4747" x2="57.3956" y2="54.4059" gradientUnits="userSpaceOnUse">
<stop stop-color="#3E4154"/>
<stop offset="1" stop-color="#1B2129"/>
</linearGradient>
<linearGradient id="paint2_linear_2957_5518" x1="45.3726" y1="67.2476" x2="54.3247" y2="76.1997" gradientUnits="userSpaceOnUse">
<stop stop-color="#3E4154"/>
<stop offset="1" stop-color="#1B2129"/>
</linearGradient>
</defs>
</svg>
