<svg width="48" height="48" viewBox="0 0 48 48" fill="none" xmlns="http://www.w3.org/2000/svg">
<path d="M16.8958 45V35.8975C16.8958 32.5367 6.75136 24.2598 4.39368 21.6148C4.11276 21.2982 3.9723 20.8899 4.00454 20.4659C4.03217 20.0418 4.22444 19.6562 4.54796 19.3791C5.20421 18.8137 6.19204 18.8883 6.84828 19.5521L17.3229 29.2788C18.7809 30.7486 29.2255 30.7386 30.6736 29.2788L41.1528 19.5521C41.8045 18.8895 42.7923 18.8148 43.4486 19.3791C43.7721 19.6551 43.9643 20.0418 43.9966 20.4659C44.0242 20.8899 43.8837 21.2982 43.6028 21.6148C41.2444 24.2602 31.0996 32.5356 31.0996 35.8975V45" stroke="#171717" stroke-width="1.5"/>
<path d="M24 17C21.2402 17 19 19.2425 19 22C19 24.7575 21.2411 27.0009 24 27C26.7599 27 29 24.7575 29 22C29 19.2435 26.7599 17 24 17Z" stroke="#171717" stroke-width="1.5"/>
<path d="M24 5L24 13" stroke="#171717" stroke-width="1.5"/>
<path d="M10 10L14.8196 16.1812" stroke="#171717" stroke-width="1.5"/>
<path d="M38.8196 10L34 16.1812" stroke="#171717" stroke-width="1.5"/>
<rect x="5" y="5" width="2" height="2" fill="#171717"/>
<rect x="17" y="7" width="2" height="2" fill="#171717"/>
<rect x="30" y="7" width="2" height="2" fill="#171717"/>
<rect x="42" y="5" width="2" height="2" fill="#171717"/>
<rect x="5" y="13" width="2" height="2" fill="#171717"/>
<rect x="42" y="13" width="2" height="2" fill="#171717"/>
</svg>
