<svg width="48" height="48" viewBox="0 0 48 48" fill="none" xmlns="http://www.w3.org/2000/svg">
<path d="M32.6101 32.2401C32.4914 32.2389 32.3746 32.2103 32.2688 32.1565C32.163 32.1028 32.071 32.0253 32.0001 31.9301C31.9421 31.8501 31.9004 31.7594 31.8775 31.6632C31.8546 31.567 31.851 31.4673 31.8668 31.3697C31.8826 31.2721 31.9175 31.1786 31.9696 31.0946C32.0216 31.0106 32.0898 30.9377 32.1701 30.8801C34.0947 29.4876 35.6295 27.6243 36.6272 25.4685C37.625 23.3127 38.0524 20.9368 37.8684 18.5684C37.6844 16.2001 36.8953 13.9186 35.5765 11.9428C34.2578 9.96698 32.4537 8.36296 30.3371 7.28448C28.2206 6.20599 25.8625 5.68919 23.4889 5.7836C21.1153 5.878 18.8057 6.58045 16.7814 7.82363C14.7572 9.06681 13.0862 10.809 11.9286 12.8834C10.7709 14.9577 10.1654 17.2946 10.1701 19.6701C10.1723 20.679 10.2829 21.6848 10.5001 22.6701C10.5439 22.869 10.5068 23.0771 10.3971 23.2487C10.2874 23.4203 10.114 23.5413 9.91512 23.5851C9.7162 23.6288 9.50805 23.5918 9.33646 23.4821C9.16486 23.3724 9.04388 23.199 9.00012 23.0001C8.52905 20.8921 8.50756 18.7086 8.93704 16.5918C9.36652 14.475 10.2373 12.4725 11.4927 10.7148C12.7481 8.95715 14.3598 7.48382 16.2228 6.39088C18.0858 5.29794 20.1582 4.60993 22.305 4.37172C24.4518 4.1335 26.6246 4.35043 28.6819 5.00836C30.7392 5.66628 32.6347 6.75043 34.2449 8.19011C35.855 9.6298 37.1437 11.3927 38.0268 13.3638C38.9099 15.335 39.3676 17.4701 39.3701 19.6301C39.3719 22.0592 38.8005 24.4546 37.7023 26.6213C36.6042 28.7881 35.0102 30.6652 33.0501 32.1001C32.9207 32.1895 32.7675 32.2383 32.6101 32.2401Z" fill="#428FE1"/>
<path d="M15.3799 32.23C15.2221 32.2315 15.0679 32.1824 14.9399 32.09C13.4613 31.0118 12.1879 29.6774 11.1799 28.15C11.0821 27.9877 11.0493 27.7943 11.0883 27.6087C11.1272 27.4232 11.235 27.2593 11.3899 27.15C11.5529 27.0545 11.7456 27.0231 11.9305 27.0619C12.1154 27.1007 12.2791 27.207 12.3899 27.36C13.2992 28.7421 14.4511 29.9482 15.7899 30.92C15.9159 31.0145 16.0089 31.1461 16.0558 31.2964C16.1027 31.4466 16.1012 31.6079 16.0514 31.7572C16.0017 31.9065 15.9062 32.0364 15.7785 32.1284C15.6508 32.2205 15.4973 32.27 15.3399 32.27L15.3799 32.23Z" fill="#428FE1"/>
<path d="M31.38 26.22C31.2089 26.2164 31.0438 26.1566 30.91 26.05C30.7554 25.9262 30.6561 25.7464 30.6336 25.5497C30.6111 25.353 30.6673 25.1554 30.79 25C31.5708 23.9952 32.12 22.8303 32.3984 21.5887C32.6768 20.347 32.6775 19.0592 32.4005 17.8172C32.1234 16.5753 31.5755 15.4098 30.7957 14.4042C30.016 13.3986 29.0238 12.5776 27.89 12C27.7183 11.9063 27.5886 11.7509 27.5273 11.5652C27.466 11.3795 27.4777 11.1774 27.56 11C27.6499 10.8246 27.8052 10.6917 27.9923 10.6299C28.1795 10.5682 28.3834 10.5826 28.56 10.67C29.8927 11.3458 31.0598 12.3075 31.9778 13.4866C32.8959 14.6656 33.5423 16.0327 33.8709 17.4905C34.1995 18.9482 34.2022 20.4605 33.8788 21.9193C33.5554 23.3782 32.9138 24.7477 32 25.93C31.9271 26.024 31.8328 26.0994 31.725 26.1498C31.6172 26.2002 31.4989 26.2243 31.38 26.22Z" fill="#428FE1"/>
<path d="M16.62 26.21C16.5072 26.2094 16.3958 26.184 16.2939 26.1357C16.1919 26.0873 16.1018 26.0171 16.03 25.93C14.6199 24.1492 13.8581 21.9414 13.87 19.67C13.8751 17.7657 14.4137 15.901 15.4247 14.2872C16.4357 12.6735 17.8787 11.3753 19.59 10.54C19.7675 10.4647 19.9671 10.4605 20.1475 10.5285C20.328 10.5965 20.4753 10.7313 20.5589 10.905C20.6425 11.0787 20.6561 11.2779 20.5967 11.4614C20.5373 11.6448 20.4096 11.7983 20.24 11.89C18.7838 12.604 17.5561 13.7108 16.6956 15.0855C15.835 16.4603 15.3759 18.0482 15.37 19.67C15.3598 21.6041 16.0088 23.4841 17.21 25C17.2715 25.0771 17.3169 25.1656 17.3437 25.2605C17.3704 25.3553 17.378 25.4545 17.3659 25.5524C17.3538 25.6502 17.3222 25.7446 17.2732 25.83C17.2241 25.9155 17.1584 25.9903 17.08 26.05C16.9499 26.1552 16.7873 26.2117 16.62 26.21Z" fill="#428FE1"/>
<path d="M33.4701 37.13H14.5201C14.4085 37.13 14.2984 37.1049 14.198 37.0564C14.0976 37.0079 14.0094 36.9373 13.9401 36.85C13.8702 36.7625 13.8205 36.6607 13.7946 36.5517C13.7687 36.4428 13.7671 36.3295 13.7901 36.22L16.7901 22.02C16.8247 21.8524 16.9164 21.702 17.0495 21.5944C17.1826 21.4868 17.3489 21.4287 17.5201 21.43H30.5201C30.6924 21.4283 30.8601 21.4861 30.9949 21.5935C31.1296 21.701 31.2233 21.8516 31.2601 22.02L32.0001 26C32.0319 26.0998 32.0425 26.2052 32.0311 26.3094C32.0198 26.4135 31.9867 26.5142 31.9341 26.6048C31.8814 26.6954 31.8104 26.7739 31.7255 26.8354C31.6406 26.8969 31.5438 26.9399 31.4413 26.9616C31.3388 26.9834 31.2329 26.9835 31.1304 26.9618C31.0279 26.9401 30.931 26.8972 30.8461 26.8358C30.7612 26.7744 30.6901 26.6959 30.6374 26.6053C30.5847 26.5147 30.5515 26.4141 30.5401 26.31L29.8301 22.96H18.1301L15.4501 35.66H32.5501L31.4701 30.57C31.4313 30.3753 31.4703 30.1731 31.5787 30.0068C31.6871 29.8405 31.8563 29.7232 32.0501 29.68C32.1467 29.6581 32.2467 29.6558 32.3442 29.6732C32.4417 29.6907 32.5348 29.7276 32.6178 29.7817C32.7008 29.8358 32.7721 29.906 32.8274 29.9881C32.8828 30.0703 32.9211 30.1627 32.9401 30.26L34.2101 36.26C34.233 36.3695 34.2314 36.4828 34.2055 36.5917C34.1796 36.7007 34.1299 36.8025 34.0601 36.89C33.9858 36.9714 33.8943 37.0352 33.7922 37.0767C33.6901 37.1182 33.5801 37.1364 33.4701 37.13Z" fill="#428FE1"/>
<path d="M32.46 41H15.54C15.3081 41.0013 15.0781 40.9568 14.8634 40.8689C14.6487 40.7811 14.4535 40.6516 14.289 40.4881C14.1245 40.3245 13.994 40.13 13.9049 39.9158C13.8159 39.7017 13.77 39.472 13.77 39.24V36.38C13.77 36.1811 13.849 35.9903 13.9897 35.8497C14.1303 35.709 14.3211 35.63 14.52 35.63C14.7189 35.63 14.9097 35.709 15.0503 35.8497C15.191 35.9903 15.27 36.1811 15.27 36.38V39.2C15.2726 39.2699 15.3022 39.336 15.3526 39.3845C15.4029 39.433 15.4701 39.4601 15.54 39.46H32.46C32.529 39.46 32.5951 39.4326 32.6439 39.3839C32.6926 39.3351 32.72 39.269 32.72 39.2V36.38C32.72 36.1811 32.799 35.9903 32.9397 35.8497C33.0803 35.709 33.2711 35.63 33.47 35.63C33.6689 35.63 33.8597 35.709 34.0004 35.8497C34.141 35.9903 34.22 36.1811 34.22 36.38V39.2C34.2254 39.4345 34.1838 39.6676 34.0977 39.8858C34.0116 40.104 33.8828 40.3028 33.7189 40.4705C33.5549 40.6381 33.3591 40.7714 33.1429 40.8623C32.9267 40.9533 32.6945 41.0001 32.46 41Z" fill="#428FE1"/>
<path d="M29.94 43.71H18.06C16.97 43.71 16.21 43.2 16.21 42.47V40.41C16.21 40.2111 16.289 40.0204 16.4296 39.8797C16.5703 39.7391 16.761 39.66 16.96 39.66C17.1589 39.66 17.3496 39.7391 17.4903 39.8797C17.6309 40.0204 17.71 40.2111 17.71 40.41V42.17C17.8262 42.1834 17.9437 42.1834 18.06 42.17H29.94C30.0562 42.1841 30.1737 42.1841 30.29 42.17V40.41C30.29 40.2111 30.369 40.0204 30.5096 39.8797C30.6503 39.7391 30.8411 39.66 31.04 39.66C31.2389 39.66 31.4296 39.7391 31.5703 39.8797C31.7109 40.0204 31.79 40.2111 31.79 40.41V42.47C31.79 43.2 31 43.71 29.94 43.71Z" fill="#428FE1"/>
<path d="M27.6601 22.93H20.3401C20.142 22.9274 19.9527 22.8476 19.8126 22.7075C19.6725 22.5674 19.5927 22.3781 19.5901 22.18V20.56C19.5901 19.47 20.7601 18.62 22.2601 18.62H25.7401C27.2401 18.62 28.4101 19.47 28.4101 20.56V22.18C28.4075 22.3781 28.3276 22.5674 28.1876 22.7075C28.0475 22.8476 27.8582 22.9274 27.6601 22.93ZM21.0901 21.43H26.9101V20.56C26.9101 20.45 26.4701 20.12 25.7401 20.12H22.2601C21.5001 20.12 21.1001 20.46 21.0901 20.56V21.43Z" fill="#428FE1"/>
<path d="M26.45 13H21.55C20.8922 12.959 20.2748 12.6689 19.8234 12.1886C19.3721 11.7083 19.1208 11.074 19.1208 10.415C19.1208 9.75589 19.3721 9.12162 19.8234 8.64133C20.2748 8.16105 20.8922 7.87089 21.55 7.82996H26.45C27.1078 7.87089 27.7252 8.16105 28.1766 8.64133C28.6279 9.12162 28.8791 9.75589 28.8791 10.415C28.8791 11.074 28.6279 11.7083 28.1766 12.1886C27.7252 12.6689 27.1078 12.959 26.45 13ZM21.55 9.32996C21.2802 9.35589 21.0298 9.4814 20.8475 9.68201C20.6653 9.88261 20.5643 10.1439 20.5643 10.415C20.5643 10.686 20.6653 10.9473 20.8475 11.1479C21.0298 11.3485 21.2802 11.474 21.55 11.5H26.45C26.7198 11.474 26.9702 11.3485 27.1525 11.1479C27.3347 10.9473 27.4357 10.686 27.4357 10.415C27.4357 10.1439 27.3347 9.88261 27.1525 9.68201C26.9702 9.4814 26.7198 9.35589 26.45 9.32996H21.55Z" fill="#428FE1"/>
<path d="M12.6599 20.12H11.3899C11.191 20.12 11.0002 20.041 10.8596 19.9003C10.7189 19.7597 10.6399 19.5689 10.6399 19.37C10.6399 19.1711 10.7189 18.9803 10.8596 18.8397C11.0002 18.699 11.191 18.62 11.3899 18.62H12.6599C12.8588 18.62 13.0496 18.699 13.1902 18.8397C13.3309 18.9803 13.4099 19.1711 13.4099 19.37C13.4099 19.5689 13.3309 19.7597 13.1902 19.9003C13.0496 20.041 12.8588 20.12 12.6599 20.12Z" fill="#428FE1"/>
<path d="M36.6101 20.12H35.3401C35.1412 20.12 34.9504 20.041 34.8098 19.9003C34.6691 19.7597 34.5901 19.5689 34.5901 19.37C34.5901 19.1711 34.6691 18.9803 34.8098 18.8397C34.9504 18.699 35.1412 18.62 35.3401 18.62H36.6101C36.809 18.62 36.9998 18.699 37.1404 18.8397C37.2811 18.9803 37.3601 19.1711 37.3601 19.37C37.3601 19.5689 37.2811 19.7597 37.1404 19.9003C36.9998 20.041 36.809 20.12 36.6101 20.12Z" fill="#428FE1"/>
</svg>
