<svg width="32" height="32" viewBox="0 0 32 32" fill="none" xmlns="http://www.w3.org/2000/svg">
<path d="M16 11.6667C13.6068 11.6667 11.6667 13.6068 11.6667 16C11.6667 18.3932 13.6068 20.3333 16 20.3333C18.3932 20.3333 20.3333 18.3932 20.3333 16C20.3333 13.6068 18.3932 11.6667 16 11.6667Z" fill="white"/>
<path fill-rule="evenodd" clip-rule="evenodd" d="M10.8 3C6.49218 3 3 6.49218 3 10.8V21.2C3 25.5079 6.49218 29 10.8 29H21.2C25.5079 29 29 25.5079 29 21.2V10.8C29 6.49218 25.5079 3 21.2 3H10.8ZM9.93333 16C9.93333 12.6495 12.6495 9.93333 16 9.93333C19.3505 9.93333 22.0667 12.6495 22.0667 16C22.0667 19.3505 19.3505 22.0667 16 22.0667C12.6495 22.0667 9.93333 19.3505 9.93333 16ZM22.0667 9.93333H23.8V8.2H22.0667V9.93333Z" fill="white"/>
</svg>
