<svg width="48" height="48" viewBox="0 0 48 48" fill="none" xmlns="http://www.w3.org/2000/svg">
<path d="M7.06006 33.48C6.86115 33.48 6.67038 33.4009 6.52973 33.2603C6.38908 33.1196 6.31006 32.9289 6.31006 32.73V9.19996C6.31005 8.30526 6.66479 7.44705 7.2965 6.81347C7.92821 6.17988 8.78536 5.82261 9.68006 5.81996H29.0001C29.4448 5.81865 29.8854 5.9051 30.2966 6.07437C30.7078 6.24364 31.0816 6.4924 31.3965 6.8064C31.7115 7.12039 31.9613 7.49344 32.1318 7.90418C32.3023 8.31491 32.3901 8.75525 32.3901 9.19996V13.78C32.3901 13.9789 32.311 14.1696 32.1704 14.3103C32.0297 14.4509 31.839 14.53 31.6401 14.53C31.4411 14.53 31.2504 14.4509 31.1097 14.3103C30.9691 14.1696 30.8901 13.9789 30.8901 13.78V9.19996C30.8901 8.95223 30.8411 8.70695 30.746 8.4782C30.6509 8.24945 30.5115 8.04176 30.3359 7.86705C30.1603 7.69235 29.9518 7.55408 29.7226 7.46019C29.4933 7.3663 29.2478 7.31864 29.0001 7.31996H9.68006C9.18319 7.3226 8.70757 7.52184 8.35716 7.87412C8.00675 8.22641 7.81005 8.70308 7.81006 9.19996V32.73C7.80747 32.9281 7.72762 33.1173 7.58752 33.2574C7.44743 33.3975 7.25817 33.4774 7.06006 33.48Z" fill="#428FE1"/>
<path d="M29.0001 42.18H9.68006C8.78536 42.1773 7.92821 41.82 7.2965 41.1865C6.66479 40.5529 6.31005 39.6947 6.31006 38.8V36.45C6.31006 36.2511 6.38908 36.0603 6.52973 35.9196C6.67038 35.779 6.86115 35.7 7.06006 35.7C7.25897 35.7 7.44974 35.779 7.59039 35.9196C7.73104 36.0603 7.81006 36.2511 7.81006 36.45V38.8C7.81005 39.2968 8.00675 39.7735 8.35716 40.1258C8.70757 40.4781 9.18319 40.6773 9.68006 40.68H29.0001C29.4987 40.68 29.9769 40.4819 30.3294 40.1293C30.682 39.7768 30.8801 39.2986 30.8801 38.8V34.09C30.8801 33.8911 30.9591 33.7003 31.0997 33.5596C31.2404 33.419 31.4311 33.34 31.6301 33.34C31.829 33.34 32.0197 33.419 32.1604 33.5596C32.301 33.7003 32.3801 33.8911 32.3801 34.09V38.8C32.3801 39.6964 32.024 40.5561 31.3901 41.19C30.7562 41.8239 29.8965 42.18 29.0001 42.18Z" fill="#428FE1"/>
<path d="M16.5599 20.77H10.1599C10.0597 20.77 9.96055 20.75 9.86823 20.7111C9.7759 20.6721 9.69232 20.6151 9.62241 20.5433C9.55249 20.4715 9.49767 20.3865 9.46118 20.2932C9.42469 20.1998 9.40726 20.1002 9.40993 20V17.8C9.41257 16.8911 9.77479 16.0202 10.4175 15.3775C11.0602 14.7349 11.9311 14.3726 12.8399 14.37H13.8399C14.7488 14.3726 15.6197 14.7349 16.2624 15.3775C16.9051 16.0202 17.2673 16.8911 17.2699 17.8V20C17.2754 20.1956 17.2043 20.3856 17.0716 20.5295C16.939 20.6733 16.7553 20.7596 16.5599 20.77ZM10.9099 19.27H15.8099V17.82C15.8099 17.3081 15.6066 16.8172 15.2447 16.4553C14.8827 16.0933 14.3918 15.89 13.8799 15.89H12.8799C12.3681 15.89 11.8772 16.0933 11.5152 16.4553C11.1533 16.8172 10.9499 17.3081 10.9499 17.82L10.9099 19.27Z" fill="#428FE1"/>
<path d="M13.3599 15.07C12.7266 15.072 12.1069 14.886 11.5794 14.5356C11.0518 14.1852 10.6401 13.6861 10.3964 13.1016C10.1526 12.517 10.0878 11.8733 10.2102 11.2519C10.3325 10.6305 10.6365 10.0594 11.0836 9.61085C11.5308 9.16232 12.1009 8.85655 12.7219 8.73227C13.3429 8.60798 13.9869 8.67077 14.5722 8.91267C15.1575 9.15457 15.6578 9.56472 16.0099 10.0912C16.362 10.6176 16.5499 11.2367 16.5499 11.87C16.5499 12.717 16.2141 13.5294 15.6162 14.1292C15.0182 14.7291 14.2069 15.0674 13.3599 15.07ZM13.3599 10.18C13.0228 10.1781 12.6928 10.2763 12.4117 10.4624C12.1306 10.6484 11.9112 10.9138 11.7813 11.2248C11.6513 11.5359 11.6168 11.8785 11.6821 12.2092C11.7474 12.5399 11.9095 12.8437 12.1479 13.0821C12.3862 13.3204 12.69 13.4825 13.0207 13.5478C13.3514 13.6131 13.6941 13.5786 14.0051 13.4487C14.3161 13.3188 14.5815 13.0993 14.7676 12.8182C14.9536 12.5372 15.0519 12.2071 15.0499 11.87C15.0499 11.4218 14.8719 10.992 14.5549 10.675C14.238 10.3581 13.8081 10.18 13.3599 10.18Z" fill="#428FE1"/>
<path d="M19.35 24.13H9.70996C9.51105 24.13 9.32028 24.051 9.17963 23.9103C9.03898 23.7697 8.95996 23.5789 8.95996 23.38C8.95996 23.1811 9.03898 22.9903 9.17963 22.8497C9.32028 22.709 9.51105 22.63 9.70996 22.63H19.35C19.5489 22.63 19.7396 22.709 19.8803 22.8497C20.0209 22.9903 20.1 23.1811 20.1 23.38C20.1 23.5789 20.0209 23.7697 19.8803 23.9103C19.7396 24.051 19.5489 24.13 19.35 24.13Z" fill="#428FE1"/>
<path d="M19.35 27.75H9.70996C9.51105 27.75 9.32028 27.671 9.17963 27.5303C9.03898 27.3897 8.95996 27.1989 8.95996 27C8.95996 26.8011 9.03898 26.6103 9.17963 26.4697C9.32028 26.329 9.51105 26.25 9.70996 26.25H19.35C19.5489 26.25 19.7396 26.329 19.8803 26.4697C20.0209 26.6103 20.1 26.8011 20.1 27C20.1 27.1989 20.0209 27.3897 19.8803 27.5303C19.7396 27.671 19.5489 27.75 19.35 27.75Z" fill="#428FE1"/>
<path d="M22.32 31.37H9.70996C9.51105 31.37 9.32028 31.291 9.17963 31.1503C9.03898 31.0097 8.95996 30.8189 8.95996 30.62C8.95996 30.4211 9.03898 30.2303 9.17963 30.0897C9.32028 29.949 9.51105 29.87 9.70996 29.87H22.32C22.5189 29.87 22.7096 29.949 22.8503 30.0897C22.9909 30.2303 23.07 30.4211 23.07 30.62C23.07 30.8189 22.9909 31.0097 22.8503 31.1503C22.7096 31.291 22.5189 31.37 22.32 31.37Z" fill="#428FE1"/>
<path d="M28 35H9.70996C9.51105 35 9.32028 34.921 9.17963 34.7803C9.03898 34.6397 8.95996 34.4489 8.95996 34.25C8.95996 34.0511 9.03898 33.8603 9.17963 33.7197C9.32028 33.579 9.51105 33.5 9.70996 33.5H28C28.1989 33.5 28.3896 33.579 28.5303 33.7197C28.6709 33.8603 28.75 34.0511 28.75 34.25C28.75 34.4489 28.6709 34.6397 28.5303 34.7803C28.3896 34.921 28.1989 35 28 35Z" fill="#428FE1"/>
<path d="M28 38.29H9.70996C9.51105 38.29 9.32028 38.211 9.17963 38.0704C9.03898 37.9297 8.95996 37.739 8.95996 37.54C8.95996 37.3411 9.03898 37.1504 9.17963 37.0097C9.32028 36.8691 9.51105 36.79 9.70996 36.79H28C28.1989 36.79 28.3896 36.8691 28.5303 37.0097C28.6709 37.1504 28.75 37.3411 28.75 37.54C28.75 37.739 28.6709 37.9297 28.5303 38.0704C28.3896 38.211 28.1989 38.29 28 38.29Z" fill="#428FE1"/>
<path d="M33.8401 36.4999L33.4401 36.2499C31.1534 34.802 29.2715 32.7976 27.9703 30.4243C26.6691 28.051 25.9912 25.3865 26.0001 22.6799V15.4799L33.8501 12.5699L41.7001 15.4799V18.8899C41.7001 19.0889 41.6211 19.2796 41.4804 19.4203C41.3398 19.5609 41.149 19.6399 40.9501 19.6399C40.7512 19.6399 40.5604 19.5609 40.4198 19.4203C40.2791 19.2796 40.2001 19.0889 40.2001 18.8899V16.5199L33.8501 14.1699L27.5001 16.5199V22.6799C27.498 25.0466 28.0757 27.3778 29.1827 29.4697C30.2896 31.5615 31.8921 33.3504 33.8501 34.6799C35.808 33.3504 37.4105 31.5615 38.5175 29.4697C39.6244 27.3778 40.2021 25.0466 40.2001 22.6799C40.2001 22.481 40.2791 22.2903 40.4198 22.1496C40.5604 22.009 40.7512 21.9299 40.9501 21.9299C41.149 21.9299 41.3398 22.009 41.4804 22.1496C41.6211 22.2903 41.7001 22.481 41.7001 22.6799C41.7079 25.3874 41.0285 28.0526 39.7255 30.4259C38.4225 32.7993 36.5386 34.8031 34.2501 36.2499L33.8401 36.4999Z" fill="#428FE1"/>
<path d="M33.84 31.7801L33.44 31.5201C32.077 30.6611 30.9545 29.47 30.1778 28.0584C29.4012 26.6469 28.9959 25.0612 29 23.4501V19.09L33.83 17.3L38.66 19.09V23.4501C38.6661 25.0604 38.2628 26.6459 37.4879 28.0575C36.7129 29.4691 35.5919 30.6606 34.23 31.5201L33.84 31.7801ZM30.51 20.13V23.4501C30.5013 24.7285 30.7992 25.9904 31.3785 27.13C31.9579 28.2696 32.802 29.2538 33.84 30C34.8753 29.2557 35.7177 28.2748 36.2969 27.1389C36.8762 26.003 37.1755 24.7451 37.17 23.47V20.13L33.84 18.89L30.51 20.13Z" fill="#428FE1"/>
<path d="M35.8701 24.21H31.8101C31.6111 24.21 31.4204 24.1309 31.2797 23.9903C31.1391 23.8496 31.0601 23.6589 31.0601 23.46C31.0601 23.261 31.1391 23.0703 31.2797 22.9296C31.4204 22.789 31.6111 22.71 31.8101 22.71H35.8701C36.069 22.71 36.2597 22.789 36.4004 22.9296C36.541 23.0703 36.6201 23.261 36.6201 23.46C36.6201 23.6589 36.541 23.8496 36.4004 23.9903C36.2597 24.1309 36.069 24.21 35.8701 24.21Z" fill="#428FE1"/>
<path d="M33.8401 26.24C33.6412 26.24 33.4504 26.161 33.3098 26.0203C33.1691 25.8797 33.0901 25.6889 33.0901 25.49V21.49C33.0901 21.2911 33.1691 21.1003 33.3098 20.9597C33.4504 20.819 33.6412 20.74 33.8401 20.74C34.039 20.74 34.2298 20.819 34.3704 20.9597C34.5111 21.1003 34.5901 21.2911 34.5901 21.49V25.49C34.5901 25.6889 34.5111 25.8797 34.3704 26.0203C34.2298 26.161 34.039 26.24 33.8401 26.24Z" fill="#428FE1"/>
</svg>
