<svg width="48" height="48" viewBox="0 0 48 48" fill="none" xmlns="http://www.w3.org/2000/svg">
<path d="M32.7399 37.66H27.0699C26.5395 37.66 26.0308 37.4493 25.6557 37.0742C25.2806 36.6991 25.0699 36.1904 25.0699 35.66V33.08C25.0658 32.5791 25.1872 32.0852 25.4231 31.6432C25.6589 31.2013 26.0016 30.8255 26.4199 30.55L28.1199 29.42C29.3091 28.629 30.3289 27.6092 31.1199 26.42L33.5099 22.81C33.8093 22.3584 34.2555 22.0241 34.7731 21.8638C35.2906 21.7034 35.8477 21.7268 36.3499 21.93L36.6299 22.04C36.7307 22.0792 36.8421 22.0816 36.9445 22.0469C37.0469 22.0122 37.1338 21.9424 37.1899 21.85L39.4499 18C39.7613 17.4948 40.2522 17.1261 40.8242 16.9679C41.3961 16.8098 42.0068 16.8739 42.5334 17.1473C43.0601 17.4208 43.4638 17.8834 43.6635 18.4422C43.8632 19.001 43.844 19.6147 43.6099 20.16L40.7599 26.53C40.6777 26.7117 40.5267 26.8532 40.3401 26.9236C40.1535 26.9939 39.9466 26.9872 39.7649 26.905C39.5832 26.8228 39.4417 26.6718 39.3714 26.4852C39.301 26.2986 39.3077 26.0917 39.3899 25.91L42.2399 19.54C42.3447 19.3424 42.3667 19.1113 42.301 18.8975C42.2354 18.6837 42.0875 18.5048 41.8899 18.4C41.6923 18.2952 41.4612 18.2732 41.2474 18.3389C41.0336 18.4045 40.8547 18.5524 40.7499 18.75L38.5499 22.54C38.3071 22.9393 37.9321 23.2409 37.49 23.3925C37.0479 23.5442 36.5667 23.5362 36.1299 23.37L35.8499 23.26C35.6724 23.1944 35.4781 23.1892 35.2973 23.2453C35.1165 23.3013 34.9593 23.4155 34.8499 23.57L32.4599 27.19C31.5495 28.5686 30.3732 29.7517 28.9999 30.67L27.2999 31.8C27.0865 31.938 26.9113 32.1277 26.7907 32.3515C26.6701 32.5752 26.6079 32.8258 26.6099 33.08V35.69C26.6099 35.8129 26.658 35.931 26.744 36.0188C26.83 36.1067 26.947 36.1574 27.0699 36.16H31.9899C31.9903 35.8998 32.0467 35.6427 32.1555 35.4063C32.2642 35.1698 32.4226 34.9596 32.6199 34.79L34.3999 33.25C35.7566 32.0814 36.8972 30.6835 37.7699 29.12C37.869 28.9507 38.0305 28.8269 38.2197 28.7753C38.409 28.7236 38.6109 28.7482 38.7823 28.8437C38.9537 28.9391 39.0808 29.098 39.1364 29.2861C39.1921 29.4742 39.1718 29.6767 39.0799 29.85C38.1174 31.5652 36.8656 33.1011 35.3799 34.39L33.5999 35.9C33.5656 35.9299 33.538 35.9667 33.519 36.0081C33.5001 36.0495 33.4901 36.0945 33.4899 36.14V36.91C33.4873 37.1081 33.4075 37.2974 33.2674 37.4375C33.1273 37.5776 32.938 37.6574 32.7399 37.66Z" fill="#428FE1"/>
<path d="M34.82 29.51C34.7279 29.5079 34.6368 29.491 34.55 29.46C34.4544 29.4248 34.367 29.3705 34.2931 29.3005C34.2192 29.2304 34.1603 29.146 34.1201 29.0524C34.0798 28.9589 34.0591 28.8581 34.0591 28.7562C34.0591 28.6544 34.0798 28.5536 34.12 28.46L36.32 22.65C36.3552 22.5544 36.4095 22.467 36.4796 22.3931C36.5496 22.3192 36.634 22.2603 36.7276 22.2201C36.8212 22.1798 36.922 22.1591 37.0238 22.1591C37.1257 22.159 37.2265 22.1798 37.32 22.22C37.4175 22.2527 37.5069 22.3055 37.5825 22.3751C37.6581 22.4447 37.7181 22.5294 37.7587 22.6238C37.7993 22.7182 37.8195 22.8201 37.818 22.9228C37.8165 23.0256 37.7934 23.1268 37.75 23.22L35.52 29C35.4692 29.1462 35.3749 29.2733 35.2498 29.3645C35.1247 29.4556 34.9748 29.5064 34.82 29.51Z" fill="#428FE1"/>
<path d="M33.92 40.88H25.7C25.4795 40.8854 25.2602 40.8467 25.0548 40.7663C24.8494 40.6859 24.6621 40.5653 24.5038 40.4117C24.3456 40.2581 24.2195 40.0745 24.133 39.8716C24.0465 39.6687 24.0013 39.4506 24 39.23V37.81C24.0026 37.3715 24.1787 36.9518 24.4897 36.6427C24.8007 36.3335 25.2215 36.16 25.66 36.16H33.88C34.3176 36.16 34.7373 36.3339 35.0467 36.6433C35.3562 36.9527 35.53 37.3724 35.53 37.81V39.23C35.5301 39.6608 35.3618 40.0745 35.061 40.3828C34.7601 40.6912 34.3506 40.8696 33.92 40.88ZM25.7 37.66C25.6592 37.66 25.62 37.6754 25.5903 37.7033C25.5605 37.7312 25.5425 37.7694 25.54 37.81V39.23C25.54 39.2506 25.5441 39.271 25.5523 39.2898C25.5605 39.3087 25.5724 39.3257 25.5874 39.3398C25.6024 39.3539 25.6202 39.3647 25.6395 39.3716C25.6589 39.3785 25.6795 39.3814 25.7 39.38H33.92C33.9598 39.38 33.9979 39.3642 34.0261 39.3361C34.0542 39.308 34.07 39.2698 34.07 39.23V37.81C34.07 37.7703 34.0542 37.7321 34.0261 37.704C33.9979 37.6758 33.9598 37.66 33.92 37.66H25.7Z" fill="#428FE1"/>
<path d="M20.9299 37.66H15.2599C15.0618 37.6574 14.8725 37.5776 14.7324 37.4375C14.5923 37.2974 14.5125 37.1081 14.5099 36.91V36.14C14.5097 36.0945 14.4998 36.0495 14.4808 36.0082C14.4618 35.9668 14.4342 35.9299 14.3999 35.9L12.6199 34.37C10.8101 32.8047 9.35448 30.8718 8.34988 28.7L4.34988 20.19C4.20608 19.9142 4.11801 19.6129 4.0907 19.303C4.06338 18.9932 4.09735 18.6811 4.19068 18.3844C4.284 18.0877 4.43484 17.8123 4.6346 17.5739C4.83435 17.3355 5.07911 17.1388 5.35488 16.995C5.91184 16.7046 6.56134 16.6473 7.16052 16.8358C7.7597 17.0243 8.25947 17.4431 8.54988 18L10.7499 21.79C10.806 21.8825 10.8929 21.9522 10.9953 21.9869C11.0977 22.0217 11.2091 22.0192 11.3099 21.98L11.5899 21.87C12.0921 21.6668 12.6492 21.6434 13.1667 21.8038C13.6843 21.9642 14.1305 22.2984 14.4299 22.75L16.8199 26.36C17.6109 27.5492 18.6307 28.569 19.8199 29.36L21.5199 30.49C21.9382 30.7655 22.2809 31.1414 22.5168 31.5833C22.7526 32.0252 22.874 32.5191 22.8699 33.02V35.63C22.878 36.1554 22.679 36.6629 22.316 37.0427C21.953 37.4226 21.4551 37.6443 20.9299 37.66ZM15.9999 36.16H20.9199C21.0428 36.1574 21.1598 36.1067 21.2458 36.0189C21.3318 35.931 21.3799 35.813 21.3799 35.69V33.08C21.3819 32.8258 21.3197 32.5753 21.1991 32.3515C21.0785 32.1277 20.9033 31.9381 20.6899 31.8L18.9999 30.67C17.6367 29.7584 16.4675 28.5859 15.5599 27.22L13.1799 23.6C13.0705 23.4455 12.9133 23.3314 12.7325 23.2753C12.5517 23.2193 12.3574 23.2244 12.1799 23.29L11.9099 23.4C11.4718 23.5689 10.9883 23.5783 10.5441 23.4265C10.0998 23.2748 9.7231 22.9716 9.47988 22.57L7.27988 18.78C7.17268 18.5957 6.99936 18.459 6.79508 18.3977C6.59081 18.3364 6.37087 18.3551 6.17988 18.45C5.9825 18.5473 5.83052 18.7173 5.75592 18.9243C5.68132 19.1313 5.68991 19.3592 5.77988 19.56L9.77988 28.07C10.6936 30.0478 12.02 31.8072 13.6699 33.23L15.4499 34.77C15.6327 34.9469 15.7761 35.1603 15.8709 35.3964C15.9657 35.6325 16.0096 35.8858 15.9999 36.14V36.16Z" fill="#428FE1"/>
<path d="M13.18 29.51C13.0288 29.5087 12.8814 29.4623 12.7567 29.3768C12.632 29.2913 12.5357 29.1706 12.48 29.03L10.28 23.21C10.2367 23.1168 10.2135 23.0156 10.212 22.9128C10.2105 22.8101 10.2307 22.7082 10.2713 22.6138C10.3119 22.5194 10.3719 22.4347 10.4475 22.3651C10.5231 22.2955 10.6126 22.2426 10.71 22.21C10.8036 22.1698 10.9044 22.149 11.0062 22.149C11.1081 22.1491 11.2088 22.1698 11.3024 22.21C11.396 22.2503 11.4804 22.3092 11.5505 22.3831C11.6205 22.457 11.6748 22.5444 11.71 22.64L13.91 28.45C13.9502 28.5436 13.9709 28.6444 13.9709 28.7462C13.9709 28.8481 13.9502 28.9489 13.9099 29.0424C13.8697 29.136 13.8108 29.2204 13.7369 29.2905C13.663 29.3605 13.5756 29.4148 13.48 29.45C13.3844 29.4878 13.2828 29.5081 13.18 29.51Z" fill="#428FE1"/>
<path d="M22.2999 40.88H14.0799C13.6423 40.88 13.2226 40.7062 12.9132 40.3968C12.6038 40.0873 12.4299 39.6676 12.4299 39.23V37.81C12.4299 37.3724 12.6038 36.9527 12.9132 36.6433C13.2226 36.3339 13.6423 36.16 14.0799 36.16H22.2999C22.5204 36.1547 22.7398 36.1934 22.9452 36.2738C23.1505 36.3542 23.3378 36.4747 23.4961 36.6284C23.6544 36.782 23.7804 36.9656 23.867 37.1685C23.9535 37.3714 23.9987 37.5895 23.9999 37.81V39.23C23.9987 39.4506 23.9535 39.6687 23.867 39.8716C23.7804 40.0745 23.6544 40.2581 23.4961 40.4117C23.3378 40.5653 23.1505 40.6858 22.9452 40.7663C22.7398 40.8467 22.5204 40.8853 22.2999 40.88ZM14.0799 37.66C14.0401 37.66 14.002 37.6758 13.9739 37.704C13.9457 37.7321 13.9299 37.7702 13.9299 37.81V39.23C13.9299 39.2698 13.9457 39.308 13.9739 39.3361C14.002 39.3642 14.0401 39.38 14.0799 39.38H22.2999C22.3205 39.3814 22.341 39.3785 22.3604 39.3716C22.3798 39.3647 22.3975 39.3539 22.4125 39.3398C22.4275 39.3257 22.4395 39.3087 22.4476 39.2898C22.4558 39.271 22.46 39.2506 22.4599 39.23V37.81C22.4574 37.7694 22.4394 37.7312 22.4097 37.7033C22.3799 37.6754 22.3407 37.6599 22.2999 37.66H14.0799Z" fill="#428FE1"/>
<path d="M24 26.6001C21.8747 26.6013 19.8074 25.9074 18.1132 24.6242C16.419 23.341 15.1911 21.5388 14.6167 19.4926C14.0422 17.4464 14.1528 15.2685 14.9316 13.291C15.7104 11.3135 17.1146 9.64506 18.93 8.54006C19.0971 8.44604 19.2938 8.41955 19.4798 8.46604C19.6658 8.51254 19.8269 8.62848 19.93 8.79006C20.0217 8.95766 20.0468 9.15361 20.0005 9.33892C19.9542 9.52422 19.8398 9.68529 19.68 9.79006C17.9703 10.813 16.6886 12.4201 16.0715 14.3145C15.4545 16.2089 15.5438 18.2626 16.323 20.0963C17.1022 21.9299 18.5187 23.4197 20.3108 24.2903C22.1029 25.1609 24.1495 25.3536 26.0725 24.8327C27.9956 24.3119 29.6653 23.1127 30.773 21.4567C31.8808 19.8007 32.3519 17.7998 32.0993 15.8235C31.8466 13.8472 30.8874 12.0292 29.3986 10.7051C27.9099 9.38099 25.9923 8.64039 24 8.62006C23.5313 8.6215 23.0633 8.65827 22.6 8.73006C22.4987 8.75891 22.3924 8.76609 22.2881 8.75112C22.1838 8.73616 22.0838 8.69938 21.9947 8.64319C21.9056 8.58699 21.8293 8.51265 21.7708 8.425C21.7123 8.33735 21.6729 8.23835 21.6553 8.13448C21.6376 8.0306 21.642 7.92416 21.6682 7.8221C21.6945 7.72005 21.7419 7.62466 21.8074 7.54216C21.873 7.45966 21.9552 7.3919 22.0487 7.34329C22.1422 7.29469 22.2449 7.26632 22.35 7.26006C22.8947 7.1634 23.4469 7.11654 24 7.12006C26.5833 7.12006 29.0607 8.14623 30.8873 9.97284C32.7139 11.7994 33.74 14.2769 33.74 16.8601C33.74 19.4433 32.7139 21.9207 30.8873 23.7473C29.0607 25.5739 26.5833 26.6001 24 26.6001Z" fill="#428FE1"/>
<path d="M23.9999 23.2401C23.6387 23.2401 23.2811 23.1689 22.9475 23.0307C22.6139 22.8925 22.3107 22.69 22.0553 22.4346C21.8 22.1792 21.5974 21.8761 21.4592 21.5424C21.321 21.2088 21.2499 20.8512 21.2499 20.4901V19.6101H20.3799C19.6505 19.6101 18.9511 19.3203 18.4353 18.8046C17.9196 18.2889 17.6299 17.5894 17.6299 16.8601C17.6299 16.1307 17.9196 15.4312 18.4353 14.9155C18.9511 14.3998 19.6505 14.1101 20.3799 14.1101H21.2499V13.2301C21.2922 12.5281 21.6009 11.8687 22.1129 11.3866C22.6249 10.9046 23.3016 10.6361 24.0049 10.6361C24.7081 10.6361 25.3849 10.9046 25.8969 11.3866C26.4089 11.8687 26.7176 12.5281 26.7599 13.2301V14.1101H27.6399C28.3692 14.1101 29.0687 14.3998 29.5844 14.9155C30.1002 15.4312 30.3899 16.1307 30.3899 16.8601C30.3899 17.5894 30.1002 18.2889 29.5844 18.8046C29.0687 19.3203 28.3692 19.6101 27.6399 19.6101H26.7599V20.4901C26.7572 21.2203 26.4653 21.9198 25.948 22.4352C25.4307 22.9506 24.7302 23.2401 23.9999 23.2401ZM20.3799 15.6101C20.0484 15.6101 19.7304 15.7417 19.496 15.9762C19.2616 16.2106 19.1299 16.5285 19.1299 16.8601C19.1299 17.1916 19.2616 17.5095 19.496 17.7439C19.7304 17.9784 20.0484 18.1101 20.3799 18.1101H21.9999C22.198 18.1126 22.3873 18.1925 22.5273 18.3326C22.6674 18.4727 22.7473 18.6619 22.7499 18.8601V20.4901C22.7779 20.8036 22.9222 21.0952 23.1545 21.3077C23.3868 21.5201 23.6901 21.6379 24.0049 21.6379C24.3196 21.6379 24.623 21.5201 24.8553 21.3077C25.0875 21.0952 25.2319 20.8036 25.2599 20.4901V18.8601C25.2625 18.6619 25.3423 18.4727 25.4824 18.3326C25.6225 18.1925 25.8118 18.1126 26.0099 18.1101H27.6399C27.9714 18.1101 28.2893 17.9784 28.5238 17.7439C28.7582 17.5095 28.8899 17.1916 28.8899 16.8601C28.8899 16.5285 28.7582 16.2106 28.5238 15.9762C28.2893 15.7417 27.9714 15.6101 27.6399 15.6101H25.9999C25.8018 15.6075 25.6125 15.5276 25.4724 15.3875C25.3323 15.2474 25.2525 15.0582 25.2499 14.8601V13.2301C25.2219 12.9165 25.0775 12.6249 24.8453 12.4124C24.613 12.2 24.3096 12.0822 23.9949 12.0822C23.6801 12.0822 23.3768 12.2 23.1445 12.4124C22.9122 12.6249 22.7679 12.9165 22.7399 13.2301V14.8601C22.7373 15.0582 22.6574 15.2474 22.5173 15.3875C22.3773 15.5276 22.188 15.6075 21.9899 15.6101H20.3799Z" fill="#428FE1"/>
</svg>
