<svg width="48" height="48" viewBox="0 0 48 48" fill="none" xmlns="http://www.w3.org/2000/svg">
<path d="M39.36 27.49C39.1786 27.4906 39.0036 27.4228 38.87 27.3C38.7222 27.1674 38.6322 26.9823 38.6191 26.7842C38.606 26.5861 38.671 26.3908 38.8 26.24C39.4445 25.5557 40.0144 24.8048 40.5 24C41.7464 21.7484 42.0937 19.1084 41.4722 16.6111C40.8506 14.1139 39.3064 11.9446 37.15 10.54C35.8086 9.71434 34.2652 9.27488 32.69 9.26997C31.3254 9.28814 29.9835 9.62164 28.7692 10.2444C27.5549 10.8672 26.501 11.7624 25.69 12.86L24.61 14.3C24.5359 14.3866 24.4439 14.4561 24.3403 14.5037C24.2367 14.5514 24.1241 14.5761 24.01 14.5761C23.896 14.5761 23.7834 14.5514 23.6798 14.5037C23.5762 14.4561 23.4842 14.3866 23.41 14.3L22.33 12.86C21.519 11.7624 20.4652 10.8672 19.2509 10.2444C18.0365 9.62164 16.6946 9.28814 15.33 9.26997C13.7519 9.27613 12.2057 9.71543 10.86 10.54C9.59567 11.3471 8.53101 12.4306 7.74631 13.709C6.96162 14.9874 6.47736 16.4272 6.33004 17.92C6.32082 18.0194 6.29185 18.1159 6.24483 18.204C6.19781 18.292 6.13368 18.3698 6.05621 18.4328C5.97874 18.4957 5.88948 18.5426 5.79366 18.5706C5.69785 18.5986 5.59741 18.6072 5.49823 18.5958C5.39905 18.5845 5.30313 18.5535 5.21609 18.5047C5.12905 18.4558 5.05264 18.39 4.99133 18.3113C4.93003 18.2325 4.88508 18.1423 4.8591 18.0459C4.83312 17.9495 4.82664 17.8489 4.84004 17.75C4.99565 16.0282 5.54113 14.3645 6.43514 12.8849C7.32916 11.4052 8.54826 10.1485 10 9.20997C11.5793 8.23905 13.3962 7.72341 15.25 7.71997C16.8525 7.72849 18.4308 8.11077 19.8595 8.83642C21.2882 9.56206 22.5279 10.6111 23.48 11.9L23.97 12.55L24.46 11.9C25.4132 10.6122 26.6532 9.56405 28.0817 8.83853C29.5101 8.11301 31.0879 7.73005 32.69 7.71997C34.5409 7.72213 36.3549 8.23794 37.93 9.20997C40.4108 10.8195 42.1901 13.3088 42.9099 16.177C43.6298 19.0453 43.2368 22.0797 41.81 24.67C41.2775 25.5886 40.6472 26.4469 39.93 27.23C39.859 27.3113 39.7714 27.3766 39.6731 27.4214C39.5748 27.4663 39.4681 27.4896 39.36 27.49Z" fill="#428FE1"/>
<path d="M23.9999 40.28C23.6404 40.2766 23.2908 40.1613 22.9999 39.9501C19.6299 37.5301 8.62989 29.2801 6.11989 24.6701C5.62394 23.7729 5.24742 22.8148 4.99989 21.8201C4.95216 21.6264 4.98328 21.4218 5.08643 21.2511C5.18957 21.0805 5.35629 20.9578 5.54989 20.9101C5.7435 20.8623 5.94814 20.8934 6.1188 20.9966C6.28946 21.0997 6.41216 21.2664 6.45989 21.46C6.67985 22.3312 7.01621 23.1687 7.45989 23.9501C9.32989 27.4001 17.1499 33.8501 23.8499 38.7401C23.8907 38.7694 23.9397 38.7851 23.9899 38.7851C24.0401 38.7851 24.0891 38.7694 24.1299 38.7401C28.3658 35.7019 32.4133 32.4091 36.2499 28.88C36.3151 28.7906 36.3994 28.7166 36.4966 28.6635C36.5938 28.6105 36.7015 28.5796 36.8121 28.5731C36.9226 28.5666 37.0333 28.5847 37.136 28.6261C37.2387 28.6674 37.331 28.731 37.4063 28.8123C37.4815 28.8935 37.5378 28.9905 37.5712 29.0961C37.6045 29.2017 37.6141 29.3134 37.5991 29.4231C37.5842 29.5328 37.5451 29.6379 37.4847 29.7307C37.4243 29.8236 37.3441 29.9019 37.2499 29.96C33.3761 33.5545 29.285 36.9075 24.9999 40C24.7034 40.1942 24.3541 40.292 23.9999 40.28Z" fill="#428FE1"/>
<path d="M23.9999 31.79C23.1353 31.79 22.3061 31.4465 21.6948 30.8351C21.0834 30.2238 20.7399 29.3946 20.7399 28.53V27.25H19.4299C18.568 27.25 17.7413 26.9076 17.1318 26.2981C16.5223 25.6886 16.1799 24.8619 16.1799 24C16.1799 23.138 16.5223 22.3114 17.1318 21.7019C17.7413 21.0924 18.568 20.75 19.4299 20.75H20.6999V19.47C20.6999 18.6054 21.0434 17.7762 21.6548 17.1648C22.2661 16.5534 23.0953 16.21 23.9599 16.21C24.8245 16.21 25.6537 16.5534 26.2651 17.1648C26.8765 17.7762 27.2199 18.6054 27.2199 19.47V20.75H28.5099C29.3719 20.75 30.1985 21.0924 30.808 21.7019C31.4175 22.3114 31.7599 23.138 31.7599 24C31.7599 24.8619 31.4175 25.6886 30.808 26.2981C30.1985 26.9076 29.3719 27.25 28.5099 27.25H27.2199V28.53C27.22 29.3877 26.882 30.2109 26.2793 30.8211C25.6765 31.4313 24.8576 31.7794 23.9999 31.79ZM19.4699 22.25C19.0058 22.25 18.5607 22.4343 18.2325 22.7625C17.9043 23.0907 17.7199 23.5358 17.7199 24C17.7199 24.4641 17.9043 24.9092 18.2325 25.2374C18.5607 25.5656 19.0058 25.75 19.4699 25.75H21.4699C21.668 25.7525 21.8573 25.8324 21.9974 25.9725C22.1375 26.1126 22.2173 26.3019 22.2199 26.5V28.5C22.2199 28.9667 22.4054 29.4144 22.7354 29.7445C23.0655 30.0745 23.5131 30.26 23.9799 30.26C24.4467 30.26 24.8944 30.0745 25.2244 29.7445C25.5545 29.4144 25.7399 28.9667 25.7399 28.5V26.5C25.7399 26.301 25.8189 26.1103 25.9596 25.9696C26.1003 25.829 26.291 25.75 26.4899 25.75H28.4899C28.9541 25.75 29.3992 25.5656 29.7274 25.2374C30.0556 24.9092 30.2399 24.4641 30.2399 24C30.2399 23.5358 30.0556 23.0907 29.7274 22.7625C29.3992 22.4343 28.9541 22.25 28.4899 22.25H26.4899C26.291 22.25 26.1003 22.1709 25.9596 22.0303C25.8189 21.8896 25.7399 21.6989 25.7399 21.5V19.5C25.7399 19.0332 25.5545 18.5855 25.2244 18.2555C24.8944 17.9254 24.4467 17.74 23.9799 17.74C23.5131 17.74 23.0655 17.9254 22.7354 18.2555C22.4054 18.5855 22.2199 19.0332 22.2199 19.5V21.5C22.2173 21.6981 22.1375 21.8873 21.9974 22.0274C21.8573 22.1675 21.668 22.2474 21.4699 22.25H19.4699Z" fill="#428FE1"/>
</svg>
