<svg width="32" height="32" viewBox="0 0 32 32" fill="none" xmlns="http://www.w3.org/2000/svg">
<path d="M26.2727 13.6364C26.2727 21.9091 15.6364 29 15.6364 29C15.6364 29 5 21.9091 5 13.6364C5 10.8154 6.12061 8.11002 8.11532 6.11532C10.11 4.12061 12.8154 3 15.6364 3C18.4573 3 21.1627 4.12061 23.1574 6.11532C25.1521 8.11002 26.2727 10.8154 26.2727 13.6364Z" fill="white"/>
<path d="M15.6364 17.1822C17.5945 17.1822 19.1818 15.5949 19.1818 13.6368C19.1818 11.6787 17.5945 10.0913 15.6364 10.0913C13.6783 10.0913 12.0909 11.6787 12.0909 13.6368C12.0909 15.5949 13.6783 17.1822 15.6364 17.1822Z" fill="#1A467F"/>
</svg>
