<svg width="48" height="48" viewBox="0 0 48 48" fill="none" xmlns="http://www.w3.org/2000/svg">
<path d="M37.53 28.37C37.4313 28.3711 37.3335 28.3521 37.2424 28.3143C37.1514 28.2765 37.0689 28.2206 37 28.15C36.8595 28.0094 36.7806 27.8188 36.7806 27.62C36.7806 27.4213 36.8595 27.2307 37 27.09L39.87 24.19C40.4472 23.5644 40.9537 22.8769 41.38 22.14C42.5112 20.1064 42.8306 17.7199 42.2741 15.4604C41.7175 13.2008 40.3263 11.2357 38.38 9.96005C37.1794 9.21137 35.7948 8.80987 34.38 8.80005C33.1389 8.81051 31.9172 9.1096 30.8116 9.67367C29.706 10.2377 28.7469 11.0513 28.01 12.05L27.01 13.36C26.9378 13.4498 26.8464 13.5222 26.7426 13.5719C26.6388 13.6216 26.5251 13.6475 26.41 13.6475C26.2948 13.6475 26.1812 13.6216 26.0773 13.5719C25.9735 13.5222 25.8821 13.4498 25.81 13.36L24.81 12.05C24.069 11.0459 23.1035 10.2291 21.9905 9.66473C20.8775 9.10041 19.6479 8.8043 18.4 8.80005C16.9855 8.81297 15.6019 9.21424 14.4 9.96005C13.2583 10.6912 12.2966 11.6709 11.5867 12.8259C10.8767 13.9808 10.4369 15.2813 10.3 16.63C10.29 16.7288 10.2606 16.8245 10.2133 16.9118C10.1661 16.999 10.102 17.076 10.0248 17.1383C9.94765 17.2006 9.85886 17.247 9.76361 17.2748C9.66836 17.3025 9.56856 17.3111 9.46997 17.3C9.27274 17.275 9.09285 17.1746 8.96797 17.0199C8.84309 16.8651 8.78289 16.6681 8.79997 16.47C8.9619 14.8916 9.47981 13.3704 10.3147 12.0211C11.1496 10.6718 12.2797 9.52942 13.62 8.68005C15.0574 7.79214 16.7105 7.31488 18.4 7.30005C19.8796 7.30272 21.338 7.65243 22.6579 8.32108C23.9778 8.98973 25.1225 9.95867 26 11.15L26.4 11.67L26.79 11.15C27.6599 9.97003 28.7919 9.0081 30.0969 8.34001C31.4018 7.67192 32.844 7.31592 34.31 7.30005C36.0133 7.30599 37.6816 7.78366 39.13 8.68005C41.404 10.1576 43.0348 12.4406 43.6952 15.0708C44.3555 17.701 43.9964 20.4837 42.69 22.86C42.2137 23.7025 41.6471 24.4905 41 25.21L38.1 28.15C38.0261 28.2252 37.937 28.2837 37.8387 28.3216C37.7404 28.3596 37.6352 28.3761 37.53 28.37Z" fill="#428FE1"/>
<path d="M30.2901 34.41C30.1746 34.4104 30.0606 34.3845 29.9566 34.3342C29.8526 34.284 29.7615 34.2107 29.6901 34.12C29.5847 33.9658 29.5407 33.7778 29.5666 33.5929C29.5925 33.4079 29.6864 33.2393 29.8301 33.12C32.491 31.1011 35.0477 28.9484 37.4901 26.67C37.6388 26.5734 37.817 26.5327 37.9929 26.5551C38.1688 26.5774 38.3312 26.6614 38.4511 26.7921C38.5709 26.9227 38.6407 27.0917 38.6478 27.2689C38.6549 27.4461 38.5991 27.6201 38.4901 27.76C36.006 30.0739 33.406 32.26 30.7001 34.31C30.576 34.3824 30.4335 34.4171 30.2901 34.41Z" fill="#428FE1"/>
<path d="M14.93 28.13C14.7373 28.1337 14.5507 28.0619 14.41 27.93C12.7019 26.4629 11.2163 24.755 10 22.86C9.55709 22.0361 9.22104 21.159 9.00004 20.25C8.97615 20.1542 8.97144 20.0545 8.98617 19.9568C9.00091 19.8591 9.0348 19.7653 9.08591 19.6807C9.13702 19.5962 9.20433 19.5225 9.28398 19.4641C9.36363 19.4056 9.45405 19.3635 9.55004 19.34C9.64528 19.3163 9.7443 19.3117 9.84133 19.3265C9.93836 19.3414 10.0315 19.3754 10.1152 19.4266C10.199 19.4778 10.2717 19.5451 10.3292 19.6247C10.3867 19.7042 10.4278 19.7944 10.45 19.89C10.6427 20.6741 10.9351 21.4303 11.32 22.14C12.4619 23.8924 13.8456 25.4747 15.43 26.84C15.5705 26.9807 15.6494 27.1713 15.6494 27.37C15.6494 27.5688 15.5705 27.7594 15.43 27.9C15.298 28.0365 15.1196 28.1185 14.93 28.13Z" fill="#428FE1"/>
<path d="M17.8201 39.62C17.7537 39.6297 17.6864 39.6297 17.6201 39.62L9.30005 37.19C9.20477 37.1636 9.11574 37.1184 9.03822 37.057C8.9607 36.9956 8.89627 36.9193 8.84873 36.8326C8.80119 36.7459 8.7715 36.6506 8.76142 36.5522C8.75134 36.4539 8.76108 36.3545 8.79005 36.26C8.84801 36.0705 8.97766 35.9112 9.15138 35.8159C9.32509 35.7206 9.52915 35.697 9.72005 35.75L18.0001 38.15C18.0946 38.1776 18.1828 38.2235 18.2596 38.2851C18.3364 38.3468 18.4003 38.423 18.4477 38.5093C18.495 38.5957 18.5249 38.6905 18.5356 38.7885C18.5463 38.8864 18.5376 38.9854 18.5101 39.08C18.4675 39.2317 18.3777 39.3659 18.2536 39.4631C18.1295 39.5602 17.9776 39.6152 17.8201 39.62Z" fill="#428FE1"/>
<path d="M23.8501 40.6999C23.1816 40.7018 22.5136 40.6617 21.8501 40.5799C21.6525 40.5574 21.472 40.4572 21.3482 40.3016C21.2245 40.1459 21.1676 39.9475 21.1901 39.7499C21.2152 39.5535 21.3159 39.3745 21.471 39.2513C21.626 39.128 21.823 39.0701 22.0201 39.0899C24.4715 39.3693 26.9543 39.0713 29.2701 38.2199L37.2001 35.2899C37.4347 35.2063 37.6265 35.0329 37.7334 34.8079C37.8403 34.5829 37.8535 34.3247 37.7701 34.0899C37.7039 33.8842 37.5675 33.7083 37.3846 33.5931C37.2018 33.4779 36.9842 33.4308 36.7701 33.4599L28.1801 34.7999C27.6875 34.8901 27.1827 34.8901 26.6901 34.7999L20.6901 33.7999C20.4091 33.7531 20.1408 33.649 19.9017 33.4942C19.6626 33.3394 19.4578 33.1371 19.3001 32.8999C19.141 32.6595 19.0324 32.3893 18.9809 32.1057C18.9293 31.8221 18.9358 31.531 19.0001 31.2499C19.1222 30.7357 19.4345 30.2869 19.8743 29.9937C20.314 29.7005 20.8485 29.5849 21.3701 29.6699L25.6401 30.3699C25.9551 30.4163 26.2758 30.3377 26.5336 30.1508C26.7915 29.964 26.9661 29.6838 27.0201 29.3699C27.0573 29.2088 27.0595 29.0415 27.0268 28.8794C26.994 28.7173 26.9269 28.564 26.8301 28.4299C26.7279 28.306 26.6017 28.2039 26.4591 28.13C26.3164 28.0561 26.1603 28.0119 26.0001 27.9999L22.2201 27.4999C20.8182 27.2901 19.3905 27.3239 18.0001 27.5999L9.70009 29.3099C9.60417 29.3304 9.50516 29.3315 9.40879 29.3133C9.31243 29.2952 9.22064 29.258 9.13876 29.204C9.05687 29.1501 8.98654 29.0804 8.93183 28.999C8.87713 28.9176 8.83914 28.8261 8.82009 28.7299C8.79817 28.6333 8.79588 28.5333 8.81335 28.4358C8.83082 28.3383 8.8677 28.2452 8.92179 28.1622C8.97588 28.0792 9.04609 28.0079 9.12825 27.9526C9.21041 27.8972 9.30285 27.8589 9.40009 27.8399L17.7001 26.1299C19.2612 25.8174 20.8642 25.7734 22.4401 25.9999L26.2201 26.5099C26.5758 26.5581 26.918 26.678 27.226 26.8624C27.534 27.0468 27.8013 27.2919 28.0117 27.5827C28.2221 27.8735 28.3712 28.2041 28.45 28.5543C28.5288 28.9045 28.5356 29.267 28.4701 29.6199C28.413 29.9712 28.2872 30.3078 28.1 30.6105C27.9128 30.9132 27.6678 31.1761 27.379 31.3841C27.0902 31.5921 26.7633 31.7412 26.4169 31.8228C26.0705 31.9045 25.7114 31.9171 25.3601 31.8599L21.1001 31.1599C20.9521 31.1358 20.8005 31.1689 20.6761 31.2525C20.5517 31.336 20.4637 31.4639 20.4301 31.6099C20.4108 31.688 20.408 31.7692 20.4218 31.8484C20.4355 31.9275 20.4656 32.003 20.5101 32.0699C20.6042 32.2057 20.7478 32.2991 20.9101 32.3299L26.9101 33.3299C27.2398 33.399 27.5803 33.399 27.9101 33.3299L36.5301 31.9999C37.1317 31.9033 37.7477 32.0342 38.2579 32.3673C38.7682 32.7003 39.136 33.2115 39.2896 33.8011C39.4433 34.3907 39.3717 35.0164 39.0889 35.5561C38.8061 36.0958 38.3323 36.5107 37.7601 36.7199L29.8301 39.6599C27.9143 40.3588 25.8893 40.7109 23.8501 40.6999Z" fill="#428FE1"/>
<path d="M8.49 38.88H5.77C5.30138 38.8774 4.85269 38.6901 4.52132 38.3587C4.18995 38.0273 4.00263 37.5786 4 37.11V27.9C4.00264 27.4297 4.19134 26.9795 4.52487 26.6478C4.8584 26.3162 5.30964 26.13 5.78 26.13H8.49C8.95943 26.13 9.40964 26.3165 9.74158 26.6484C10.0735 26.9804 10.26 27.4306 10.26 27.9V37.11C10.26 37.5794 10.0735 38.0296 9.74158 38.3616C9.40964 38.6935 8.95943 38.88 8.49 38.88ZM5.77 27.63C5.69744 27.63 5.6277 27.6581 5.57546 27.7084C5.52323 27.7588 5.49259 27.8275 5.49 27.9V37.11C5.49259 37.1825 5.52323 37.2512 5.57546 37.3016C5.6277 37.3519 5.69744 37.3801 5.77 37.38H8.49C8.56161 37.38 8.63028 37.3516 8.68092 37.3009C8.73155 37.2503 8.76 37.1816 8.76 37.11V27.9C8.76 27.8284 8.73155 27.7597 8.68092 27.7091C8.63028 27.6585 8.56161 27.63 8.49 27.63H5.77Z" fill="#428FE1"/>
<path d="M26.8301 25.88C26.6682 25.8785 26.5111 25.8252 26.3816 25.7281C26.2521 25.631 26.157 25.495 26.1101 25.34L23.7401 17.39L22.2101 21.53C22.1584 21.6741 22.0633 21.7985 21.938 21.8863C21.8126 21.974 21.6631 22.0208 21.5101 22.02H15.1001C14.9012 22.02 14.7104 21.941 14.5698 21.8004C14.4291 21.6597 14.3501 21.469 14.3501 21.27C14.3501 21.0711 14.4291 20.8804 14.5698 20.7397C14.7104 20.5991 14.9012 20.52 15.1001 20.52H21.0001L23.1301 14.76C23.1806 14.6118 23.2762 14.4831 23.4035 14.3919C23.5308 14.3007 23.6835 14.2517 23.8401 14.2517C23.9967 14.2517 24.1494 14.3007 24.2767 14.3919C24.404 14.4831 24.4996 14.6118 24.5501 14.76L26.8001 22.28L27.2801 20.4C27.3203 20.2397 27.4131 20.0974 27.5436 19.9959C27.6741 19.8944 27.8348 19.8396 28.0001 19.84L33.0001 20C33.199 20 33.3898 20.0791 33.5304 20.2197C33.6711 20.3604 33.7501 20.5511 33.7501 20.75C33.7501 20.949 33.6711 21.1397 33.5304 21.2804C33.3898 21.421 33.199 21.5 33.0001 21.5L28.5601 21.37L27.5601 25.29C27.5192 25.449 27.4279 25.5904 27.2999 25.6931C27.1719 25.7959 27.0141 25.8544 26.8501 25.86L26.8301 25.88Z" fill="#428FE1"/>
</svg>
