<svg width="32" height="32" viewBox="0 0 32 32" fill="none" xmlns="http://www.w3.org/2000/svg">
<path d="M27.6807 22.7428V26.477C27.6821 26.8237 27.6111 27.1668 27.4722 27.4844C27.3333 27.8021 27.1296 28.0872 26.8742 28.3215C26.6188 28.5559 26.3172 28.7343 25.9888 28.8454C25.6604 28.9564 25.3124 28.9977 24.9672 28.9665C21.137 28.5503 17.4577 27.2415 14.2252 25.1452C11.2177 23.2341 8.6679 20.6843 6.75683 17.6768C4.65321 14.4296 3.34409 10.7325 2.93552 6.88501C2.90441 6.5408 2.94532 6.19389 3.05563 5.86636C3.16595 5.53883 3.34325 5.23785 3.57626 4.9826C3.80927 4.72734 4.09287 4.5234 4.40901 4.38376C4.72516 4.24412 5.06691 4.17183 5.41252 4.17151H9.14671C9.75078 4.16556 10.3364 4.37947 10.7944 4.77337C11.2524 5.16727 11.5516 5.71428 11.6362 6.31244C11.7938 7.50746 12.0861 8.68081 12.5075 9.81012C12.6749 10.2556 12.7112 10.7398 12.6119 11.2053C12.5126 11.6708 12.282 12.0981 11.9473 12.4365L10.3665 14.0173C12.1385 17.1335 14.7187 19.7137 17.8349 21.4857L19.4157 19.9049C19.7541 19.5702 20.1814 19.3396 20.6469 19.2403C21.1124 19.141 21.5966 19.1773 22.0421 19.3447C23.1714 19.7661 24.3447 20.0584 25.5398 20.216C26.1444 20.3013 26.6966 20.6059 27.0914 21.0718C27.4861 21.5377 27.6958 22.1324 27.6807 22.7428Z" fill="white"/>
<path d="M19.0298 7.90615C20.2456 8.14336 21.3629 8.73795 22.2388 9.61384C23.1147 10.4897 23.7093 11.6071 23.9465 12.8228M19.0298 2.92725C21.5557 3.20785 23.9112 4.33898 25.7094 6.13492C27.5075 7.93085 28.6416 10.2848 28.9254 12.8104" stroke="white" stroke-width="1.24473" stroke-linecap="round" stroke-linejoin="round"/>
</svg>
