<svg width="48" height="48" viewBox="0 0 48 48" fill="none" xmlns="http://www.w3.org/2000/svg">
<path d="M12.28 20.86C12.1229 20.8614 11.9693 20.8127 11.8417 20.721C11.714 20.6293 11.6189 20.4994 11.57 20.35C11.3214 19.5916 11.1965 18.7981 11.2 18V15.49C11.2 15.3915 11.2194 15.294 11.2571 15.203C11.2948 15.112 11.35 15.0293 11.4197 14.9597C11.4893 14.89 11.572 14.8348 11.663 14.7971C11.754 14.7594 11.8515 14.74 11.95 14.74C12.0485 14.74 12.146 14.7594 12.237 14.7971C12.328 14.8348 12.4107 14.89 12.4804 14.9597C12.55 15.0293 12.6052 15.112 12.6429 15.203C12.6806 15.294 12.7 15.3915 12.7 15.49V18C12.7025 18.6384 12.8037 19.2725 13 19.88C13.0312 19.9739 13.0436 20.073 13.0363 20.1717C13.0291 20.2703 13.0024 20.3666 12.9578 20.4549C12.9131 20.5432 12.8515 20.6218 12.7764 20.6862C12.7012 20.7506 12.6141 20.7994 12.52 20.83C12.4417 20.8506 12.361 20.8607 12.28 20.86Z" fill="#428FE1"/>
<path d="M20.7 25.55H18.7C17.0636 25.5459 15.4745 25.0009 14.18 24C14.0902 23.9456 14.0128 23.873 13.9528 23.7868C13.8928 23.7006 13.8516 23.6028 13.8318 23.4996C13.812 23.3965 13.8141 23.2904 13.8379 23.1881C13.8618 23.0858 13.9068 22.9897 13.9702 22.906C14.0335 22.8222 14.1137 22.7527 14.2057 22.7019C14.2976 22.6511 14.3991 22.6202 14.5038 22.6112C14.6084 22.6021 14.7137 22.6151 14.813 22.6494C14.9123 22.6836 15.0032 22.7384 15.08 22.81C16.1312 23.6121 17.4178 24.0445 18.74 24.04H20.74C22.3313 24.04 23.8574 23.4078 24.9827 22.2826C26.1079 21.1574 26.74 19.6313 26.74 18.04V15.49C26.74 15.2911 26.819 15.1003 26.9597 14.9597C27.1003 14.819 27.2911 14.74 27.49 14.74C27.6889 14.74 27.8797 14.819 28.0203 14.9597C28.161 15.1003 28.24 15.2911 28.24 15.49V18C28.24 20.0006 27.4459 21.9195 26.0322 23.3351C24.6185 24.7507 22.7007 25.5473 20.7 25.55Z" fill="#428FE1"/>
<path d="M10.7101 19.49C10.3347 19.4901 9.96382 19.409 9.62281 19.2522C9.2818 19.0954 8.97879 18.8666 8.7346 18.5815C8.49041 18.2965 8.31083 17.9619 8.2082 17.6009C8.10558 17.2398 8.08234 16.8609 8.14008 16.49C8.25759 15.8733 8.58866 15.3177 9.07512 14.9208C9.56159 14.524 10.1723 14.3112 10.8001 14.32H12.1601C12.1946 14.32 12.2276 14.3063 12.252 14.2819C12.2764 14.2575 12.2901 14.2245 12.2901 14.19V11.49C12.2901 11.2911 12.3691 11.1003 12.5098 10.9597C12.6504 10.819 12.8412 10.74 13.0401 10.74C13.239 10.74 13.4298 10.819 13.5704 10.9597C13.7111 11.1003 13.7901 11.2911 13.7901 11.49V14.19C13.7875 14.6215 13.6149 15.0346 13.3098 15.3397C13.0047 15.6448 12.5916 15.8174 12.1601 15.82H10.8001C10.5278 15.8089 10.2604 15.8941 10.0446 16.0605C9.82888 16.2269 9.67858 16.4639 9.62008 16.73C9.59722 16.8869 9.60825 17.0469 9.65242 17.1992C9.6966 17.3515 9.7729 17.4926 9.87618 17.6129C9.97946 17.7333 10.1073 17.8301 10.2512 17.8969C10.395 17.9636 10.5515 17.9988 10.7101 18C10.909 18 11.0998 18.079 11.2404 18.2197C11.3811 18.3603 11.4601 18.5511 11.4601 18.75C11.4601 18.9489 11.3811 19.1397 11.2404 19.2803C11.0998 19.421 10.909 19.5 10.7101 19.5V19.49Z" fill="#428FE1"/>
<path d="M28.7499 19.49C28.551 19.49 28.3602 19.411 28.2196 19.2703C28.0789 19.1297 27.9999 18.9389 27.9999 18.74C27.9999 18.5411 28.0789 18.3503 28.2196 18.2097C28.3602 18.069 28.551 17.99 28.7499 17.99C28.9086 17.9913 29.0656 17.9569 29.2093 17.8894C29.3529 17.8219 29.4796 17.723 29.5799 17.6C29.6857 17.4779 29.763 17.3338 29.8062 17.1781C29.8494 17.0225 29.8575 16.8592 29.8299 16.7C29.7714 16.4339 29.6211 16.1969 29.4054 16.0305C29.1896 15.8641 28.9222 15.7789 28.6499 15.79H28.1099C27.731 15.7891 27.3561 15.7113 27.0082 15.5613C26.6602 15.4114 26.3462 15.1923 26.0854 14.9174C25.8245 14.6425 25.6222 14.3176 25.4906 13.9622C25.359 13.6068 25.301 13.2285 25.3199 12.85C25.3454 12.1896 25.152 11.5392 24.7699 11L24.6599 10.84C24.5169 10.6365 24.3132 10.4834 24.0779 10.4026C23.8426 10.3217 23.5878 10.3173 23.3499 10.39C21.8567 10.8125 20.3118 11.0245 18.7599 11.02C13.7099 11.02 9.90991 9.2 9.90991 6.8V6.34L10.2799 6.12C10.4599 6.02 14.7299 3.55 18.1799 3.29C24.8999 2.8 26.4299 6.06 26.4999 6.2C26.5785 6.38343 26.5828 6.59022 26.5119 6.77676C26.441 6.96331 26.3005 7.11505 26.1199 7.2C25.938 7.2819 25.7312 7.28901 25.5441 7.21979C25.3571 7.15057 25.2047 7.01057 25.1199 6.83C25.1199 6.76 23.7999 4.38 18.2799 4.83C15.8954 5.2044 13.5984 6.00735 11.4999 7.2C12.0299 8.27 14.6999 9.53 18.7499 9.53C20.1629 9.53418 21.5696 9.34236 22.9299 8.96C23.4632 8.80233 24.0323 8.81383 24.5588 8.99291C25.0853 9.172 25.5433 9.50986 25.8699 9.96L25.9899 10.12C26.5674 10.9431 26.8525 11.9359 26.7999 12.94C26.7867 13.1226 26.8119 13.3059 26.8739 13.4781C26.9359 13.6504 27.0334 13.8077 27.1599 13.94C27.2802 14.069 27.4257 14.1719 27.5874 14.2424C27.7491 14.3129 27.9235 14.3496 28.0999 14.35H28.6399C29.2657 14.3428 29.8744 14.5548 30.3602 14.9494C30.8461 15.3439 31.1785 15.896 31.2999 16.51C31.3575 16.88 31.3345 17.2582 31.2325 17.6185C31.1304 17.9788 30.9517 18.3128 30.7087 18.5977C30.4656 18.8826 30.1638 19.1116 29.824 19.2691C29.4842 19.4265 29.1144 19.5087 28.7399 19.51L28.7499 19.49Z" fill="#428FE1"/>
<path d="M28.8099 15.79C28.6118 15.7874 28.4226 15.7076 28.2825 15.5675C28.1424 15.4274 28.0625 15.2381 28.0599 15.04V7.90001C28.0535 7.6448 27.9965 7.3934 27.8922 7.16037C27.7879 6.92735 27.6384 6.71732 27.4524 6.54247C27.2664 6.36762 27.0475 6.2314 26.8085 6.14172C26.5695 6.05204 26.315 6.01067 26.0599 6.02001H24.9199C24.721 6.02001 24.5302 5.941 24.3896 5.80034C24.2489 5.65969 24.1699 5.46893 24.1699 5.27001C24.1699 5.0711 24.2489 4.88034 24.3896 4.73968C24.5302 4.59903 24.721 4.52001 24.9199 4.52001H26.0799C26.9889 4.50931 27.8651 4.8588 28.5172 5.49213C29.1692 6.12546 29.5441 6.99114 29.5599 7.90001V15C29.5654 15.1018 29.55 15.2037 29.5147 15.2993C29.4795 15.395 29.4251 15.4825 29.3549 15.5564C29.2847 15.6303 29.2002 15.6892 29.1065 15.7294C29.0128 15.7695 28.9119 15.7902 28.8099 15.79Z" fill="#428FE1"/>
<path d="M10.62 15.71C10.4279 15.7103 10.2429 15.6368 10.1034 15.5047C9.96379 15.3726 9.88027 15.1919 9.87003 15V11.5C9.84345 10.3401 10.145 9.19615 10.74 8.20004C10.7871 8.1064 10.8533 8.02367 10.9343 7.95717C11.0153 7.89067 11.1093 7.84189 11.2103 7.81397C11.3113 7.78605 11.4171 7.77961 11.5207 7.79507C11.6244 7.81052 11.7237 7.84753 11.8121 7.90371C11.9006 7.95988 11.9763 8.03397 12.0344 8.12121C12.0925 8.20845 12.1317 8.30689 12.1494 8.41018C12.1671 8.51348 12.1629 8.61934 12.1372 8.72094C12.1115 8.82253 12.0647 8.91761 12 9.00004C11.5528 9.75942 11.3276 10.629 11.35 11.51V15C11.3513 15.0985 11.3333 15.1963 11.2968 15.2878C11.2603 15.3793 11.2062 15.4627 11.1374 15.5333C11.0687 15.6039 10.9868 15.6602 10.8963 15.6991C10.8058 15.738 10.7085 15.7587 10.61 15.76L10.62 15.71Z" fill="#428FE1"/>
<path d="M16.2901 42.13C16.1498 42.1318 16.0121 42.0931 15.8933 42.0186C15.7745 41.9441 15.6796 41.837 15.6201 41.71L11.8701 34.05C11.6861 33.6698 11.6085 33.2469 11.6455 32.8261C11.6824 32.4053 11.8326 32.0024 12.0801 31.66L12.7801 30.66L12.2401 29.75C12.0964 29.5085 12.0052 29.2394 11.9724 28.9603C11.9397 28.6812 11.9661 28.3983 12.0501 28.13C12.1473 27.877 12.2949 27.6463 12.484 27.4521C12.6731 27.2578 12.8997 27.104 13.1501 27L14.1501 26.56C14.3736 26.4608 14.6155 26.4095 14.8601 26.4095C15.1047 26.4095 15.3465 26.4608 15.5701 26.56C15.791 26.6648 15.9873 26.8152 16.1459 27.0014C16.3045 27.1876 16.4218 27.4052 16.4901 27.64L20.2401 40.78C20.2811 40.9666 20.2494 41.1618 20.1515 41.3258C20.0535 41.4898 19.8967 41.6103 19.713 41.6626C19.5293 41.7149 19.3325 41.6951 19.1628 41.6073C18.9932 41.5195 18.8634 41.3703 18.8001 41.19L15.0901 28C15.0712 27.9581 15.0398 27.9232 15.0001 27.9C14.9701 27.8871 14.9377 27.8804 14.9051 27.8804C14.8724 27.8804 14.8401 27.8871 14.8101 27.9L13.8101 28.34C13.7489 28.3675 13.6941 28.4075 13.6493 28.4575C13.6046 28.5074 13.5707 28.5662 13.5501 28.63C13.5222 28.6913 13.5077 28.7578 13.5077 28.825C13.5077 28.8923 13.5222 28.9588 13.5501 29.02L14.3601 30.35C14.4405 30.4735 14.4834 30.6177 14.4834 30.765C14.4834 30.9124 14.4405 31.0566 14.3601 31.18L13.3601 32.55C13.2755 32.6734 13.2246 32.8167 13.2123 32.9658C13.2 33.1148 13.2268 33.2645 13.2901 33.4L17.0001 41.05C17.0443 41.1379 17.0707 41.2336 17.0775 41.3317C17.0843 41.4298 17.0716 41.5283 17.0399 41.6214C17.0083 41.7145 16.9584 41.8004 16.8931 41.874C16.8279 41.9476 16.7487 42.0074 16.6601 42.05C16.547 42.1117 16.4185 42.1395 16.2901 42.13Z" fill="#428FE1"/>
<path d="M23.22 42.13C23.108 42.1332 22.9973 42.1056 22.9 42.05C22.8105 42.0083 22.7303 41.9491 22.664 41.8759C22.5978 41.8027 22.5468 41.717 22.5142 41.6238C22.4816 41.5306 22.4679 41.4318 22.4741 41.3333C22.4802 41.2347 22.506 41.1384 22.55 41.05L23.09 39.95C23.1317 39.8605 23.1909 39.7803 23.2641 39.7141C23.3373 39.6478 23.423 39.5969 23.5162 39.5643C23.6094 39.5316 23.7082 39.518 23.8067 39.5241C23.9052 39.5303 24.0016 39.5561 24.09 39.6C24.2688 39.6864 24.4061 39.8402 24.4717 40.0276C24.5374 40.2151 24.5259 40.421 24.44 40.6L23.9 41.7C23.8392 41.8289 23.7429 41.9378 23.6225 42.0139C23.5021 42.0901 23.3625 42.1303 23.22 42.13Z" fill="#428FE1"/>
<path d="M20.0001 41.7099H19.8001C19.6095 41.6563 19.4479 41.5294 19.3505 41.3571C19.2531 41.1847 19.2278 40.9809 19.2801 40.7899L23.0001 27.6199C23.0667 27.3858 23.1822 27.1684 23.3391 26.9822C23.496 26.7961 23.6906 26.6453 23.9101 26.5399C24.1338 26.4413 24.3756 26.3904 24.6201 26.3904C24.8645 26.3904 25.1063 26.4413 25.3301 26.5399L26.3301 26.9799C26.5866 27.0938 26.8164 27.2603 27.0043 27.4688C27.1923 27.6772 27.3343 27.9229 27.4211 28.1898C27.5078 28.4567 27.5375 28.739 27.508 29.0181C27.4785 29.2972 27.3906 29.567 27.2501 29.8099L26.7001 30.7199L27.4101 31.7199C27.6559 32.0632 27.8043 32.4666 27.8395 32.8874C27.8747 33.3081 27.7954 33.7306 27.6101 34.1099L26.2801 36.8299C26.2483 36.9378 26.1928 37.0371 26.1175 37.1206C26.0422 37.2041 25.9491 37.2696 25.8451 37.3122C25.7411 37.3549 25.6288 37.3736 25.5166 37.367C25.4044 37.3604 25.295 37.3287 25.1967 37.2742C25.0984 37.2196 25.0136 37.1437 24.9486 37.052C24.8836 36.9603 24.8401 36.8551 24.8212 36.7443C24.8023 36.6335 24.8086 36.5198 24.8395 36.4118C24.8705 36.3037 24.9254 36.204 25.0001 36.1199L26.3301 33.3899C26.3986 33.2558 26.4284 33.1051 26.416 32.955C26.4036 32.8048 26.3496 32.6611 26.2601 32.5399L25.2601 31.1699C25.1796 31.0465 25.1367 30.9023 25.1367 30.7549C25.1367 30.6076 25.1796 30.4634 25.2601 30.3399L26.0001 28.9999C26.0354 28.9422 26.0582 28.8775 26.0668 28.8103C26.0754 28.7431 26.0697 28.6748 26.0501 28.6099C26.0267 28.546 25.9907 28.4875 25.9444 28.4377C25.898 28.3878 25.8421 28.3478 25.7801 28.3199L24.7801 27.8799C24.7502 27.8664 24.7178 27.8594 24.6851 27.8594C24.6523 27.8594 24.6199 27.8664 24.5901 27.8799C24.5593 27.8903 24.5319 27.9088 24.5108 27.9334C24.4896 27.9581 24.4756 27.988 24.4701 28.0199L20.6701 41.1699C20.6286 41.3186 20.5417 41.4505 20.4216 41.5473C20.3015 41.6442 20.1541 41.701 20.0001 41.7099Z" fill="#428FE1"/>
<path d="M32.1901 42.75H5.19008C4.99724 42.7398 4.8155 42.6567 4.68177 42.5174C4.54804 42.3781 4.47235 42.1931 4.47008 42V36.76C4.45915 34.5386 5.284 32.3944 6.78086 30.753C8.27772 29.1117 10.3371 28.0932 12.5501 27.9C12.749 27.8814 12.9471 27.9426 13.1009 28.0702C13.2547 28.1977 13.3515 28.3811 13.3701 28.58C13.3886 28.7789 13.3274 28.977 13.1999 29.1308C13.0724 29.2846 12.889 29.3814 12.6901 29.4C10.8556 29.5654 9.15001 30.4135 7.91108 31.7765C6.67214 33.1395 5.99013 34.9181 6.00008 36.76V41.25H32.1901C32.389 41.25 32.5798 41.329 32.7204 41.4697C32.8611 41.6103 32.9401 41.8011 32.9401 42C32.9401 42.1989 32.8611 42.3897 32.7204 42.5303C32.5798 42.671 32.389 42.75 32.1901 42.75Z" fill="#428FE1"/>
<path d="M30.46 30.59C30.3189 30.5928 30.1799 30.5546 30.06 30.48C29.1307 29.9036 28.0861 29.5384 27 29.41C26.9007 29.4008 26.8041 29.3718 26.716 29.3248C26.628 29.2778 26.5502 29.2136 26.4873 29.1362C26.4243 29.0587 26.3775 28.9694 26.3495 28.8736C26.3215 28.7778 26.3129 28.6774 26.3242 28.5782C26.3355 28.479 26.3665 28.3831 26.4154 28.296C26.4642 28.209 26.53 28.1326 26.6088 28.0713C26.6875 28.01 26.7778 27.965 26.8741 27.9391C26.9705 27.9131 27.0711 27.9066 27.17 27.92C28.4818 28.0652 29.7435 28.5063 30.86 29.21C30.9956 29.2975 31.0992 29.4264 31.1557 29.5775C31.2122 29.7286 31.2184 29.8939 31.1735 30.0488C31.1286 30.2038 31.0349 30.3401 30.9064 30.4376C30.7779 30.5351 30.6214 30.5885 30.46 30.59Z" fill="#428FE1"/>
<path d="M15.43 27.8699C15.3311 27.8713 15.233 27.8528 15.1414 27.8156C15.0498 27.7784 14.9666 27.7232 14.8967 27.6533C14.8268 27.5834 14.7716 27.5001 14.7344 27.4085C14.6971 27.3169 14.6787 27.2188 14.68 27.1199V23.9399C14.68 23.741 14.759 23.5503 14.8997 23.4096C15.0403 23.269 15.2311 23.1899 15.43 23.1899C15.6289 23.1899 15.8197 23.269 15.9603 23.4096C16.101 23.5503 16.18 23.741 16.18 23.9399V27.1199C16.18 27.3189 16.101 27.5096 15.9603 27.6503C15.8197 27.7909 15.6289 27.8699 15.43 27.8699Z" fill="#428FE1"/>
<path d="M24 27.8699C23.8011 27.8699 23.6103 27.7909 23.4697 27.6503C23.329 27.5096 23.25 27.3189 23.25 27.1199V23.9399C23.25 23.741 23.329 23.5503 23.4697 23.4096C23.6103 23.269 23.8011 23.1899 24 23.1899C24.1989 23.1899 24.3897 23.269 24.5303 23.4096C24.671 23.5503 24.75 23.741 24.75 23.9399V27.1199C24.75 27.3189 24.671 27.5096 24.5303 27.6503C24.3897 27.7909 24.1989 27.8699 24 27.8699Z" fill="#428FE1"/>
<path d="M19.72 32.35C19.068 32.3748 18.4176 32.2681 17.8077 32.0362C17.1978 31.8042 16.6408 31.4518 16.17 31C16.0296 30.8594 15.9507 30.6688 15.9507 30.47C15.9507 30.2713 16.0296 30.0807 16.17 29.94C16.3119 29.802 16.5021 29.7247 16.7 29.7247C16.898 29.7247 17.0881 29.802 17.23 29.94C17.9051 30.5233 18.7789 30.8241 19.67 30.78C20.5699 30.8539 21.4631 30.5741 22.16 30C22.299 29.8832 22.4757 29.8207 22.6572 29.8242C22.8388 29.8277 23.0129 29.8969 23.1473 30.0191C23.2816 30.1412 23.3671 30.308 23.3879 30.4884C23.4086 30.6688 23.3632 30.8506 23.26 31C22.7911 31.4516 22.2359 31.8038 21.6276 32.0358C21.0193 32.2678 20.3705 32.3746 19.72 32.35Z" fill="#428FE1"/>
<path d="M11.7101 39.9201H7.00007C6.80116 39.9201 6.61039 39.841 6.46974 39.7004C6.32909 39.5597 6.25007 39.369 6.25007 39.1701V36.1101C6.24872 36.0112 6.2672 35.9131 6.30442 35.8215C6.34163 35.7299 6.39683 35.6466 6.46674 35.5767C6.53665 35.5068 6.61987 35.4516 6.71147 35.4144C6.80307 35.3772 6.9012 35.3587 7.00007 35.3601H11.6801C11.7789 35.3587 11.8771 35.3772 11.9687 35.4144C12.0603 35.4516 12.1435 35.5068 12.2134 35.5767C12.2833 35.6466 12.3385 35.7299 12.3757 35.8215C12.4129 35.9131 12.4314 36.0112 12.4301 36.1101V39.1701C12.4302 39.3639 12.3553 39.5502 12.2211 39.6901C12.0869 39.8299 11.9037 39.9123 11.7101 39.9201ZM7.78007 38.4201H11.0001V36.8601H7.78007V38.4201Z" fill="#428FE1"/>
<path d="M9.37012 37.2C9.17201 37.1974 8.98275 37.1175 8.84265 36.9774C8.70256 36.8373 8.62271 36.6481 8.62012 36.45V35.2C8.62012 35.001 8.69914 34.8103 8.83979 34.6696C8.98044 34.529 9.1712 34.45 9.37012 34.45C9.56903 34.45 9.7598 34.529 9.90045 34.6696C10.0411 34.8103 10.1201 35.001 10.1201 35.2V36.45C10.1201 36.6489 10.0411 36.8396 9.90045 36.9803C9.7598 37.1209 9.56903 37.2 9.37012 37.2Z" fill="#428FE1"/>
<path d="M36.5999 34.91C36.5011 34.9114 36.4029 34.8929 36.3113 34.8557C36.2197 34.8185 36.1365 34.7633 36.0666 34.6934C35.9967 34.6234 35.9415 34.5402 35.9043 34.4486C35.8671 34.357 35.8486 34.2589 35.8499 34.16V31.16C35.8499 30.9611 35.9289 30.7704 36.0696 30.6297C36.2102 30.4891 36.401 30.41 36.5999 30.41C36.7988 30.41 36.9896 30.4891 37.1303 30.6297C37.2709 30.7704 37.3499 30.9611 37.3499 31.16V34.16C37.3499 34.3589 37.2709 34.5497 37.1303 34.6904C36.9896 34.831 36.7988 34.91 36.5999 34.91Z" fill="#428FE1"/>
<path d="M38.1101 33.4H35.1101C34.9112 33.4 34.7204 33.321 34.5798 33.1804C34.4391 33.0397 34.3601 32.8489 34.3601 32.65C34.3601 32.4511 34.4391 32.2603 34.5798 32.1197C34.7204 31.979 34.9112 31.9 35.1101 31.9H38.1101C38.309 31.9 38.4998 31.979 38.6404 32.1197C38.7811 32.2603 38.8601 32.4511 38.8601 32.65C38.8601 32.8489 38.7811 33.0397 38.6404 33.1804C38.4998 33.321 38.309 33.4 38.1101 33.4Z" fill="#428FE1"/>
<path d="M28.4799 19.4899C28.0216 19.4888 27.5709 19.3718 27.1699 19.1499C27.0752 19.1077 26.9902 19.0463 26.9204 18.9695C26.8506 18.8927 26.7975 18.8023 26.7645 18.704C26.7314 18.6057 26.7191 18.5016 26.7283 18.3982C26.7375 18.2949 26.7681 18.1946 26.8181 18.1037C26.868 18.0128 26.9363 17.9333 27.0186 17.8701C27.1009 17.8069 27.1954 17.7615 27.2961 17.7367C27.3969 17.7119 27.5016 17.7083 27.6038 17.7261C27.706 17.7438 27.8034 17.7826 27.8899 17.8399C28.0704 17.9398 28.2736 17.9915 28.4799 17.9899C28.6788 17.9899 28.8696 18.069 29.0102 18.2096C29.1509 18.3503 29.2299 18.541 29.2299 18.7399C29.2299 18.9389 29.1509 19.1296 29.0102 19.2703C28.8696 19.4109 28.6788 19.4899 28.4799 19.4899Z" fill="#428FE1"/>
<path d="M10.8601 19.49C10.6612 19.49 10.4704 19.411 10.3298 19.2704C10.1891 19.1297 10.1101 18.939 10.1101 18.74C10.1101 18.5411 10.1891 18.3504 10.3298 18.2097C10.4704 18.0691 10.6612 17.99 10.8601 17.99C11.0664 17.9916 11.2696 17.9399 11.4501 17.84C11.6219 17.7634 11.8163 17.7542 11.9946 17.8141C12.1729 17.8741 12.3222 17.9989 12.4128 18.1638C12.5034 18.3287 12.5288 18.5216 12.4838 18.7042C12.4389 18.8869 12.3269 19.0461 12.1701 19.15C11.7691 19.3719 11.3184 19.4889 10.8601 19.49Z" fill="#428FE1"/>
<path d="M36.5999 36.8599C35.7672 36.8599 34.9533 36.613 34.2609 36.1504C33.5686 35.6878 33.029 35.0303 32.7104 34.261C32.3917 33.4918 32.3083 32.6453 32.4708 31.8286C32.6332 31.012 33.0342 30.2618 33.623 29.673C34.2118 29.0842 34.9619 28.6833 35.7786 28.5208C36.5952 28.3584 37.4417 28.4418 38.211 28.7604C38.9803 29.0791 39.6378 29.6187 40.1004 30.311C40.563 31.0033 40.8099 31.8173 40.8099 32.6499C40.8073 33.7657 40.3629 34.835 39.5739 35.6239C38.7849 36.4129 37.7156 36.8573 36.5999 36.8599ZM36.5999 29.9399C36.0639 29.9399 35.54 30.0989 35.0943 30.3967C34.6486 30.6944 34.3013 31.1177 34.0962 31.6129C33.8911 32.1081 33.8374 32.653 33.942 33.1786C34.0465 33.7043 34.3046 34.1872 34.6836 34.5662C35.0626 34.9452 35.5455 35.2033 36.0712 35.3079C36.5969 35.4124 37.1418 35.3588 37.637 35.1537C38.1322 34.9485 38.5554 34.6012 38.8532 34.1555C39.151 33.7099 39.3099 33.1859 39.3099 32.6499C39.3099 31.9312 39.0244 31.2419 38.5162 30.7337C38.0079 30.2255 37.3186 29.9399 36.5999 29.9399Z" fill="#428FE1"/>
<path d="M32.1899 45C32.0631 44.9999 31.9387 44.9654 31.8299 44.9C31.7124 44.8369 31.614 44.7432 31.5454 44.6288C31.4767 44.5143 31.4403 44.3835 31.4399 44.25V37.67C31.4399 37.4711 31.519 37.2804 31.6596 37.1397C31.8003 36.9991 31.991 36.92 32.1899 36.92C32.3889 36.92 32.5796 36.9991 32.7203 37.1397C32.8609 37.2804 32.9399 37.4711 32.9399 37.67V42.86L36.1899 40.79C36.3103 40.7113 36.4511 40.6694 36.5949 40.6694C36.7388 40.6694 36.8795 40.7113 36.9999 40.79L40.2499 42.86V37.86C40.2499 37.6611 40.329 37.4704 40.4696 37.3297C40.6103 37.1891 40.801 37.11 40.9999 37.11C41.1989 37.11 41.3896 37.1891 41.5303 37.3297C41.6709 37.4704 41.7499 37.6611 41.7499 37.86V44.27C41.7496 44.4035 41.7131 44.5343 41.6445 44.6488C41.5758 44.7632 41.4775 44.8569 41.3599 44.92C41.2459 44.9909 41.1142 45.0285 40.9799 45.0285C40.8456 45.0285 40.714 44.9909 40.5999 44.92L36.5999 42.37L32.5999 44.92C32.4731 44.9835 32.3313 45.0112 32.1899 45Z" fill="#428FE1"/>
<path d="M36.6001 39.88C35.1673 39.882 33.7662 39.4588 32.574 38.664C31.3819 37.8692 30.4523 36.7386 29.9031 35.4153C29.3539 34.0919 29.2097 32.6354 29.4887 31.23C29.7678 29.8247 30.4575 28.5337 31.4706 27.5206C32.4838 26.5074 33.7747 25.8177 35.1801 25.5387C36.5855 25.2596 38.042 25.4038 39.3653 25.9531C40.6887 26.5023 41.8193 27.4318 42.6141 28.6239C43.4089 29.8161 43.8321 31.2172 43.8301 32.65C43.8275 34.5667 43.0649 36.4042 41.7096 37.7595C40.3542 39.1148 38.5168 39.8774 36.6001 39.88ZM36.6001 26.88C35.4644 26.878 34.3537 27.213 33.4084 27.8425C32.4631 28.472 31.7259 29.3678 31.2899 30.4165C30.8539 31.4652 30.7388 32.6196 30.9592 33.7337C31.1795 34.8478 31.7254 35.8715 32.5278 36.6753C33.3301 37.479 34.3529 38.0267 35.4666 38.249C36.5803 38.4713 37.735 38.3582 38.7844 37.924C39.8338 37.4899 40.7309 36.7542 41.362 35.81C41.9932 34.8659 42.3301 33.7557 42.3301 32.62C42.3196 31.1054 41.7119 29.6562 40.639 28.587C39.5661 27.5179 38.1147 26.9153 36.6001 26.91V26.88Z" fill="#428FE1"/>
</svg>
