<svg width="32" height="32" viewBox="0 0 32 32" fill="none" xmlns="http://www.w3.org/2000/svg">
<path d="M25.1358 8.56047C24.9567 8.46978 24.7823 8.37035 24.6134 8.26257C24.122 7.94433 23.6716 7.56935 23.2716 7.14571C22.271 6.02397 21.8973 4.88599 21.7597 4.08924H21.7652C21.6502 3.4279 21.6977 3 21.7049 3H17.1474V20.2664C17.1474 20.4982 17.1474 20.7273 17.1374 20.9537C17.1374 20.9819 17.1347 21.0079 17.133 21.0382C17.133 21.0507 17.133 21.0637 17.1303 21.0767C17.1303 21.0799 17.1303 21.0832 17.1303 21.0864C17.0822 21.7059 16.8795 22.3044 16.54 22.8292C16.2005 23.3539 15.7346 23.7889 15.1832 24.0958C14.6085 24.4161 13.9586 24.5841 13.2975 24.5833C11.1741 24.5833 9.45311 22.8868 9.45311 20.7918C9.45311 18.6967 11.1741 17.0003 13.2975 17.0003C13.6994 16.9999 14.0989 17.0619 14.4811 17.1839L14.4866 12.6374C13.3264 12.4906 12.1478 12.5809 11.025 12.9027C9.90224 13.2245 8.85972 13.7708 7.96323 14.5071C7.1777 15.1758 6.51729 15.9737 6.01174 16.8649C5.81936 17.1899 5.09349 18.4958 5.00559 20.6152C4.95031 21.8182 5.31904 23.0645 5.49484 23.5796V23.5904C5.60541 23.8937 6.03385 24.9288 6.73208 25.8014C7.2951 26.5013 7.96029 27.1162 8.70623 27.6262V27.6154L8.71729 27.6262C10.9236 29.0951 13.3699 28.9987 13.3699 28.9987C13.7934 28.9819 15.2119 28.9987 16.8229 28.2507C18.6096 27.4214 19.6268 26.186 19.6268 26.186C20.2767 25.4478 20.7934 24.6065 21.1549 23.6982C21.5673 22.6361 21.7049 21.3621 21.7049 20.853V11.6928C21.7602 11.7253 22.4966 12.2025 22.4966 12.2025C22.4966 12.2025 23.5575 12.8687 25.2126 13.3025C26.4001 13.6113 28 13.6763 28 13.6763V9.24348C27.4394 9.30306 26.3012 9.12974 25.1358 8.56047Z" fill="white"/>
</svg>
