<svg width="32" height="32" viewBox="0 0 32 32" fill="none" xmlns="http://www.w3.org/2000/svg">
<mask id="mask0_2492_5934" style="mask-type:luminance" maskUnits="userSpaceOnUse" x="3" y="3" width="26" height="26">
<path d="M3 3H29V29H3V3Z" fill="white"/>
</mask>
<g mask="url(#mask0_2492_5934)">
<path d="M9.49443 26.2754L3.76174 28.2383L5.77527 22.5562C4.5649 20.6631 3.76169 18.4134 3.76169 15.9998C3.76169 9.26889 9.26902 3.76157 16 3.76157C22.731 3.76157 28.2383 9.26889 28.2383 15.9998C28.2383 22.7308 22.731 28.2381 16 28.2381C13.5864 28.2381 11.3875 27.4858 9.49443 26.2754Z" fill="white"/>
<path d="M10.7156 9.37427C9.37928 10.7105 9.79442 15.7118 13.1351 19.0526C16.4759 22.3933 21.4772 22.8084 22.8134 21.4721L23.4183 20.8672C23.7525 20.5332 23.7525 19.9915 23.4183 19.6575L20.9987 17.2379C20.6647 16.9038 20.1231 16.9038 19.789 17.2379L19.1841 17.8428C18.5159 18.5109 17.4326 18.5109 16.7645 17.8428L14.3449 15.4232C13.6768 14.7551 13.6768 13.6718 14.3449 13.0036L14.9498 12.3988C15.2839 12.0647 15.2839 11.523 14.9498 11.1889L12.5303 8.76937C12.1962 8.43528 11.6545 8.43528 11.3204 8.76937L10.7156 9.37427Z" fill="#1A467F"/>
</g>
</svg>
