<svg width="32" height="32" viewBox="0 0 32 32" fill="none" xmlns="http://www.w3.org/2000/svg">
<path d="M13.3333 19.9998L20.2533 15.9998L13.3333 11.9998V19.9998ZM28.7467 9.55984C28.92 10.1865 29.04 11.0265 29.12 12.0932C29.2133 13.1598 29.2533 14.0798 29.2533 14.8798L29.3333 15.9998C29.3333 18.9198 29.12 21.0665 28.7467 22.4398C28.4133 23.6398 27.64 24.4132 26.44 24.7465C25.8133 24.9198 24.6667 25.0398 22.9067 25.1198C21.1733 25.2132 19.5867 25.2532 18.12 25.2532L16 25.3332C10.4133 25.3332 6.93334 25.1198 5.56001 24.7465C4.36001 24.4132 3.58667 23.6398 3.25334 22.4398C3.08001 21.8132 2.96001 20.9732 2.88001 19.9065C2.78667 18.8398 2.74667 17.9198 2.74667 17.1198L2.66667 15.9998C2.66667 13.0798 2.88001 10.9332 3.25334 9.55984C3.58667 8.35984 4.36001 7.5865 5.56001 7.25317C6.18667 7.07984 7.33334 6.95984 9.09334 6.87984C10.8267 6.7865 12.4133 6.7465 13.88 6.7465L16 6.6665C21.5867 6.6665 25.0667 6.87984 26.44 7.25317C27.64 7.5865 28.4133 8.35984 28.7467 9.55984Z" fill="white"/>
</svg>
